<svg width="31" height="29" viewBox="0 0 31 29" fill="none" xmlns="http://www.w3.org/2000/svg">
<path fill-rule="evenodd" clip-rule="evenodd" d="M22.8702 18.3973H17.8917C17.1192 18.3973 16.3752 18.7024 15.8172 19.2482L10.7697 24.1863C10.2927 24.6539 9.50071 24.3074 9.50071 23.6329V19.9304C9.50071 19.0841 8.82871 18.3973 8.00071 18.3973C6.50071 18.3973 4.06771 18.4985 3.56371 15.9673C3.01171 13.1863 6.14821 11.1457 8.35621 12.941C5.27821 2.57871 20.8317 -1.01182 22.8507 9.214C22.8762 9.214 22.9002 9.2094 22.9257 9.20633C22.9497 9.20173 22.9752 9.19867 23.0007 9.19867C28.8057 9.19867 29.1312 18.3973 22.8702 18.3973ZM25.1697 6.49577C25.1607 6.49424 25.1547 6.48964 25.1487 6.48504C25.1427 6.47891 25.1382 6.47277 25.1352 6.46511C23.5122 2.64461 19.7982 0 15.5007 0C10.1607 0 5.76271 4.07653 5.09671 9.34735C5.09521 9.35961 5.09071 9.37035 5.08321 9.37801C5.07571 9.38721 5.06521 9.39334 5.05471 9.39641C2.19721 10.1216 0.143706 12.9195 0.551706 16.1467C0.890706 18.8235 3.04171 20.9484 5.82421 21.37C6.20521 21.4267 6.50071 21.7364 6.50071 22.1304V25.4281C6.50071 28.1586 9.73171 29.5276 11.6217 27.5959L17.1822 21.9127C17.4642 21.6245 17.8452 21.4635 18.2427 21.4635H22.6557C26.6097 21.4635 30.1377 18.4923 30.4722 14.4649C30.7797 10.7701 28.4937 7.52909 25.1697 6.49577Z" fill="white"/>
</svg>
