<svg width="22" height="22" viewBox="0 0 22 22" fill="none" xmlns="http://www.w3.org/2000/svg">
<path fill-rule="evenodd" clip-rule="evenodd" d="M15.3953 0.39785C12.4799 0.265172 9.51815 0.265167 6.60258 0.39785C5.46701 0.44985 4.6919 0.62963 4.01367 0.893411C3.3121 1.16586 2.71699 1.53031 2.12409 2.12342C1.53075 2.71632 1.1663 3.31144 0.892965 4.01278C0.628518 4.69123 0.448518 5.46657 0.397405 6.60169C0.266678 9.52452 0.265188 12.4746 0.397627 15.3973C0.449849 16.5329 0.629628 17.308 0.893187 17.9863C1.16586 18.6878 1.5303 19.2829 2.12342 19.8758C2.7161 20.4692 3.31121 20.8345 4.01233 21.107C4.69101 21.3707 5.46635 21.5505 6.60169 21.6025C9.524 21.7355 12.4746 21.7355 15.3969 21.6025C16.5325 21.5505 17.3085 21.3707 17.9871 21.107C18.6885 20.8345 19.2827 20.4692 19.8754 19.8758C20.4687 19.2829 20.8332 18.6878 21.1065 17.9865C21.3687 17.308 21.5487 16.5327 21.6021 15.3976C21.7334 12.4747 21.7334 9.52482 21.6021 6.60192C21.5487 5.46635 21.3687 4.69123 21.1065 4.013C20.8332 3.31144 20.4687 2.71632 19.8754 2.12342C19.2821 1.53009 18.6887 1.16564 17.9865 0.893411C17.3065 0.62963 16.5309 0.44985 15.3953 0.39785ZM15.3115 2.31711C16.3515 2.36467 16.916 2.53845 17.292 2.68445C17.7898 2.87779 18.1446 3.1089 18.5178 3.48224C18.8911 3.85557 19.1222 4.21113 19.316 4.70892C19.462 5.08448 19.636 5.64893 19.6833 6.68894C19.8135 9.55216 19.8135 12.4436 19.6833 15.3068C19.6358 16.3468 19.462 16.9113 19.316 17.2868C19.1227 17.7846 18.8911 18.1391 18.5178 18.5122C18.1444 18.8855 17.79 19.1166 17.292 19.31C16.9164 19.4566 16.3515 19.63 15.3115 19.6775C12.4474 19.8077 9.55508 19.8077 6.69097 19.6775C5.65096 19.6295 5.08651 19.4557 4.71029 19.3097C4.2125 19.1164 3.85694 18.8853 3.48361 18.5119C3.11027 18.1386 2.87916 17.7839 2.68538 17.2859C2.53937 16.9104 2.36537 16.3459 2.31804 15.3059C2.18787 12.4423 2.18788 9.54986 2.31804 6.68627C2.3656 5.64626 2.53937 5.08181 2.68538 4.70581C2.87871 4.20802 3.11027 3.85246 3.48361 3.47913C3.85694 3.10579 4.2125 2.87468 4.71029 2.6809C5.08629 2.53423 5.65096 2.36089 6.69097 2.31311C9.5498 2.18399 12.455 2.1873 15.3115 2.31711ZM16.6948 4.02694C15.9882 4.02694 15.4148 4.59961 15.4148 5.3065C15.4148 6.01318 15.9882 6.58652 16.6948 6.58652C17.4015 6.58652 17.9748 6.01318 17.9748 5.3065C17.9748 4.59983 17.4015 4.02694 16.6948 4.02694ZM5.52315 11.0003C5.52315 7.97527 7.97573 5.52262 11.0008 5.5225C14.0259 5.5225 16.4779 7.97519 16.4779 11.0003C16.4779 14.0255 14.0261 16.4771 11.001 16.4771C7.97585 16.4771 5.52315 14.0255 5.52315 11.0003ZM14.5565 11.0001C14.5565 9.03625 12.9645 7.44446 11.0009 7.44446C9.0371 7.44446 7.4453 9.03625 7.4453 11.0001C7.4453 12.9636 9.0371 14.5556 11.0009 14.5556C12.9645 14.5556 14.5565 12.9636 14.5565 11.0001Z" fill="white"/>
</svg>
