<svg width="22" height="18" viewBox="0 0 22 18" fill="none" xmlns="http://www.w3.org/2000/svg">
<path fill-rule="evenodd" clip-rule="evenodd" d="M10.6823 4.78828L10.7299 5.56683L9.93513 5.4715C7.04202 5.10606 4.51452 3.86673 2.36854 1.7853L1.31939 0.752529L1.04915 1.51519C0.476887 3.21529 0.842498 5.01073 2.03471 6.21827C2.67056 6.8856 2.5275 6.98093 1.43066 6.58372C1.04915 6.4566 0.715328 6.36127 0.683537 6.40894C0.572263 6.52016 0.953773 7.96604 1.2558 8.53804C1.6691 9.33248 2.5116 10.111 3.43358 10.5718L4.2125 10.9372L3.29052 10.9531C2.40033 10.9531 2.36854 10.969 2.46391 11.3027C2.78184 12.3355 4.03764 13.4318 5.4365 13.9084L6.42207 14.2421L5.56367 14.7506C4.29198 15.4814 2.79773 15.8945 1.30349 15.9263C0.58816 15.9422 0 16.0058 0 16.0534C0 16.2123 1.93934 17.1021 3.06797 17.4516C6.45386 18.4844 10.4756 18.0395 13.4959 16.2759C15.6419 15.0207 17.7879 12.5261 18.7893 10.111C19.3298 8.82403 19.8703 6.47249 19.8703 5.34439C19.8703 4.6135 19.918 4.51817 20.8081 3.64429C21.3327 3.13585 21.8255 2.57974 21.9209 2.42085C22.0798 2.11897 22.0639 2.11897 21.2532 2.38907C19.9021 2.86574 19.7113 2.80218 20.3789 2.08719C20.8717 1.57875 21.4599 0.657196 21.4599 0.387087C21.4599 0.33942 21.2214 0.418864 20.9512 0.561863C20.6651 0.720752 20.0292 0.959083 19.5523 1.10208L18.6939 1.37219L17.915 0.847862C17.4858 0.561864 16.8818 0.244086 16.5639 0.148754C15.7531 -0.0736894 14.5132 -0.0419091 13.782 0.212311C11.795 0.927306 10.5392 2.7704 10.6823 4.78828Z" fill="white"/>
</svg>
