<svg width="20" height="20" viewBox="0 0 20 20" fill="none" xmlns="http://www.w3.org/2000/svg">
<path fill-rule="evenodd" clip-rule="evenodd" d="M10 20C15.5228 20 20 15.5228 20 10C20 4.47715 15.5228 0 10 0C4.47715 0 0 4.47715 0 10C0 15.5228 4.47715 20 10 20ZM13.8859 9.59216C13.8669 9.07859 13.7804 8.65733 13.6001 8.18766C13.4221 7.72567 13.242 7.42419 12.9017 7.01644C12.58 6.63412 12.3302 6.41582 11.9339 6.17283C11.3811 5.83427 10.7083 5.61022 9.95428 5.516C9.69714 5.48306 9.63897 5.48542 9.56008 5.53805C9.40721 5.63777 9.40925 5.88648 9.5626 5.9847C9.61337 6.01594 9.65841 6.02732 9.86409 6.05425C10.1798 6.09676 10.3829 6.13682 10.6238 6.20255C11.5685 6.46079 12.2949 6.98865 12.7806 7.77223C13.1871 8.42535 13.3558 9.07852 13.3318 9.91273C13.3235 10.1948 13.3295 10.2444 13.3727 10.3121C13.4552 10.4384 13.6729 10.4634 13.7846 10.3586C13.8541 10.2948 13.8672 10.2468 13.8809 10.0054C13.8875 9.8795 13.8889 9.69362 13.8859 9.59216ZM13.8898 12.7022C13.9194 12.7482 13.9608 12.8282 13.9786 12.8801C14.0171 12.9869 14.0333 13.1544 14.0126 13.2507C13.983 13.3916 13.8779 13.568 13.5937 13.9505C13.422 14.1802 13.1141 14.496 12.9898 14.5701C12.6952 14.7421 12.4451 14.7317 11.8693 14.5227C10.882 14.1639 9.93018 13.6391 9.01246 12.9498C7.25542 11.6304 5.97654 9.96857 5.11949 7.88721C5.00995 7.62184 4.9922 7.53586 5.00255 7.32832C5.01441 7.0763 5.09283 6.88507 5.2971 6.61527C5.52358 6.3173 6.05351 5.89035 6.33621 5.78065C6.60415 5.67686 6.84689 5.70356 7.03635 5.85772C7.14146 5.94521 7.66842 6.59156 7.88009 6.89397C8.03995 7.12374 8.2605 7.47953 8.34488 7.64261C8.45442 7.85755 8.47365 8.07102 8.4026 8.28006C8.34635 8.44462 8.29751 8.49947 7.99553 8.73961C7.84161 8.86414 7.70246 8.97831 7.68913 8.99311C7.67582 9.00944 7.64621 9.06131 7.62401 9.11023C7.53373 9.30444 7.58849 9.5698 7.80459 10.0042C7.97188 10.3422 8.18352 10.6416 8.49438 10.9811C8.75787 11.2702 9.10126 11.5622 9.36918 11.7253C9.71407 11.9358 10.1626 12.0959 10.4098 12.0974C10.5164 12.0974 10.6673 12.0544 10.7443 12.001C10.7754 11.9803 10.8923 11.8483 11.0063 11.7075C11.289 11.3561 11.3778 11.2776 11.5466 11.2301C11.7035 11.1842 11.9152 11.2331 12.2008 11.3799C12.7012 11.6363 13.7032 12.4206 13.8898 12.7022ZM12.8199 9.38364C12.7671 8.47571 12.412 7.74524 11.7765 7.2313C11.4184 6.94251 10.9855 6.74393 10.5111 6.64736C10.3373 6.61282 10.0173 6.58483 9.96239 6.60084C9.91058 6.61567 9.83732 6.67176 9.80466 6.72248C9.77012 6.77749 9.76234 6.90031 9.7918 6.97135C9.83935 7.09011 9.92781 7.13206 10.1755 7.15373C10.5574 7.18715 10.9514 7.32132 11.249 7.51996C11.5888 7.74613 11.8589 8.05547 12.0336 8.41898C12.1846 8.7313 12.2775 9.1814 12.2749 9.58445C12.274 9.73023 12.2965 9.81255 12.3552 9.87274C12.4436 9.96529 12.5726 9.98553 12.6865 9.92406C12.8126 9.85771 12.8421 9.74124 12.8199 9.38364ZM11.7729 9.04951C11.7365 8.75316 11.6454 8.52046 11.4836 8.31435C11.2736 8.04896 11.0051 7.89003 10.6077 7.79576C10.3488 7.73292 10.2441 7.74013 10.1505 7.82569C10.0632 7.90585 10.0462 8.06655 10.1128 8.17062C10.1597 8.24615 10.2138 8.27321 10.3643 8.30274C10.5646 8.3396 10.7031 8.38744 10.829 8.45945C11.0964 8.61381 11.2208 8.85535 11.2342 9.2464C11.2404 9.43001 11.2563 9.48645 11.3204 9.55158C11.4392 9.67062 11.6508 9.64746 11.7405 9.50501C11.7734 9.45132 11.7785 9.42795 11.7819 9.30327C11.7842 9.22609 11.7809 9.1112 11.7729 9.04951Z" fill="white"/>
</svg>
