<svg width="20" height="20" viewBox="0 0 20 20" fill="none" xmlns="http://www.w3.org/2000/svg">
<path fill-rule="evenodd" clip-rule="evenodd" d="M10 0C4.47715 0 0 4.47715 0 10C0 15.5228 4.47715 20 10 20C15.5228 20 20 15.5228 20 10C20 4.47715 15.5228 0 10 0ZM10.8143 13.1566C10.7157 13.2606 10.5232 13.2816 10.5232 13.2816H9.88566C9.88566 13.2816 8.47914 13.3645 7.24009 12.0986C5.88887 10.7175 4.69572 7.97719 4.69572 7.97719C4.69572 7.97719 4.62686 7.79744 4.70146 7.71089C4.78546 7.61308 5.01449 7.60694 5.01449 7.60694L6.53839 7.59721C6.53839 7.59721 6.68186 7.62025 6.78464 7.69451C6.86968 7.75596 6.91715 7.87016 6.91715 7.87016C6.91715 7.87016 7.1634 8.48161 7.48946 9.03469C8.12647 10.1147 8.4228 10.3508 8.63878 10.2351C8.9539 10.0666 8.85947 8.70848 8.85947 8.70848C8.85947 8.70848 8.86521 8.21583 8.70087 7.99614C8.57357 7.82612 8.33359 7.77644 8.22768 7.76262C8.1416 7.75135 8.28246 7.55572 8.46506 7.46815C8.73947 7.33654 9.22362 7.32886 9.79593 7.33449C10.242 7.3391 10.3703 7.36625 10.5446 7.40773C10.949 7.50352 10.9364 7.81052 10.9091 8.47308C10.901 8.67124 10.8915 8.90119 10.8915 9.16681C10.8915 9.2265 10.8897 9.29012 10.8879 9.35558C10.8785 9.69502 10.8676 10.0837 11.0955 10.2284C11.2124 10.3021 11.4977 10.2392 12.212 9.04903C12.5505 8.48468 12.8041 7.82151 12.8041 7.82151C12.8041 7.82151 12.8599 7.70321 12.946 7.65251C13.0342 7.60079 13.1531 7.61666 13.1531 7.61666L14.7568 7.60694C14.7568 7.60694 15.2389 7.55009 15.3166 7.76415C15.3985 7.98794 15.1366 8.51131 14.4814 9.36858C13.8598 10.182 13.5573 10.4815 13.5851 10.7463C13.6054 10.9399 13.802 11.1149 14.1793 11.4585C14.967 12.1763 15.1781 12.554 15.2288 12.6447C15.233 12.6523 15.2361 12.6578 15.2384 12.6614C15.5916 13.2365 14.8466 13.2816 14.8466 13.2816L13.4218 13.301C13.4218 13.301 13.1161 13.3604 12.7133 13.089C12.5023 12.947 12.2962 12.715 12.0998 12.494C11.7999 12.1565 11.5229 11.8447 11.2864 11.9184C10.8894 12.0423 10.9014 12.8816 10.9014 12.8816C10.9014 12.8816 10.9046 13.0614 10.8143 13.1566Z" fill="white"/>
</svg>
