<svg width="72" height="70" viewBox="0 0 72 70" fill="none" xmlns="http://www.w3.org/2000/svg">
<path fill-rule="evenodd" clip-rule="evenodd" d="M49.3624 23.1627L39.2836 40.6334L37.6133 37.7373L47.6921 20.2666L49.3624 23.1627ZM40.9516 43.5255L51.0324 26.0548L52.7006 28.9469L42.6218 46.4176L40.9516 43.5255ZM54.3689 31.8404L44.2901 49.3111L45.8421 51.9991H46.0766L56.0371 34.7325L54.3689 31.8404ZM49.4131 51.999L57.7074 37.6245L59.3756 40.5186L52.7516 51.999H49.4131ZM56.0885 51.9997H59.427L62.7125 46.3034L61.0443 43.4113L56.0885 51.9997ZM62.7652 51.9998L64.3825 49.1975L65.9998 51.9998H62.7652Z" fill="#3D5A80"/>
<path fill-rule="evenodd" clip-rule="evenodd" d="M39.1628 51.9999L22.5823 23.2589L24.2526 20.3628L42.5034 51.9999H39.1628ZM32.4881 51.9997L19.2441 29.0429L20.9124 26.1508L35.8266 51.9997H32.4881ZM15.9078 34.8287L25.8133 51.9994H29.1518L17.5761 31.9346L15.9078 34.8287ZM19.1375 51.9994L12.5686 40.6149L14.2368 37.7208L22.474 51.9994H19.1375ZM9.23028 46.3997L12.4628 52.0001H15.7992L10.9006 43.5077L9.23028 46.3997ZM7.56219 49.2917L9.12439 52H6L7.56219 49.2917Z" fill="#584B41"/>
<path fill-rule="evenodd" clip-rule="evenodd" d="M35.9997 0L37.6679 2.89001C37.1132 2.85736 36.5585 2.84715 35.9997 2.84715C35.4409 2.84715 34.8861 2.86144 34.3314 2.89001L35.9997 0ZM39.4282 5.95362L41.2922 9.18447C37.8008 8.46332 34.199 8.46332 30.7076 9.18447L32.5717 5.95362C34.8491 5.6815 37.1508 5.6815 39.4282 5.95362ZM45.7684 16.9402L43.3374 12.7194C38.5723 11.1256 33.4186 11.1256 28.6536 12.7194L26.2246 16.9402C29.2159 15.2845 32.5782 14.4159 35.9965 14.4159C39.4148 14.4159 42.7771 15.2845 45.7684 16.9402ZM44.7013 19.6643L43.2574 22.1666C41.04 20.8725 38.5175 20.1947 35.9506 20.2033C33.3838 20.2119 30.8658 20.9066 28.6572 22.2156L27.2133 19.7113C29.8607 18.1478 32.8769 17.3193 35.9509 17.311C39.0249 17.3028 42.0455 18.1151 44.7013 19.6643ZM35.9991 25.99C37.5349 25.9881 39.0432 26.3976 40.3675 27.1758L41.8135 24.6715C40.0354 23.6314 38.0112 23.0874 35.9516 23.096C33.8921 23.1046 31.8725 23.6656 30.1031 24.7205L31.547 27.2228C32.8914 26.4144 34.4307 25.9882 35.9991 25.99ZM35.8558 31.7811C35.8048 31.7847 35.753 31.7884 35.7033 31.7884C35.2525 31.8356 34.8192 31.9887 34.4388 32.2354L32.9908 29.7291C33.8824 29.1836 34.9054 28.8909 35.9504 28.8823C36.9954 28.8736 38.023 29.1494 38.9235 29.6801L37.4776 32.1864C37.365 32.1159 37.247 32.0545 37.1247 32.0027C36.7687 31.8514 36.3858 31.7736 35.999 31.7741C35.9538 31.7741 35.9052 31.7776 35.8558 31.7811Z" fill="#F26C0D"/>
<path d="M7.42729 63.7772C8.42619 63.3315 9.05452 62.4402 9.05452 61.3177C9.05452 59.2215 6.79895 58 4.18893 58C2.90003 58 1.54668 58.2971 0.322225 58.9409L1.11168 61.0206C2.07835 60.4594 3.19003 60.1953 4.14059 60.1953C5.41338 60.1953 6.41228 60.6905 6.41228 61.6314C6.41228 62.3906 5.80005 62.8693 4.73671 62.8693H2.17502V64.8831H4.93004C6.10616 64.8831 6.87951 65.3122 6.87951 66.1871C6.87951 67.26 5.67116 67.8212 4.18893 67.8212C3.09336 67.8212 1.83668 67.5241 0.805563 66.8803L0 68.795C1.40168 69.6204 2.99669 70 4.49504 70C7.20173 70 9.52175 68.7455 9.52175 66.5667C9.52175 65.2627 8.7323 64.2393 7.42729 63.7772Z" fill="white"/>
<path d="M17.0654 70C20.6099 70 23.236 67.4745 23.236 64.0248C23.236 60.575 20.6099 58.0495 17.0654 58.0495C13.5048 58.0495 10.8948 60.5915 10.8948 64.0248C10.8948 67.458 13.5048 70 17.0654 70ZM17.0654 67.7221C15.0515 67.7221 13.5371 66.2201 13.5371 64.0248C13.5371 61.8294 15.0515 60.3274 17.0654 60.3274C19.0793 60.3274 20.5938 61.8294 20.5938 64.0248C20.5938 66.2201 19.0793 67.7221 17.0654 67.7221Z" fill="white"/>
<path d="M33.1569 63.7772C34.1558 63.282 34.7519 62.4071 34.7519 61.2352C34.7519 59.3205 33.2052 58.2476 30.5952 58.2476H25.3429V69.8019H30.9013C33.753 69.8019 35.2835 68.564 35.2835 66.5502C35.2835 65.1472 34.5263 64.1898 33.1569 63.7772ZM27.9368 60.2283H30.3696C31.4974 60.2283 32.0935 60.7235 32.0935 61.6314C32.0935 62.5557 31.4974 63.0344 30.3696 63.0344H27.9368V60.2283ZM30.8046 67.8212H27.9368V64.8996H30.8046C32.013 64.8996 32.6413 65.3618 32.6413 66.3356C32.6413 67.3425 32.013 67.8212 30.8046 67.8212Z" fill="white"/>
<path d="M47.6356 58.2476H39.6767V69.8019H42.2706L42.2545 60.4264H47.6195L47.6356 58.2476Z" fill="white"/>
<path d="M53.9429 70C57.4874 70 60.1135 67.4745 60.1135 64.0248C60.1135 60.575 57.4874 58.0495 53.9429 58.0495C50.3824 58.0495 47.7723 60.5915 47.7723 64.0248C47.7723 67.458 50.3824 70 53.9429 70ZM53.9429 67.7221C51.929 67.7221 50.4146 66.2201 50.4146 64.0248C50.4146 61.8294 51.929 60.3274 53.9429 60.3274C55.9568 60.3274 57.4713 61.8294 57.4713 64.0248C57.4713 66.2201 55.9568 67.7221 53.9429 67.7221Z" fill="white"/>
<path d="M67.1021 58.2476H62.2204V69.8019H64.8305V66.6162H67.1021C70.1149 66.6162 72 65.0151 72 62.4402C72 59.8487 70.1149 58.2476 67.1021 58.2476ZM66.9571 64.4374H64.8305V60.4264H66.9571C68.5522 60.4264 69.3577 61.1692 69.3577 62.4402C69.3577 63.6946 68.5522 64.4374 66.9571 64.4374Z" fill="white"/>
</svg>
