<svg width="141" height="40" viewBox="0 0 141 40" fill="none" xmlns="http://www.w3.org/2000/svg">
<path fill-rule="evenodd" clip-rule="evenodd" d="M22.9996 0.00012207L24.2786 2.22321C23.8533 2.19809 23.428 2.19024 22.9996 2.19024C22.5712 2.19024 22.1459 2.20123 21.7206 2.22321L22.9996 0.00012207ZM25.6282 4.57969L27.0572 7.06496C24.3805 6.51023 21.6191 6.51023 18.9424 7.06496L20.3715 4.57969C22.1175 4.37036 23.8821 4.37036 25.6282 4.57969ZM30.4889 13.0311L28.6252 9.78436C24.972 8.55836 21.0208 8.55836 17.3676 9.78436L15.5054 13.0311C17.7987 11.7575 20.3765 11.0894 22.9972 11.0894C25.6179 11.0894 28.1956 11.7575 30.4889 13.0311ZM29.6708 15.1267L28.5638 17.0515C26.8639 16.0561 24.9299 15.5347 22.962 15.5413C20.9941 15.5479 19.0636 16.0823 17.3704 17.0892L16.2634 15.1628C18.2931 13.9602 20.6055 13.3228 22.9622 13.3165C25.319 13.3101 27.6347 13.935 29.6708 15.1267ZM22.9992 19.9924C24.1766 19.9909 25.333 20.3059 26.3483 20.9045L27.4569 18.9782C26.0937 18.1781 24.5418 17.7595 22.9628 17.7662C21.3838 17.7728 19.8354 18.2043 18.4789 19.0158L19.5859 20.9406C20.6167 20.3188 21.7967 19.9909 22.9992 19.9924ZM22.8893 24.4469L22.8892 24.4469C22.8502 24.4497 22.8105 24.4525 22.7724 24.4525C22.4267 24.4888 22.0946 24.6066 21.8029 24.7964L20.6928 22.8684C21.3764 22.4488 22.1607 22.2237 22.9618 22.2171C23.763 22.2104 24.5508 22.4225 25.2412 22.8307L24.1326 24.7587C24.0463 24.7045 23.9559 24.6572 23.8621 24.6174C23.5892 24.501 23.2956 24.4412 22.9991 24.4415C22.9645 24.4415 22.9272 24.4442 22.8894 24.4469L22.8893 24.4469ZM25.5176 31.2569L33.2447 17.8179L31.9641 15.5901L24.237 29.0291L25.5176 31.2569ZM34.5251 20.0424L26.7964 33.4814L28.077 35.7061L35.804 22.2671L34.5251 20.0424ZM29.3559 37.9323L37.083 24.4933L38.362 26.7179L30.7256 39.9999H30.5458L29.3559 37.9323ZM39.6426 28.9425L33.2836 39.9998H35.8431L40.9215 31.1687L39.6426 28.9425ZM40.9609 40.0001H38.4014L42.2008 33.3937L43.4798 35.6183L40.9609 40.0001ZM44.7601 37.8445L43.5202 40H46L44.7601 37.8445ZM12.7131 17.8916L25.4248 40H27.9859L13.9937 15.6638L12.7131 17.8916ZM10.1538 22.3409L20.3076 40H22.8671L11.4328 20.1163L10.1538 22.3409ZM15.1902 39.9999L7.596 26.7916L8.87498 24.5654L17.7497 39.9999H15.1902ZM5.03591 31.2424L10.0721 39.9998H12.6301L6.3149 29.0162L5.03591 31.2424ZM4.95477 40.0001L2.47653 35.6921L3.75708 33.4674L7.51274 40.0001H4.95477ZM2.39537 40L1.19768 37.9166L0 40H2.39537ZM55.8291 12.5939C56.0792 12.5939 56.2511 12.5748 56.2511 12.547C56.2511 12.517 56.6887 12.5001 57.4701 12.5001C58.2515 12.5001 58.6891 12.517 58.6891 12.547C58.6891 12.5748 58.861 12.5939 59.1111 12.5939C59.3611 12.5939 59.533 12.613 59.533 12.6408C59.533 12.6665 59.6385 12.6876 59.7675 12.6876C59.8964 12.6876 60.0019 12.7087 60.0019 12.7345C60.0019 12.7603 60.1074 12.7814 60.2363 12.7814C60.3652 12.7814 60.4707 12.8025 60.4707 12.8283C60.4707 12.854 60.534 12.8751 60.6114 12.8751C60.6887 12.8751 60.752 12.8962 60.752 12.922C60.752 12.9478 60.8153 12.9689 60.8927 12.9689C60.97 12.9689 61.0333 12.99 61.0333 13.0158C61.0333 13.0415 61.0966 13.0626 61.174 13.0626C61.2514 13.0626 61.3146 13.0837 61.3146 13.1095C61.3146 13.1353 61.3568 13.1564 61.4084 13.1564C61.46 13.1564 61.5022 13.1775 61.5022 13.2033C61.5022 13.229 61.5444 13.2501 61.596 13.2501C61.6475 13.2501 61.6897 13.2712 61.6897 13.297C61.6897 13.3228 61.7319 13.3439 61.7835 13.3439C61.8351 13.3439 61.8773 13.365 61.8773 13.3908C61.8773 13.4165 61.9148 13.4376 61.9607 13.4376C62.0066 13.4376 62.0745 13.4798 62.1117 13.5314C62.1489 13.5829 62.2066 13.6251 62.24 13.6251C62.3192 13.6251 63.0025 14.3083 63.0025 14.3875C63.0025 14.4209 63.0447 14.4786 63.0963 14.5158C63.1478 14.5529 63.19 14.6208 63.19 14.6667C63.19 14.7126 63.2111 14.7501 63.2369 14.7501C63.2627 14.7501 63.2838 14.7923 63.2838 14.8439C63.2838 14.8954 63.3049 14.9376 63.3307 14.9376C63.3565 14.9376 63.3776 15.022 63.3776 15.1251C63.3776 15.2283 63.3987 15.3126 63.4245 15.3126C63.4502 15.3126 63.4713 15.3759 63.4713 15.4533C63.4713 15.5306 63.4924 15.5939 63.5182 15.5939C63.5475 15.5939 63.5651 15.8751 63.5651 16.3439C63.5651 16.8126 63.5475 17.0939 63.5182 17.0939C63.4924 17.0939 63.4713 17.1783 63.4713 17.2814C63.4713 17.3845 63.4502 17.4689 63.4245 17.4689C63.3987 17.4689 63.3776 17.5322 63.3776 17.6095C63.3776 17.6868 63.3565 17.7501 63.3307 17.7501C63.3049 17.7501 63.2838 17.7877 63.2838 17.8335C63.2838 17.8794 63.2416 17.9473 63.19 17.9845C63.1385 18.0217 63.0963 18.0795 63.0963 18.113C63.0963 18.1984 62.5981 18.6876 62.5112 18.6876C62.472 18.6876 62.4399 18.7087 62.4399 18.7345C62.4399 18.7603 62.4023 18.7814 62.3565 18.7814C62.3106 18.7814 62.2426 18.8236 62.2055 18.8751C62.1683 18.9267 62.1003 18.9689 62.0544 18.9689C62.0086 18.9689 61.971 18.99 61.971 19.0158C61.971 19.0415 61.9288 19.0626 61.8773 19.0626C61.8257 19.0626 61.7835 19.0837 61.7835 19.1095C61.7835 19.1353 61.7413 19.1564 61.6897 19.1564C61.6382 19.1564 61.596 19.1684 61.596 19.1831C61.596 19.2518 61.7419 19.3439 61.8505 19.3439C61.9168 19.3439 61.971 19.365 61.971 19.3908C61.971 19.4165 62.0343 19.4376 62.1117 19.4376C62.189 19.4376 62.2523 19.4587 62.2523 19.4845C62.2523 19.5103 62.2945 19.5314 62.3461 19.5314C62.3977 19.5314 62.4399 19.5525 62.4399 19.5783C62.4399 19.604 62.4821 19.6251 62.5337 19.6251C62.5852 19.6251 62.6274 19.6462 62.6274 19.672C62.6274 19.6978 62.6696 19.7189 62.7212 19.7189C62.7728 19.7189 62.815 19.74 62.815 19.7658C62.815 19.7915 62.8487 19.8126 62.8899 19.8126C62.9311 19.8126 63.024 19.8759 63.0963 19.9533C63.1685 20.0306 63.2518 20.0939 63.2813 20.0939C63.3509 20.0939 63.5651 20.3081 63.5651 20.3776C63.5651 20.4071 63.6284 20.4904 63.7058 20.5626C63.7831 20.6349 63.8464 20.7277 63.8464 20.7689C63.8464 20.8102 63.8675 20.8439 63.8933 20.8439C63.9191 20.8439 63.9402 20.8861 63.9402 20.9376C63.9402 20.9892 63.9613 21.0314 63.9871 21.0314C64.0129 21.0314 64.034 21.0947 64.034 21.172C64.034 21.2494 64.0551 21.3126 64.0808 21.3126C64.1066 21.3126 64.1277 21.3759 64.1277 21.4533C64.1277 21.5306 64.1488 21.5939 64.1746 21.5939C64.202 21.5939 64.2215 21.7501 64.2215 21.9689C64.2215 22.1876 64.2411 22.3439 64.2684 22.3439C64.2952 22.3439 64.3153 22.4845 64.3153 22.672C64.3153 22.8595 64.2952 23.0001 64.2684 23.0001C64.2411 23.0001 64.2215 23.1564 64.2215 23.3751C64.2215 23.5939 64.202 23.7501 64.1746 23.7501C64.1488 23.7501 64.1277 23.8134 64.1277 23.8908C64.1277 23.9681 64.1066 24.0314 64.0808 24.0314C64.0551 24.0314 64.034 24.1158 64.034 24.2189C64.034 24.322 64.0129 24.4064 63.9871 24.4064C63.9613 24.4064 63.9402 24.4486 63.9402 24.5001C63.9402 24.5517 63.9191 24.5939 63.8933 24.5939C63.8675 24.5939 63.8464 24.6361 63.8464 24.6876C63.8464 24.7392 63.8253 24.7814 63.7995 24.7814C63.7738 24.7814 63.7527 24.8189 63.7527 24.8648C63.7527 24.9107 63.7105 24.9786 63.6589 25.0158C63.6073 25.0529 63.5651 25.1106 63.5651 25.1439C63.5651 25.2229 62.694 26.0939 62.6149 26.0939C62.5816 26.0939 62.5239 26.1361 62.4868 26.1876C62.4496 26.2392 62.3863 26.2814 62.3461 26.2814C62.3059 26.2814 62.2426 26.3236 62.2055 26.3751C62.1683 26.4267 62.1003 26.4689 62.0544 26.4689C62.0086 26.4689 61.971 26.49 61.971 26.5158C61.971 26.5415 61.9288 26.5626 61.8773 26.5626C61.8257 26.5626 61.7835 26.5837 61.7835 26.6095C61.7835 26.6353 61.7413 26.6564 61.6897 26.6564C61.6382 26.6564 61.596 26.6775 61.596 26.7033C61.596 26.729 61.5327 26.7501 61.4553 26.7501C61.3779 26.7501 61.3146 26.7712 61.3146 26.797C61.3146 26.8228 61.2725 26.8439 61.2209 26.8439C61.1693 26.8439 61.1271 26.865 61.1271 26.8908C61.1271 26.9165 61.0638 26.9376 60.9865 26.9376C60.9091 26.9376 60.8458 26.9587 60.8458 26.9845C60.8458 27.0103 60.7825 27.0314 60.7051 27.0314C60.6278 27.0314 60.5645 27.0525 60.5645 27.0783C60.5645 27.104 60.4801 27.1251 60.377 27.1251C60.2738 27.1251 60.1894 27.1462 60.1894 27.172C60.1894 27.1978 60.105 27.2189 60.0019 27.2189C59.8987 27.2189 59.8143 27.24 59.8143 27.2658C59.8143 27.2925 59.6737 27.3126 59.4861 27.3126C59.2986 27.3126 59.1579 27.3327 59.1579 27.3595C59.1579 27.3873 58.986 27.4064 58.736 27.4064C58.486 27.4064 58.314 27.4255 58.314 27.4533C58.314 27.4834 57.8296 27.5001 56.9544 27.5001C56.0792 27.5001 55.5947 27.4834 55.5947 27.4533C55.5947 27.4251 55.4072 27.4064 55.1259 27.4064C54.8446 27.4064 54.657 27.3876 54.657 27.3595C54.657 27.3322 54.5007 27.3126 54.2819 27.3126C54.0631 27.3126 53.9069 27.2931 53.9069 27.2658C53.9069 27.24 53.8014 27.2189 53.6724 27.2189C53.5435 27.2189 53.438 27.1978 53.438 27.172C53.438 27.1462 53.3536 27.1251 53.2505 27.1251C53.1473 27.1251 53.0629 27.104 53.0629 27.0783C53.0629 27.0525 52.9785 27.0314 52.8754 27.0314C52.7722 27.0314 52.6879 27.0103 52.6879 26.9845C52.6879 26.9587 52.6246 26.9376 52.5472 26.9376C52.4698 26.9376 52.4065 26.9165 52.4065 26.8908C52.4065 26.865 52.3433 26.8439 52.2659 26.8439C52.1885 26.8439 52.1252 26.8228 52.1252 26.797C52.1252 26.7712 52.0619 26.7501 51.9846 26.7501C51.9072 26.7501 51.8439 26.729 51.8439 26.7033C51.8439 26.6775 51.7806 26.6564 51.7033 26.6564C51.6259 26.6564 51.5626 26.6353 51.5626 26.6095C51.5626 26.5837 51.5204 26.5626 51.4688 26.5626C51.4173 26.5626 51.3751 26.5415 51.3751 26.5158C51.3751 26.49 51.3329 26.4689 51.2813 26.4689C51.2297 26.4689 51.1875 26.4478 51.1875 26.422C51.1875 26.3962 51.1453 26.3751 51.0938 26.3751C51.0156 26.3751 51 26.3439 51 26.1876C51 26.0845 51.0211 26.0001 51.0469 26.0001C51.0727 26.0001 51.0938 25.9369 51.0938 25.8595C51.0938 25.7822 51.1149 25.7189 51.1407 25.7189C51.1664 25.7189 51.1875 25.6556 51.1875 25.5783C51.1875 25.5009 51.2086 25.4376 51.2344 25.4376C51.2602 25.4376 51.2813 25.3744 51.2813 25.297C51.2813 25.2197 51.3024 25.1564 51.3282 25.1564C51.354 25.1564 51.3751 25.1142 51.3751 25.0626C51.3751 25.0111 51.3962 24.9689 51.422 24.9689C51.4478 24.9689 51.4688 24.9056 51.4688 24.8283C51.4688 24.7509 51.4899 24.6876 51.5157 24.6876C51.5415 24.6876 51.5626 24.6244 51.5626 24.547C51.5626 24.4697 51.5837 24.4064 51.6095 24.4064C51.6353 24.4064 51.6564 24.3431 51.6564 24.2658C51.6564 24.1884 51.6775 24.1251 51.7033 24.1251C51.7291 24.1251 51.7502 24.0829 51.7502 24.0314C51.7502 23.9798 51.7713 23.9376 51.797 23.9376C51.8228 23.9376 51.8439 23.8744 51.8439 23.797C51.8439 23.6876 51.8647 23.6564 51.9377 23.6564C51.9893 23.6564 52.0315 23.6775 52.0315 23.7033C52.0315 23.729 52.0737 23.7501 52.1252 23.7501C52.1768 23.7501 52.219 23.7712 52.219 23.797C52.219 23.8228 52.2823 23.8439 52.3597 23.8439C52.437 23.8439 52.5003 23.865 52.5003 23.8908C52.5003 23.9165 52.5425 23.9376 52.5941 23.9376C52.6457 23.9376 52.6879 23.9587 52.6879 23.9845C52.6879 24.0103 52.7511 24.0314 52.8285 24.0314C52.9059 24.0314 52.9692 24.0525 52.9692 24.0783C52.9692 24.104 53.0114 24.1251 53.0629 24.1251C53.1145 24.1251 53.1567 24.1462 53.1567 24.172C53.1567 24.1978 53.22 24.2189 53.2974 24.2189C53.3747 24.2189 53.438 24.24 53.438 24.2658C53.438 24.2915 53.5224 24.3126 53.6255 24.3126C53.7287 24.3126 53.8131 24.3337 53.8131 24.3595C53.8131 24.3853 53.8764 24.4064 53.9537 24.4064C54.0311 24.4064 54.0944 24.4275 54.0944 24.4533C54.0944 24.479 54.1999 24.5001 54.3288 24.5001C54.4578 24.5001 54.5632 24.5212 54.5632 24.547C54.5632 24.5731 54.6883 24.5939 54.8446 24.5939C55.0008 24.5939 55.1259 24.6147 55.1259 24.6408C55.1259 24.6696 55.3603 24.6876 55.7354 24.6876C56.1104 24.6876 56.3449 24.7057 56.3449 24.7345C56.3449 24.7629 56.548 24.7814 56.8606 24.7814C57.1732 24.7814 57.3763 24.7629 57.3763 24.7345C57.3763 24.7061 57.5795 24.6876 57.8921 24.6876C58.2046 24.6876 58.4078 24.6692 58.4078 24.6408C58.4078 24.615 58.5133 24.5939 58.6422 24.5939C58.7711 24.5939 58.8766 24.5728 58.8766 24.547C58.8766 24.5212 58.9399 24.5001 59.0173 24.5001C59.0947 24.5001 59.1579 24.479 59.1579 24.4533C59.1579 24.4275 59.2212 24.4064 59.2986 24.4064C59.376 24.4064 59.4393 24.3853 59.4393 24.3595C59.4393 24.3337 59.4815 24.3126 59.533 24.3126C59.5846 24.3126 59.6268 24.2915 59.6268 24.2658C59.6268 24.24 59.6589 24.2189 59.6982 24.2189C59.791 24.2189 60.2832 23.7268 60.2832 23.634C60.2832 23.5947 60.3043 23.5626 60.3301 23.5626C60.3559 23.5626 60.377 23.5204 60.377 23.4689C60.377 23.4173 60.3981 23.3751 60.4238 23.3751C60.4496 23.3751 60.4707 23.2908 60.4707 23.1876C60.4707 23.0845 60.4918 23.0001 60.5176 23.0001C60.5434 23.0001 60.5645 22.9158 60.5645 22.8126C60.5645 22.7095 60.5434 22.6251 60.5176 22.6251C60.4918 22.6251 60.4707 22.5408 60.4707 22.4376C60.4707 22.3345 60.4496 22.2501 60.4238 22.2501C60.3981 22.2501 60.377 22.2126 60.377 22.1667C60.377 22.1209 60.3348 22.0529 60.2832 22.0158C60.2316 21.9786 60.1894 21.9197 60.1894 21.8849C60.1894 21.8033 60.0737 21.6876 59.9921 21.6876C59.9573 21.6876 59.8984 21.6454 59.8612 21.5939C59.824 21.5423 59.7561 21.5001 59.7102 21.5001C59.6644 21.5001 59.6268 21.479 59.6268 21.4533C59.6268 21.4275 59.5846 21.4064 59.533 21.4064C59.4815 21.4064 59.4393 21.3853 59.4393 21.3595C59.4393 21.3337 59.3549 21.3126 59.2517 21.3126C59.1486 21.3126 59.0642 21.2915 59.0642 21.2658C59.0642 21.24 58.9587 21.2189 58.8298 21.2189C58.7008 21.2189 58.5953 21.1978 58.5953 21.172C58.5953 21.1439 58.4078 21.1251 58.1265 21.1251C57.8452 21.1251 57.6576 21.1064 57.6576 21.0783C57.6576 21.0478 57.0169 21.0314 55.8291 21.0314H54.0006V19.7189V18.4064H55.6885C56.7824 18.4064 57.3763 18.3899 57.3763 18.3595C57.3763 18.3327 57.517 18.3126 57.7045 18.3126C57.8921 18.3126 58.0327 18.2925 58.0327 18.2658C58.0327 18.24 58.1382 18.2189 58.2671 18.2189C58.3961 18.2189 58.5016 18.1978 58.5016 18.172C58.5016 18.1462 58.5649 18.1251 58.6422 18.1251C58.7196 18.1251 58.7829 18.104 58.7829 18.0783C58.7829 18.0525 58.8251 18.0314 58.8766 18.0314C58.9282 18.0314 58.9704 18.0103 58.9704 17.9845C58.9704 17.9587 59.0025 17.9376 59.0418 17.9376C59.1346 17.9376 59.6268 17.4455 59.6268 17.3527C59.6268 17.3135 59.6479 17.2814 59.6737 17.2814C59.6995 17.2814 59.7206 17.197 59.7206 17.0939C59.7206 16.9908 59.7417 16.9064 59.7675 16.9064C59.7932 16.9064 59.8143 16.8009 59.8143 16.672C59.8143 16.5431 59.7932 16.4376 59.7675 16.4376C59.7417 16.4376 59.7206 16.3743 59.7206 16.297C59.7206 16.2197 59.6995 16.1564 59.6737 16.1564C59.6479 16.1564 59.6268 16.1242 59.6268 16.0848C59.6268 15.964 59.2213 15.5939 59.0888 15.5939C59.0237 15.5939 58.9704 15.5728 58.9704 15.547C58.9704 15.5212 58.9071 15.5001 58.8298 15.5001C58.7524 15.5001 58.6891 15.479 58.6891 15.4533C58.6891 15.4275 58.6047 15.4064 58.5016 15.4064C58.3984 15.4064 58.314 15.3853 58.314 15.3595C58.314 15.3317 58.1421 15.3126 57.8921 15.3126C57.642 15.3126 57.4701 15.2936 57.4701 15.2658C57.4701 15.2371 57.2513 15.2189 56.9075 15.2189C56.5637 15.2189 56.3449 15.2371 56.3449 15.2658C56.3449 15.2939 56.1573 15.3126 55.876 15.3126C55.5947 15.3126 55.4072 15.3314 55.4072 15.3595C55.4072 15.3863 55.2665 15.4064 55.079 15.4064C54.8914 15.4064 54.7508 15.4265 54.7508 15.4533C54.7508 15.479 54.6664 15.5001 54.5632 15.5001C54.4601 15.5001 54.3757 15.5212 54.3757 15.547C54.3757 15.5728 54.3124 15.5939 54.2351 15.5939C54.1577 15.5939 54.0944 15.615 54.0944 15.6408C54.0944 15.6665 54.01 15.6876 53.9069 15.6876C53.8037 15.6876 53.7193 15.7087 53.7193 15.7345C53.7193 15.7603 53.656 15.7814 53.5787 15.7814C53.5013 15.7814 53.438 15.8025 53.438 15.8283C53.438 15.854 53.3747 15.8751 53.2974 15.8751C53.22 15.8751 53.1567 15.8962 53.1567 15.922C53.1567 15.9478 53.1145 15.9689 53.0629 15.9689C53.0114 15.9689 52.9692 15.99 52.9692 16.0158C52.9692 16.0415 52.9059 16.0626 52.8285 16.0626C52.7511 16.0626 52.6879 16.0837 52.6879 16.1095C52.6879 16.1353 52.6246 16.1564 52.5472 16.1564C52.4378 16.1564 52.4065 16.1356 52.4065 16.0626C52.4065 16.0111 52.3854 15.9689 52.3597 15.9689C52.3339 15.9689 52.3128 15.9056 52.3128 15.8283C52.3128 15.7509 52.2917 15.6876 52.2659 15.6876C52.2401 15.6876 52.219 15.6454 52.219 15.5939C52.219 15.5423 52.1979 15.5001 52.1721 15.5001C52.1463 15.5001 52.1252 15.4368 52.1252 15.3595C52.1252 15.2822 52.1041 15.2189 52.0784 15.2189C52.0526 15.2189 52.0315 15.1767 52.0315 15.1251C52.0315 15.0736 52.0104 15.0314 51.9846 15.0314C51.9588 15.0314 51.9377 14.9681 51.9377 14.8908C51.9377 14.8134 51.9166 14.7501 51.8908 14.7501C51.865 14.7501 51.8439 14.6868 51.8439 14.6095C51.8439 14.5322 51.8228 14.4689 51.797 14.4689C51.7713 14.4689 51.7502 14.4267 51.7502 14.3751C51.7502 14.3236 51.7291 14.2814 51.7033 14.2814C51.6775 14.2814 51.6564 14.2181 51.6564 14.1408C51.6564 14.0634 51.6353 14.0001 51.6095 14.0001C51.5837 14.0001 51.5626 13.9597 51.5626 13.9103C51.5626 13.8609 51.5368 13.8118 51.5053 13.8013C51.4098 13.7695 51.6858 13.5314 51.8184 13.5314C51.884 13.5314 51.9377 13.5103 51.9377 13.4845C51.9377 13.4587 52.001 13.4376 52.0784 13.4376C52.1557 13.4376 52.219 13.4165 52.219 13.3908C52.219 13.365 52.2823 13.3439 52.3597 13.3439C52.437 13.3439 52.5003 13.3228 52.5003 13.297C52.5003 13.2712 52.5636 13.2501 52.641 13.2501C52.7183 13.2501 52.7816 13.229 52.7816 13.2033C52.7816 13.1775 52.8449 13.1564 52.9223 13.1564C52.9996 13.1564 53.0629 13.1353 53.0629 13.1095C53.0629 13.0837 53.1473 13.0626 53.2505 13.0626C53.3536 13.0626 53.438 13.0415 53.438 13.0158C53.438 12.99 53.5224 12.9689 53.6255 12.9689C53.7287 12.9689 53.8131 12.9478 53.8131 12.922C53.8131 12.8962 53.8975 12.8751 54.0006 12.8751C54.1038 12.8751 54.1882 12.854 54.1882 12.8283C54.1882 12.8022 54.3132 12.7814 54.4695 12.7814C54.6257 12.7814 54.7508 12.7606 54.7508 12.7345C54.7508 12.7077 54.8914 12.6876 55.079 12.6876C55.2665 12.6876 55.4072 12.6675 55.4072 12.6408C55.4072 12.613 55.5791 12.5939 55.8291 12.5939ZM72.1732 12.5939C72.392 12.5939 72.5482 12.5743 72.5482 12.547C72.5482 12.5172 72.9233 12.5001 73.5797 12.5001C74.2361 12.5001 74.6112 12.5172 74.6112 12.547C74.6112 12.5743 74.7674 12.5939 74.9862 12.5939C75.2051 12.5939 75.3613 12.6134 75.3613 12.6408C75.3613 12.6665 75.4668 12.6876 75.5957 12.6876C75.7247 12.6876 75.8302 12.7087 75.8302 12.7345C75.8302 12.7603 75.9146 12.7814 76.0177 12.7814C76.1209 12.7814 76.2053 12.8025 76.2053 12.8283C76.2053 12.854 76.2896 12.8751 76.3928 12.8751C76.4959 12.8751 76.5803 12.8962 76.5803 12.922C76.5803 12.9478 76.6436 12.9689 76.721 12.9689C76.7983 12.9689 76.8616 12.99 76.8616 13.0158C76.8616 13.0415 76.9038 13.0626 76.9554 13.0626C77.007 13.0626 77.0492 13.0837 77.0492 13.1095C77.0492 13.1353 77.1125 13.1564 77.1898 13.1564C77.2672 13.1564 77.3305 13.1775 77.3305 13.2033C77.3305 13.229 77.3727 13.2501 77.4243 13.2501C77.4758 13.2501 77.518 13.2712 77.518 13.297C77.518 13.3228 77.5602 13.3439 77.6118 13.3439C77.6634 13.3439 77.7056 13.365 77.7056 13.3908C77.7056 13.4165 77.7478 13.4376 77.7993 13.4376C77.8509 13.4376 77.8931 13.4587 77.8931 13.4845C77.8931 13.5103 77.9307 13.5314 77.9765 13.5314C78.0224 13.5314 78.0903 13.5736 78.1275 13.6251C78.1647 13.6767 78.228 13.7189 78.2682 13.7189C78.3084 13.7189 78.3717 13.7611 78.4088 13.8126C78.446 13.8642 78.5046 13.9064 78.539 13.9064C78.5734 13.9064 78.7258 14.0329 78.8777 14.1876C79.0295 14.3423 79.1866 14.4689 79.2267 14.4689C79.2668 14.4689 79.2996 14.5019 79.2996 14.5422C79.2996 14.5826 79.4051 14.7183 79.5341 14.8439C79.663 14.9695 79.7685 15.0967 79.7685 15.1267C79.7685 15.1567 79.8318 15.2404 79.9091 15.3126C79.9865 15.3849 80.0498 15.4777 80.0498 15.5189C80.0498 15.5602 80.0709 15.5939 80.0967 15.5939C80.1225 15.5939 80.1436 15.6314 80.1436 15.6773C80.1436 15.7232 80.1858 15.7911 80.2373 15.8283C80.2924 15.868 80.3311 15.9496 80.3311 16.0261C80.3311 16.0977 80.3522 16.1564 80.378 16.1564C80.4038 16.1564 80.4249 16.1986 80.4249 16.2501C80.4249 16.3017 80.446 16.3439 80.4718 16.3439C80.4976 16.3439 80.5186 16.3861 80.5186 16.4376C80.5186 16.4892 80.5397 16.5314 80.5655 16.5314C80.5913 16.5314 80.6124 16.5947 80.6124 16.672C80.6124 16.7493 80.6335 16.8126 80.6593 16.8126C80.6851 16.8126 80.7062 16.8759 80.7062 16.9533C80.7062 17.0306 80.7273 17.0939 80.7531 17.0939C80.7789 17.0939 80.8 17.1783 80.8 17.2814C80.8 17.3845 80.8211 17.4689 80.8468 17.4689C80.8726 17.4689 80.8937 17.5322 80.8937 17.6095C80.8937 17.6868 80.9148 17.7501 80.9406 17.7501C80.9667 17.7501 80.9875 17.8751 80.9875 18.0314C80.9875 18.1876 81.0083 18.3126 81.0344 18.3126C81.0625 18.3126 81.0813 18.5001 81.0813 18.7814C81.0813 19.0626 81.1 19.2501 81.1282 19.2501C81.1573 19.2501 81.175 19.5158 81.175 19.9533C81.175 20.3907 81.1573 20.6564 81.1282 20.6564C81.0997 20.6564 81.0813 20.8595 81.0813 21.172C81.0813 21.4845 81.0628 21.6876 81.0344 21.6876C81.0083 21.6876 80.9875 21.8126 80.9875 21.9689C80.9875 22.1251 80.9667 22.2501 80.9406 22.2501C80.9148 22.2501 80.8937 22.3134 80.8937 22.3908C80.8937 22.4681 80.8726 22.5314 80.8468 22.5314C80.8211 22.5314 80.8 22.6158 80.8 22.7189C80.8 22.822 80.7789 22.9064 80.7531 22.9064C80.7273 22.9064 80.7062 22.9697 80.7062 23.047C80.7062 23.1244 80.6851 23.1876 80.6593 23.1876C80.6335 23.1876 80.6124 23.2509 80.6124 23.3283C80.6124 23.4056 80.5913 23.4689 80.5655 23.4689C80.5397 23.4689 80.5186 23.5111 80.5186 23.5626C80.5186 23.6142 80.4976 23.6564 80.4718 23.6564C80.446 23.6564 80.4249 23.6986 80.4249 23.7501C80.4249 23.8017 80.4038 23.8439 80.378 23.8439C80.3522 23.8439 80.3311 23.8861 80.3311 23.9376C80.3311 23.9892 80.31 24.0314 80.2842 24.0314C80.2584 24.0314 80.2373 24.0736 80.2373 24.1251C80.2373 24.1767 80.2162 24.2189 80.1905 24.2189C80.1647 24.2189 80.1436 24.2611 80.1436 24.3126C80.1436 24.3642 80.1225 24.4064 80.0967 24.4064C80.0709 24.4064 80.0498 24.4401 80.0498 24.4813C80.0498 24.5225 79.9865 24.6154 79.9091 24.6876C79.8318 24.7599 79.7685 24.8424 79.7685 24.871C79.7685 24.944 78.6105 26.0939 78.5369 26.0939C78.5036 26.0939 78.446 26.1361 78.4088 26.1876C78.3717 26.2392 78.3084 26.2814 78.2682 26.2814C78.228 26.2814 78.1647 26.3236 78.1275 26.3751C78.0903 26.4267 78.0224 26.4689 77.9765 26.4689C77.9307 26.4689 77.8931 26.49 77.8931 26.5158C77.8931 26.5415 77.8509 26.5626 77.7993 26.5626C77.7478 26.5626 77.7056 26.5837 77.7056 26.6095C77.7056 26.6353 77.6634 26.6564 77.6118 26.6564C77.5602 26.6564 77.518 26.6775 77.518 26.7033C77.518 26.729 77.4758 26.7501 77.4243 26.7501C77.3727 26.7501 77.3305 26.7712 77.3305 26.797C77.3305 26.8228 77.2672 26.8439 77.1898 26.8439C77.1125 26.8439 77.0492 26.865 77.0492 26.8908C77.0492 26.9165 77.007 26.9376 76.9554 26.9376C76.9038 26.9376 76.8616 26.9587 76.8616 26.9845C76.8616 27.0103 76.7983 27.0314 76.721 27.0314C76.6436 27.0314 76.5803 27.0525 76.5803 27.0783C76.5803 27.104 76.4959 27.1251 76.3928 27.1251C76.2896 27.1251 76.2053 27.1462 76.2053 27.172C76.2053 27.1978 76.1209 27.2189 76.0177 27.2189C75.9146 27.2189 75.8302 27.24 75.8302 27.2658C75.8302 27.2918 75.7051 27.3126 75.5489 27.3126C75.3926 27.3126 75.2676 27.3334 75.2676 27.3595C75.2676 27.3863 75.1269 27.4064 74.9394 27.4064C74.7518 27.4064 74.6112 27.4265 74.6112 27.4533C74.6112 27.4832 74.2205 27.5001 73.5328 27.5001C72.8452 27.5001 72.4545 27.4832 72.4545 27.4533C72.4545 27.4265 72.3138 27.4064 72.1263 27.4064C71.9387 27.4064 71.7981 27.3863 71.7981 27.3595C71.7981 27.3327 71.6574 27.3126 71.4699 27.3126C71.2823 27.3126 71.1417 27.2925 71.1417 27.2658C71.1417 27.24 71.0573 27.2189 70.9542 27.2189C70.851 27.2189 70.7666 27.1978 70.7666 27.172C70.7666 27.1462 70.7033 27.1251 70.626 27.1251C70.5486 27.1251 70.4853 27.104 70.4853 27.0783C70.4853 27.0525 70.422 27.0314 70.3447 27.0314C70.2673 27.0314 70.204 27.0103 70.204 26.9845C70.204 26.9587 70.1407 26.9376 70.0633 26.9376C69.986 26.9376 69.9227 26.9165 69.9227 26.8908C69.9227 26.865 69.8805 26.8439 69.8289 26.8439C69.7774 26.8439 69.7352 26.8228 69.7352 26.797C69.7352 26.7712 69.693 26.7501 69.6414 26.7501C69.5898 26.7501 69.5476 26.729 69.5476 26.7033C69.5476 26.6775 69.5054 26.6564 69.4538 26.6564C69.4023 26.6564 69.3601 26.6353 69.3601 26.6095C69.3601 26.5837 69.3179 26.5626 69.2663 26.5626C69.2147 26.5626 69.1725 26.5415 69.1725 26.5158C69.1725 26.49 69.1303 26.4689 69.0788 26.4689C69.0272 26.4689 68.985 26.4478 68.985 26.422C68.985 26.3962 68.9474 26.3751 68.9016 26.3751C68.8557 26.3751 68.7878 26.3329 68.7506 26.2814C68.7134 26.2298 68.6544 26.1876 68.6193 26.1876C68.5843 26.1876 68.4746 26.1033 68.3755 26.0001C68.2764 25.897 68.1721 25.8126 68.1437 25.8126C68.0765 25.8126 67.5785 25.3147 67.5785 25.2475C67.5785 25.2191 67.4941 25.1149 67.3909 25.0158C67.2878 24.9167 67.2034 24.807 67.2034 24.772C67.2034 24.7369 67.1612 24.6779 67.1096 24.6408C67.058 24.6036 67.0158 24.5403 67.0158 24.5001C67.0158 24.46 66.9736 24.3967 66.9221 24.3595C66.8705 24.3223 66.8283 24.2544 66.8283 24.2085C66.8283 24.1627 66.8072 24.1251 66.7814 24.1251C66.7556 24.1251 66.7345 24.0829 66.7345 24.0314C66.7345 23.9798 66.7134 23.9376 66.6876 23.9376C66.6619 23.9376 66.6408 23.8954 66.6408 23.8439C66.6408 23.7923 66.6197 23.7501 66.5939 23.7501C66.5681 23.7501 66.547 23.6869 66.547 23.6095C66.547 23.5322 66.5259 23.4689 66.5001 23.4689C66.4743 23.4689 66.4532 23.4267 66.4532 23.3751C66.4532 23.3236 66.4321 23.2814 66.4063 23.2814C66.3805 23.2814 66.3595 23.2181 66.3595 23.1408C66.3595 23.0634 66.3383 23.0001 66.3126 23.0001C66.2868 23.0001 66.2657 22.9158 66.2657 22.8126C66.2657 22.7095 66.2446 22.6251 66.2188 22.6251C66.193 22.6251 66.1719 22.5619 66.1719 22.4845C66.1719 22.4072 66.1508 22.3439 66.125 22.3439C66.099 22.3439 66.0781 22.2189 66.0781 22.0626C66.0781 21.9064 66.0573 21.7814 66.0313 21.7814C66.0039 21.7814 65.9844 21.6251 65.9844 21.4064C65.9844 21.1876 65.9648 21.0314 65.9375 21.0314C65.9077 21.0314 65.8906 20.6564 65.8906 20.0001C65.8906 19.3439 65.9077 18.9689 65.9375 18.9689C65.9648 18.9689 65.9844 18.8126 65.9844 18.5939C65.9844 18.3751 66.0039 18.2189 66.0313 18.2189C66.0573 18.2189 66.0781 18.0939 66.0781 17.9376C66.0781 17.7814 66.099 17.6564 66.125 17.6564C66.1508 17.6564 66.1719 17.5931 66.1719 17.5158C66.1719 17.4384 66.193 17.3751 66.2188 17.3751C66.2446 17.3751 66.2657 17.2908 66.2657 17.1876C66.2657 17.0845 66.2868 17.0001 66.3126 17.0001C66.3383 17.0001 66.3595 16.9368 66.3595 16.8595C66.3595 16.7822 66.3805 16.7189 66.4063 16.7189C66.4321 16.7189 66.4532 16.6767 66.4532 16.6251C66.4532 16.5736 66.4743 16.5314 66.5001 16.5314C66.5259 16.5314 66.547 16.4681 66.547 16.3908C66.547 16.3134 66.5681 16.2501 66.5939 16.2501C66.6197 16.2501 66.6408 16.2079 66.6408 16.1564C66.6408 16.1048 66.6619 16.0626 66.6876 16.0626C66.7134 16.0626 66.7345 16.0251 66.7345 15.9792C66.7345 15.9333 66.7767 15.8654 66.8283 15.8283C66.8799 15.7911 66.9221 15.7232 66.9221 15.6773C66.9221 15.6314 66.9432 15.5939 66.9689 15.5939C66.9947 15.5939 67.0158 15.5563 67.0158 15.5105C67.0158 15.4646 67.058 15.3967 67.1096 15.3595C67.1612 15.3223 67.2034 15.2636 67.2034 15.2289C67.2034 15.1943 67.3089 15.0632 67.4378 14.9376C67.5667 14.8121 67.6722 14.6862 67.6722 14.6579C67.6722 14.5906 67.982 14.2814 68.0494 14.2814C68.0781 14.2814 68.1826 14.197 68.2817 14.0939C68.3808 13.9908 68.4905 13.9064 68.5256 13.9064C68.5606 13.9064 68.6196 13.8642 68.6568 13.8126C68.694 13.7611 68.7573 13.7189 68.7975 13.7189C68.8376 13.7189 68.9009 13.6767 68.9381 13.6251C68.9753 13.5736 69.0432 13.5314 69.0891 13.5314C69.135 13.5314 69.1725 13.5103 69.1725 13.4845C69.1725 13.4587 69.2147 13.4376 69.2663 13.4376C69.3179 13.4376 69.3601 13.4165 69.3601 13.3908C69.3601 13.365 69.4023 13.3439 69.4538 13.3439C69.5054 13.3439 69.5476 13.3228 69.5476 13.297C69.5476 13.2712 69.5898 13.2501 69.6414 13.2501C69.693 13.2501 69.7352 13.229 69.7352 13.2033C69.7352 13.1775 69.7984 13.1564 69.8758 13.1564C69.9532 13.1564 70.0165 13.1353 70.0165 13.1095C70.0165 13.0837 70.0798 13.0626 70.1571 13.0626C70.2345 13.0626 70.2978 13.0415 70.2978 13.0158C70.2978 12.99 70.3611 12.9689 70.4384 12.9689C70.5158 12.9689 70.5791 12.9478 70.5791 12.922C70.5791 12.8962 70.6424 12.8751 70.7197 12.8751C70.7971 12.8751 70.8604 12.854 70.8604 12.8283C70.8604 12.8025 70.9659 12.7814 71.0948 12.7814C71.2237 12.7814 71.3292 12.7603 71.3292 12.7345C71.3292 12.7087 71.4347 12.6876 71.5637 12.6876C71.6926 12.6876 71.7981 12.6665 71.7981 12.6408C71.7981 12.6134 71.9543 12.5939 72.1732 12.5939ZM117.82 12.5939C118.039 12.5939 118.195 12.5743 118.195 12.547C118.195 12.5172 118.57 12.5001 119.227 12.5001C119.883 12.5001 120.258 12.5172 120.258 12.547C120.258 12.5743 120.414 12.5939 120.633 12.5939C120.852 12.5939 121.008 12.6134 121.008 12.6408C121.008 12.6665 121.114 12.6876 121.243 12.6876C121.372 12.6876 121.477 12.7087 121.477 12.7345C121.477 12.7603 121.562 12.7814 121.665 12.7814C121.768 12.7814 121.852 12.8025 121.852 12.8283C121.852 12.854 121.937 12.8751 122.04 12.8751C122.143 12.8751 122.227 12.8962 122.227 12.922C122.227 12.9478 122.27 12.9689 122.321 12.9689C122.373 12.9689 122.415 12.99 122.415 13.0158C122.415 13.0415 122.478 13.0626 122.556 13.0626C122.633 13.0626 122.696 13.0837 122.696 13.1095C122.696 13.1353 122.759 13.1564 122.837 13.1564C122.914 13.1564 122.977 13.1775 122.977 13.2033C122.977 13.229 123.02 13.2501 123.071 13.2501C123.123 13.2501 123.165 13.2712 123.165 13.297C123.165 13.3228 123.207 13.3439 123.259 13.3439C123.31 13.3439 123.353 13.365 123.353 13.3908C123.353 13.4165 123.39 13.4376 123.436 13.4376C123.482 13.4376 123.55 13.4798 123.587 13.5314C123.624 13.5829 123.692 13.6251 123.738 13.6251C123.784 13.6251 123.821 13.6462 123.821 13.672C123.821 13.6978 123.855 13.7189 123.896 13.7189C123.938 13.7189 124.03 13.7822 124.103 13.8595C124.175 13.9368 124.258 14.0001 124.286 14.0001C124.359 14.0001 125.416 15.0641 125.416 15.1377C125.416 15.171 125.458 15.2286 125.509 15.2658C125.561 15.3029 125.603 15.3662 125.603 15.4064C125.603 15.4466 125.645 15.5098 125.697 15.547C125.748 15.5842 125.791 15.6521 125.791 15.698C125.791 15.7438 125.812 15.7814 125.837 15.7814C125.863 15.7814 125.884 15.8236 125.884 15.8751C125.884 15.9267 125.905 15.9689 125.931 15.9689C125.957 15.9689 125.978 16.0111 125.978 16.0626C125.978 16.1142 125.999 16.1564 126.025 16.1564C126.051 16.1564 126.072 16.1986 126.072 16.2501C126.072 16.3017 126.093 16.3439 126.119 16.3439C126.145 16.3439 126.166 16.3861 126.166 16.4376C126.166 16.4892 126.187 16.5314 126.213 16.5314C126.238 16.5314 126.259 16.5947 126.259 16.672C126.259 16.7493 126.281 16.8126 126.306 16.8126C126.332 16.8126 126.353 16.8759 126.353 16.9533C126.353 17.0306 126.374 17.0939 126.4 17.0939C126.426 17.0939 126.447 17.1783 126.447 17.2814C126.447 17.3845 126.468 17.4689 126.494 17.4689C126.52 17.4689 126.541 17.5533 126.541 17.6564C126.541 17.7595 126.562 17.8439 126.588 17.8439C126.614 17.8439 126.635 17.9689 126.635 18.1251C126.635 18.2814 126.655 18.4064 126.681 18.4064C126.71 18.4064 126.728 18.6408 126.728 19.0158C126.728 19.3908 126.746 19.6251 126.775 19.6251C126.802 19.6251 126.822 19.7658 126.822 19.9533C126.822 20.1408 126.802 20.2814 126.775 20.2814C126.746 20.2814 126.728 20.5314 126.728 20.9376C126.728 21.3439 126.71 21.5939 126.681 21.5939C126.655 21.5939 126.635 21.7189 126.635 21.8751C126.635 22.0314 126.614 22.1564 126.588 22.1564C126.562 22.1564 126.541 22.2408 126.541 22.3439C126.541 22.447 126.52 22.5314 126.494 22.5314C126.468 22.5314 126.447 22.6158 126.447 22.7189C126.447 22.822 126.426 22.9064 126.4 22.9064C126.374 22.9064 126.353 22.9697 126.353 23.047C126.353 23.1244 126.332 23.1876 126.306 23.1876C126.281 23.1876 126.259 23.2509 126.259 23.3283C126.259 23.4056 126.238 23.4689 126.213 23.4689C126.187 23.4689 126.166 23.5111 126.166 23.5626C126.166 23.6142 126.145 23.6564 126.119 23.6564C126.093 23.6564 126.072 23.6986 126.072 23.7501C126.072 23.8017 126.051 23.8439 126.025 23.8439C125.999 23.8439 125.978 23.8861 125.978 23.9376C125.978 23.9892 125.957 24.0314 125.931 24.0314C125.905 24.0314 125.884 24.0736 125.884 24.1251C125.884 24.1767 125.863 24.2189 125.837 24.2189C125.812 24.2189 125.791 24.2564 125.791 24.3023C125.791 24.3482 125.748 24.4161 125.697 24.4533C125.645 24.4904 125.603 24.5537 125.603 24.5939C125.603 24.6341 125.561 24.6973 125.509 24.7345C125.458 24.7717 125.416 24.8293 125.416 24.8625C125.416 24.9362 124.359 26.0001 124.286 26.0001C124.258 26.0001 124.175 26.0634 124.103 26.1408C124.03 26.2181 123.942 26.2814 123.907 26.2814C123.871 26.2814 123.812 26.3236 123.775 26.3751C123.737 26.4267 123.669 26.4689 123.624 26.4689C123.578 26.4689 123.54 26.49 123.54 26.5158C123.54 26.5415 123.498 26.5626 123.446 26.5626C123.395 26.5626 123.353 26.5837 123.353 26.6095C123.353 26.6353 123.31 26.6564 123.259 26.6564C123.207 26.6564 123.165 26.6775 123.165 26.7033C123.165 26.729 123.123 26.7501 123.071 26.7501C123.02 26.7501 122.977 26.7712 122.977 26.797C122.977 26.8228 122.914 26.8439 122.837 26.8439C122.759 26.8439 122.696 26.865 122.696 26.8908C122.696 26.9165 122.654 26.9376 122.602 26.9376C122.551 26.9376 122.509 26.9587 122.509 26.9845C122.509 27.0103 122.445 27.0314 122.368 27.0314C122.291 27.0314 122.227 27.0525 122.227 27.0783C122.227 27.104 122.143 27.1251 122.04 27.1251C121.937 27.1251 121.852 27.1462 121.852 27.172C121.852 27.1978 121.768 27.2189 121.665 27.2189C121.562 27.2189 121.477 27.24 121.477 27.2658C121.477 27.2918 121.352 27.3126 121.196 27.3126C121.04 27.3126 120.915 27.3334 120.915 27.3595C120.915 27.3863 120.774 27.4064 120.586 27.4064C120.399 27.4064 120.258 27.4265 120.258 27.4533C120.258 27.4832 119.867 27.5001 119.18 27.5001C118.492 27.5001 118.101 27.4832 118.101 27.4533C118.101 27.4259 117.945 27.4064 117.726 27.4064C117.508 27.4064 117.351 27.3868 117.351 27.3595C117.351 27.3334 117.226 27.3126 117.07 27.3126C116.914 27.3126 116.789 27.2918 116.789 27.2658C116.789 27.24 116.704 27.2189 116.601 27.2189C116.498 27.2189 116.414 27.1978 116.414 27.172C116.414 27.1462 116.35 27.1251 116.273 27.1251C116.196 27.1251 116.132 27.104 116.132 27.0783C116.132 27.0525 116.069 27.0314 115.992 27.0314C115.914 27.0314 115.851 27.0103 115.851 26.9845C115.851 26.9587 115.788 26.9376 115.71 26.9376C115.633 26.9376 115.57 26.9165 115.57 26.8908C115.57 26.865 115.528 26.8439 115.476 26.8439C115.424 26.8439 115.382 26.8228 115.382 26.797C115.382 26.7712 115.34 26.7501 115.288 26.7501C115.237 26.7501 115.195 26.729 115.195 26.7033C115.195 26.6775 115.136 26.6564 115.064 26.6564C114.988 26.6564 114.906 26.6177 114.866 26.5626C114.829 26.5111 114.761 26.4689 114.715 26.4689C114.67 26.4689 114.632 26.4478 114.632 26.422C114.632 26.3962 114.594 26.3751 114.549 26.3751C114.503 26.3751 114.435 26.3329 114.398 26.2814C114.36 26.2298 114.301 26.1876 114.266 26.1876C114.231 26.1876 114.122 26.1033 114.023 26.0001C113.923 25.897 113.819 25.8126 113.791 25.8126C113.723 25.8126 113.132 25.2203 113.132 25.1526C113.132 25.1238 113.068 25.0411 112.991 24.9689C112.914 24.8967 112.85 24.8123 112.85 24.7814C112.85 24.7505 112.787 24.6661 112.71 24.5939C112.632 24.5217 112.569 24.4288 112.569 24.3876C112.569 24.3463 112.548 24.3126 112.522 24.3126C112.496 24.3126 112.475 24.2704 112.475 24.2189C112.475 24.1673 112.454 24.1251 112.428 24.1251C112.403 24.1251 112.382 24.0829 112.382 24.0314C112.382 23.9798 112.36 23.9376 112.335 23.9376C112.309 23.9376 112.288 23.8954 112.288 23.8439C112.288 23.7923 112.267 23.7501 112.241 23.7501C112.215 23.7501 112.194 23.7079 112.194 23.6564C112.194 23.6048 112.173 23.5626 112.147 23.5626C112.121 23.5626 112.1 23.4994 112.1 23.422C112.1 23.3447 112.079 23.2814 112.053 23.2814C112.028 23.2814 112.006 23.2181 112.006 23.1408C112.006 23.0634 111.985 23.0001 111.96 23.0001C111.934 23.0001 111.913 22.9369 111.913 22.8595C111.913 22.7822 111.892 22.7189 111.866 22.7189C111.84 22.7189 111.819 22.6345 111.819 22.5314C111.819 22.4283 111.798 22.3439 111.772 22.3439C111.746 22.3439 111.725 22.2384 111.725 22.1095C111.725 21.9806 111.704 21.8751 111.678 21.8751C111.651 21.8751 111.631 21.7345 111.631 21.547C111.631 21.3595 111.611 21.2189 111.584 21.2189C111.554 21.2189 111.538 20.797 111.538 20.047C111.538 19.297 111.554 18.8751 111.584 18.8751C111.612 18.8751 111.631 18.7189 111.631 18.5001C111.631 18.2814 111.651 18.1251 111.678 18.1251C111.704 18.1251 111.725 18.0197 111.725 17.8908C111.725 17.7618 111.746 17.6564 111.772 17.6564C111.798 17.6564 111.819 17.572 111.819 17.4689C111.819 17.3658 111.84 17.2814 111.866 17.2814C111.892 17.2814 111.913 17.2181 111.913 17.1408C111.913 17.0634 111.934 17.0001 111.96 17.0001C111.985 17.0001 112.006 16.9368 112.006 16.8595C112.006 16.7822 112.028 16.7189 112.053 16.7189C112.079 16.7189 112.1 16.6556 112.1 16.5783C112.1 16.5009 112.121 16.4376 112.147 16.4376C112.173 16.4376 112.194 16.3954 112.194 16.3439C112.194 16.2923 112.215 16.2501 112.241 16.2501C112.267 16.2501 112.288 16.2079 112.288 16.1564C112.288 16.1048 112.309 16.0626 112.335 16.0626C112.36 16.0626 112.382 16.0204 112.382 15.9689C112.382 15.9173 112.403 15.8751 112.428 15.8751C112.454 15.8751 112.475 15.8329 112.475 15.7814C112.475 15.7298 112.496 15.6876 112.522 15.6876C112.548 15.6876 112.569 15.6539 112.569 15.6127C112.569 15.5715 112.632 15.4786 112.71 15.4064C112.787 15.3341 112.85 15.2498 112.85 15.2189C112.85 15.188 112.914 15.1036 112.991 15.0314C113.068 14.9591 113.132 14.8765 113.132 14.8476C113.132 14.7794 113.724 14.1876 113.792 14.1876C113.821 14.1876 113.903 14.1243 113.976 14.047C114.048 13.9697 114.136 13.9064 114.172 13.9064C114.207 13.9064 114.267 13.8642 114.304 13.8126C114.341 13.7611 114.404 13.7189 114.444 13.7189C114.485 13.7189 114.548 13.6767 114.585 13.6251C114.622 13.5736 114.69 13.5314 114.736 13.5314C114.782 13.5314 114.82 13.5103 114.82 13.4845C114.82 13.4587 114.862 13.4376 114.913 13.4376C114.965 13.4376 115.007 13.4165 115.007 13.3908C115.007 13.365 115.049 13.3439 115.101 13.3439C115.152 13.3439 115.195 13.3228 115.195 13.297C115.195 13.2712 115.237 13.2501 115.288 13.2501C115.34 13.2501 115.382 13.229 115.382 13.2033C115.382 13.1775 115.445 13.1564 115.523 13.1564C115.6 13.1564 115.663 13.1353 115.663 13.1095C115.663 13.0837 115.727 13.0626 115.804 13.0626C115.881 13.0626 115.945 13.0415 115.945 13.0158C115.945 12.99 116.008 12.9689 116.085 12.9689C116.163 12.9689 116.226 12.9478 116.226 12.922C116.226 12.8962 116.289 12.8751 116.367 12.8751C116.444 12.8751 116.507 12.854 116.507 12.8283C116.507 12.8025 116.613 12.7814 116.742 12.7814C116.871 12.7814 116.976 12.7603 116.976 12.7345C116.976 12.7087 117.082 12.6876 117.211 12.6876C117.34 12.6876 117.445 12.6665 117.445 12.6408C117.445 12.6134 117.601 12.5939 117.82 12.5939ZM86.8668 27.2189H83.3505V20.0001V12.7814H86.9606C89.3361 12.7814 90.5707 12.7974 90.5707 12.8283C90.5707 12.8569 90.7896 12.8751 91.1334 12.8751C91.4772 12.8751 91.696 12.8934 91.696 12.922C91.696 12.9488 91.8366 12.9689 92.0242 12.9689C92.2117 12.9689 92.3524 12.989 92.3524 13.0158C92.3524 13.0418 92.4774 13.0626 92.6337 13.0626C92.7899 13.0626 92.915 13.0834 92.915 13.1095C92.915 13.1353 92.9994 13.1564 93.1025 13.1564C93.2057 13.1564 93.2901 13.1775 93.2901 13.2033C93.2901 13.229 93.3534 13.2501 93.4307 13.2501C93.5081 13.2501 93.5714 13.2712 93.5714 13.297C93.5714 13.3228 93.6347 13.3439 93.712 13.3439C93.7894 13.3439 93.8527 13.365 93.8527 13.3908C93.8527 13.4165 93.8949 13.4376 93.9464 13.4376C93.998 13.4376 94.0402 13.4587 94.0402 13.4845C94.0402 13.5103 94.0824 13.5314 94.134 13.5314C94.1856 13.5314 94.2278 13.5525 94.2278 13.5783C94.2278 13.604 94.2653 13.6251 94.3112 13.6251C94.3571 13.6251 94.425 13.6673 94.4622 13.7189C94.4994 13.7704 94.5572 13.8126 94.5907 13.8126C94.6702 13.8126 95.1655 14.3078 95.1655 14.3872C95.1655 14.4207 95.2076 14.4786 95.2592 14.5158C95.3108 14.5529 95.353 14.6208 95.353 14.6667C95.353 14.7126 95.3741 14.7501 95.3999 14.7501C95.4257 14.7501 95.4468 14.7923 95.4468 14.8439C95.4468 14.8954 95.4679 14.9376 95.4936 14.9376C95.5194 14.9376 95.5405 14.9798 95.5405 15.0314C95.5405 15.0829 95.5616 15.1251 95.5874 15.1251C95.6132 15.1251 95.6343 15.1884 95.6343 15.2658C95.6343 15.3431 95.6554 15.4064 95.6812 15.4064C95.707 15.4064 95.7281 15.5118 95.7281 15.6408C95.7281 15.7697 95.7492 15.8751 95.775 15.8751C95.8031 15.8751 95.8218 16.0626 95.8218 16.3439C95.8218 16.6251 95.8031 16.8126 95.775 16.8126C95.7492 16.8126 95.7281 16.897 95.7281 17.0001C95.7281 17.1033 95.707 17.1876 95.6812 17.1876C95.6554 17.1876 95.6343 17.2509 95.6343 17.3283C95.6343 17.4056 95.6132 17.4689 95.5874 17.4689C95.5616 17.4689 95.5405 17.5111 95.5405 17.5626C95.5405 17.6142 95.5194 17.6564 95.4936 17.6564C95.4679 17.6564 95.4468 17.6939 95.4468 17.7398C95.4468 17.7857 95.4046 17.8536 95.353 17.8908C95.3014 17.9279 95.2592 17.9859 95.2592 18.0195C95.2592 18.0992 94.8582 18.5001 94.7785 18.5001C94.7448 18.5001 94.6869 18.5423 94.6497 18.5939C94.6125 18.6454 94.5492 18.6876 94.5091 18.6876C94.4689 18.6876 94.4056 18.7298 94.3684 18.7814C94.3287 18.8364 94.247 18.8751 94.1705 18.8751C94.0989 18.8751 94.0402 18.8962 94.0402 18.922C94.0402 18.9478 93.998 18.9689 93.9464 18.9689C93.8949 18.9689 93.8527 18.99 93.8527 19.0158C93.8527 19.0415 93.8105 19.0626 93.7589 19.0626C93.7073 19.0626 93.6651 19.0837 93.6651 19.1095C93.6651 19.1353 93.6109 19.1564 93.5446 19.1564C93.4783 19.1564 93.3924 19.188 93.3537 19.2267C93.2912 19.2892 93.2912 19.3048 93.3537 19.3673C93.3924 19.406 93.4783 19.4376 93.5446 19.4376C93.6109 19.4376 93.6651 19.4587 93.6651 19.4845C93.6651 19.5103 93.7073 19.5314 93.7589 19.5314C93.8105 19.5314 93.8527 19.5525 93.8527 19.5783C93.8527 19.604 93.8949 19.6251 93.9464 19.6251C93.998 19.6251 94.0402 19.6462 94.0402 19.672C94.0402 19.6978 94.1035 19.7189 94.1809 19.7189C94.2582 19.7189 94.3215 19.74 94.3215 19.7658C94.3215 19.7915 94.3591 19.8126 94.4049 19.8126C94.4508 19.8126 94.5188 19.8548 94.5559 19.9064C94.5931 19.9579 94.6611 20.0001 94.707 20.0001C94.7528 20.0001 94.7904 20.0212 94.7904 20.047C94.7904 20.0728 94.8223 20.0939 94.8615 20.0939C94.9479 20.0939 95.6343 20.7709 95.6343 20.8562C95.6343 20.8896 95.6765 20.9473 95.7281 20.9845C95.7796 21.0217 95.8218 21.0896 95.8218 21.1355C95.8218 21.1813 95.8429 21.2189 95.8687 21.2189C95.8945 21.2189 95.9156 21.2822 95.9156 21.3595C95.9156 21.4369 95.9367 21.5001 95.9625 21.5001C95.9883 21.5001 96.0094 21.5634 96.0094 21.6408C96.0094 21.7181 96.0305 21.7814 96.0563 21.7814C96.0823 21.7814 96.1031 21.9064 96.1031 22.0626C96.1031 22.2189 96.124 22.3439 96.15 22.3439C96.1787 22.3439 96.1969 22.5626 96.1969 22.9064C96.1969 23.2501 96.1787 23.4689 96.15 23.4689C96.124 23.4689 96.1031 23.5939 96.1031 23.7501C96.1031 23.9064 96.0823 24.0314 96.0563 24.0314C96.0305 24.0314 96.0094 24.0947 96.0094 24.172C96.0094 24.2494 95.9883 24.3126 95.9625 24.3126C95.9367 24.3126 95.9156 24.3759 95.9156 24.4533C95.9156 24.5306 95.8945 24.5939 95.8687 24.5939C95.8429 24.5939 95.8218 24.6361 95.8218 24.6876C95.8218 24.7392 95.8007 24.7814 95.775 24.7814C95.7492 24.7814 95.7281 24.8236 95.7281 24.8751C95.7281 24.9267 95.707 24.9689 95.6812 24.9689C95.6554 24.9689 95.6343 25.0026 95.6343 25.0438C95.6343 25.085 95.571 25.1779 95.4936 25.2501C95.4163 25.3224 95.353 25.4052 95.353 25.4343C95.353 25.5029 94.9494 25.9064 94.8808 25.9064C94.8517 25.9064 94.7689 25.9697 94.6966 26.047C94.6244 26.1244 94.5315 26.1876 94.4903 26.1876C94.449 26.1876 94.4153 26.2087 94.4153 26.2345C94.4153 26.2603 94.3731 26.2814 94.3215 26.2814C94.27 26.2814 94.2278 26.3025 94.2278 26.3283C94.2278 26.354 94.1856 26.3751 94.134 26.3751C94.0824 26.3751 94.0402 26.3962 94.0402 26.422C94.0402 26.4478 93.998 26.4689 93.9464 26.4689C93.8949 26.4689 93.8527 26.49 93.8527 26.5158C93.8527 26.5415 93.8105 26.5626 93.7589 26.5626C93.7073 26.5626 93.6651 26.5837 93.6651 26.6095C93.6651 26.6353 93.6018 26.6564 93.5245 26.6564C93.4471 26.6564 93.3838 26.6775 93.3838 26.7033C93.3838 26.729 93.3205 26.7501 93.2432 26.7501C93.1658 26.7501 93.1025 26.7712 93.1025 26.797C93.1025 26.8228 93.0181 26.8439 92.915 26.8439C92.8118 26.8439 92.7274 26.865 92.7274 26.8908C92.7274 26.9165 92.6219 26.9376 92.493 26.9376C92.3641 26.9376 92.2586 26.9587 92.2586 26.9845C92.2586 27.0118 92.1023 27.0314 91.8835 27.0314C91.6647 27.0314 91.5084 27.0509 91.5084 27.0783C91.5084 27.1069 91.2896 27.1251 90.9458 27.1251C90.602 27.1251 90.3832 27.1434 90.3832 27.172C90.3832 27.2029 89.1798 27.2189 86.8668 27.2189ZM101.767 27.2189H99.8914V20.0001V12.7814H105.33H110.769V13.3908C110.769 13.7658 110.751 14.0001 110.722 14.0001C110.693 14.0001 110.675 14.2189 110.675 14.5626C110.675 14.9064 110.657 15.1251 110.628 15.1251C110.602 15.1251 110.581 15.2501 110.581 15.4064V15.6876H107.112H103.642V21.4533V27.2189H101.767ZM130.806 27.2189H128.997V20.0001V12.7814H132.045C134.045 12.7814 135.093 12.7975 135.093 12.8283C135.093 12.8573 135.343 12.8751 135.749 12.8751C136.155 12.8751 136.405 12.893 136.405 12.922C136.405 12.9488 136.546 12.9689 136.733 12.9689C136.921 12.9689 137.062 12.989 137.062 13.0158C137.062 13.0415 137.167 13.0626 137.296 13.0626C137.425 13.0626 137.531 13.0837 137.531 13.1095C137.531 13.1353 137.615 13.1564 137.718 13.1564C137.821 13.1564 137.906 13.1775 137.906 13.2033C137.906 13.229 137.969 13.2501 138.046 13.2501C138.124 13.2501 138.187 13.2712 138.187 13.297C138.187 13.3228 138.229 13.3439 138.281 13.3439C138.332 13.3439 138.374 13.365 138.374 13.3908C138.374 13.4165 138.438 13.4376 138.515 13.4376C138.592 13.4376 138.656 13.4587 138.656 13.4845C138.656 13.5103 138.693 13.5314 138.739 13.5314C138.785 13.5314 138.853 13.5736 138.89 13.6251C138.927 13.6767 138.995 13.7189 139.041 13.7189C139.087 13.7189 139.125 13.74 139.125 13.7658C139.125 13.7915 139.158 13.8126 139.2 13.8126C139.241 13.8126 139.334 13.8759 139.406 13.9533C139.478 14.0306 139.561 14.0939 139.59 14.0939C139.663 14.0939 140.156 14.594 140.156 14.6685C140.156 14.702 140.198 14.7598 140.25 14.797C140.301 14.8342 140.344 14.8975 140.344 14.9376C140.344 14.9778 140.386 15.0411 140.437 15.0783C140.489 15.1154 140.531 15.1833 140.531 15.2292C140.531 15.2751 140.552 15.3126 140.578 15.3126C140.604 15.3126 140.625 15.3759 140.625 15.4533C140.625 15.5306 140.646 15.5939 140.672 15.5939C140.698 15.5939 140.719 15.6361 140.719 15.6876C140.719 15.7392 140.74 15.7814 140.766 15.7814C140.791 15.7814 140.812 15.8447 140.812 15.922C140.812 15.9993 140.834 16.0626 140.859 16.0626C140.885 16.0626 140.906 16.1876 140.906 16.3439C140.906 16.5001 140.927 16.6251 140.953 16.6251C140.983 16.6251 141 16.922 141 17.422C141 17.922 140.983 18.2189 140.953 18.2189C140.927 18.2189 140.906 18.3439 140.906 18.5001C140.906 18.6564 140.885 18.7814 140.859 18.7814C140.834 18.7814 140.812 18.8658 140.812 18.9689C140.812 19.072 140.791 19.1564 140.766 19.1564C140.74 19.1564 140.719 19.1986 140.719 19.2501C140.719 19.3017 140.698 19.3439 140.672 19.3439C140.646 19.3439 140.625 19.4072 140.625 19.4845C140.625 19.5618 140.604 19.6251 140.578 19.6251C140.552 19.6251 140.531 19.6673 140.531 19.7189C140.531 19.7704 140.51 19.8126 140.484 19.8126C140.458 19.8126 140.437 19.8502 140.437 19.896C140.437 19.9419 140.395 20.0098 140.344 20.047C140.292 20.0842 140.25 20.1437 140.25 20.1792C140.25 20.2147 140.187 20.3029 140.109 20.3751C140.032 20.4474 139.969 20.5301 139.969 20.559C139.969 20.6275 139.471 21.1251 139.402 21.1251C139.373 21.1251 139.291 21.1884 139.218 21.2658C139.146 21.3431 139.058 21.4064 139.022 21.4064C138.987 21.4064 138.927 21.4486 138.89 21.5001C138.853 21.5517 138.785 21.5939 138.739 21.5939C138.693 21.5939 138.656 21.615 138.656 21.6408C138.656 21.6665 138.614 21.6876 138.562 21.6876C138.51 21.6876 138.468 21.7087 138.468 21.7345C138.468 21.7603 138.426 21.7814 138.374 21.7814C138.323 21.7814 138.281 21.8025 138.281 21.8283C138.281 21.854 138.217 21.8751 138.14 21.8751C138.063 21.8751 137.999 21.8962 137.999 21.922C137.999 21.9478 137.936 21.9689 137.859 21.9689C137.781 21.9689 137.718 21.99 137.718 22.0158C137.718 22.0415 137.613 22.0626 137.484 22.0626C137.355 22.0626 137.249 22.0837 137.249 22.1095C137.249 22.1353 137.165 22.1564 137.062 22.1564C136.959 22.1564 136.874 22.1775 136.874 22.2033C136.874 22.23 136.733 22.2501 136.546 22.2501C136.358 22.2501 136.218 22.2702 136.218 22.297C136.218 22.3274 135.608 22.3439 134.483 22.3439H132.748V24.7144C132.748 26.7064 132.738 27.0957 132.681 27.1519C132.626 27.2076 132.311 27.2189 130.806 27.2189ZM74.4705 15.4064C74.3416 15.4064 74.2361 15.3853 74.2361 15.3595C74.2361 15.3305 73.9861 15.3126 73.5797 15.3126C73.1734 15.3126 72.9233 15.3305 72.9233 15.3595C72.9233 15.3856 72.7983 15.4064 72.642 15.4064C72.4857 15.4064 72.3607 15.4272 72.3607 15.4533C72.3607 15.479 72.2974 15.5001 72.22 15.5001C72.1427 15.5001 72.0794 15.5212 72.0794 15.547C72.0794 15.5728 72.0161 15.5939 71.9387 15.5939C71.8614 15.5939 71.7981 15.615 71.7981 15.6408C71.7981 15.6665 71.7559 15.6876 71.7043 15.6876C71.6527 15.6876 71.6105 15.7087 71.6105 15.7345C71.6105 15.7603 71.573 15.7814 71.5271 15.7814C71.4812 15.7814 71.4133 15.8236 71.3761 15.8751C71.3389 15.9267 71.281 15.9689 71.2473 15.9689C71.1725 15.9689 70.7666 16.3676 70.7666 16.441C70.7666 16.47 70.7033 16.5529 70.626 16.6251C70.5486 16.6974 70.4853 16.7902 70.4853 16.8314C70.4853 16.8727 70.4642 16.9064 70.4384 16.9064C70.4126 16.9064 70.3915 16.9486 70.3915 17.0001C70.3915 17.0517 70.3704 17.0939 70.3447 17.0939C70.3189 17.0939 70.2978 17.1361 70.2978 17.1876C70.2978 17.2392 70.2767 17.2814 70.2509 17.2814C70.2251 17.2814 70.204 17.3236 70.204 17.3751C70.204 17.4267 70.1829 17.4689 70.1571 17.4689C70.1313 17.4689 70.1102 17.5322 70.1102 17.6095C70.1102 17.6868 70.0891 17.7501 70.0633 17.7501C70.0376 17.7501 70.0165 17.8345 70.0165 17.9376C70.0165 18.0408 69.9954 18.1251 69.9696 18.1251C69.9438 18.1251 69.9227 18.2306 69.9227 18.3595C69.9227 18.4884 69.9016 18.5939 69.8758 18.5939C69.8485 18.5939 69.8289 18.7501 69.8289 18.9689C69.8289 19.1876 69.8094 19.3439 69.782 19.3439C69.7529 19.3439 69.7352 19.6095 69.7352 20.047C69.7352 20.4845 69.7529 20.7501 69.782 20.7501C69.8088 20.7501 69.8289 20.8908 69.8289 21.0783C69.8289 21.2658 69.849 21.4064 69.8758 21.4064C69.9016 21.4064 69.9227 21.5119 69.9227 21.6408C69.9227 21.7697 69.9438 21.8751 69.9696 21.8751C69.9954 21.8751 70.0165 21.9595 70.0165 22.0626C70.0165 22.1658 70.0376 22.2501 70.0633 22.2501C70.0891 22.2501 70.1102 22.3134 70.1102 22.3908C70.1102 22.4681 70.1313 22.5314 70.1571 22.5314C70.1829 22.5314 70.204 22.5736 70.204 22.6251C70.204 22.6767 70.2251 22.7189 70.2509 22.7189C70.2767 22.7189 70.2978 22.7611 70.2978 22.8126C70.2978 22.8642 70.3189 22.9064 70.3447 22.9064C70.3704 22.9064 70.3915 22.9486 70.3915 23.0001C70.3915 23.0517 70.4126 23.0939 70.4384 23.0939C70.4642 23.0939 70.4853 23.1314 70.4853 23.1773C70.4853 23.2232 70.5275 23.2911 70.5791 23.3283C70.6307 23.3654 70.6729 23.4233 70.6729 23.4568C70.6729 23.5362 71.1681 24.0314 71.2476 24.0314C71.2811 24.0314 71.3389 24.0736 71.3761 24.1251C71.4133 24.1767 71.4812 24.2189 71.5271 24.2189C71.573 24.2189 71.6105 24.24 71.6105 24.2658C71.6105 24.2915 71.6527 24.3126 71.7043 24.3126C71.7559 24.3126 71.7981 24.3337 71.7981 24.3595C71.7981 24.3853 71.8403 24.4064 71.8919 24.4064C71.9434 24.4064 71.9856 24.4275 71.9856 24.4533C71.9856 24.479 72.0489 24.5001 72.1263 24.5001C72.2036 24.5001 72.2669 24.5212 72.2669 24.547C72.2669 24.5728 72.3724 24.5939 72.5014 24.5939C72.6303 24.5939 72.7358 24.615 72.7358 24.6408C72.7358 24.6702 73.0327 24.6876 73.5328 24.6876C74.0329 24.6876 74.3299 24.6702 74.3299 24.6408C74.3299 24.615 74.4143 24.5939 74.5174 24.5939C74.6205 24.5939 74.7049 24.5728 74.7049 24.547C74.7049 24.5212 74.7893 24.5001 74.8925 24.5001C74.9956 24.5001 75.08 24.479 75.08 24.4533C75.08 24.4275 75.1222 24.4064 75.1738 24.4064C75.2254 24.4064 75.2676 24.3853 75.2676 24.3595C75.2676 24.3337 75.3098 24.3126 75.3613 24.3126C75.4129 24.3126 75.4551 24.2915 75.4551 24.2658C75.4551 24.24 75.4927 24.2189 75.5385 24.2189C75.5844 24.2189 75.6523 24.1767 75.6895 24.1251C75.7267 24.0736 75.7846 24.0314 75.8183 24.0314C75.898 24.0314 76.299 23.6304 76.299 23.5508C76.299 23.5171 76.3412 23.4592 76.3928 23.422C76.4444 23.3848 76.4866 23.3169 76.4866 23.271C76.4866 23.2252 76.5077 23.1876 76.5334 23.1876C76.5592 23.1876 76.5803 23.1501 76.5803 23.1042C76.5803 23.0584 76.6225 22.9904 76.6741 22.9533C76.7291 22.9136 76.7679 22.8319 76.7679 22.7554C76.7679 22.6838 76.789 22.6251 76.8148 22.6251C76.8405 22.6251 76.8616 22.5829 76.8616 22.5314C76.8616 22.4798 76.8827 22.4376 76.9085 22.4376C76.9343 22.4376 76.9554 22.3744 76.9554 22.297C76.9554 22.2197 76.9765 22.1564 77.0023 22.1564C77.0281 22.1564 77.0492 22.072 77.0492 21.9689C77.0492 21.8658 77.0703 21.7814 77.0961 21.7814C77.1221 21.7814 77.1429 21.6564 77.1429 21.5001C77.1429 21.3439 77.1638 21.2189 77.1898 21.2189C77.2182 21.2189 77.2367 21.0158 77.2367 20.7033C77.2367 20.3907 77.2552 20.1876 77.2836 20.1876C77.3094 20.1876 77.3305 20.1033 77.3305 20.0001C77.3305 19.897 77.3094 19.8126 77.2836 19.8126C77.2552 19.8126 77.2367 19.6095 77.2367 19.297C77.2367 18.9845 77.2182 18.7814 77.1898 18.7814C77.1638 18.7814 77.1429 18.6564 77.1429 18.5001C77.1429 18.3439 77.1221 18.2189 77.0961 18.2189C77.0703 18.2189 77.0492 18.1345 77.0492 18.0314C77.0492 17.9283 77.0281 17.8439 77.0023 17.8439C76.9765 17.8439 76.9554 17.7806 76.9554 17.7033C76.9554 17.6259 76.9343 17.5626 76.9085 17.5626C76.8827 17.5626 76.8616 17.5204 76.8616 17.4689C76.8616 17.4173 76.8405 17.3751 76.8148 17.3751C76.789 17.3751 76.7679 17.3118 76.7679 17.2345C76.7679 17.1572 76.7468 17.0939 76.721 17.0939C76.6952 17.0939 76.6741 17.0563 76.6741 17.0105C76.6741 16.9646 76.6319 16.8967 76.5803 16.8595C76.5288 16.8223 76.4866 16.7628 76.4866 16.7273C76.4866 16.6918 76.4233 16.6036 76.3459 16.5314C76.2685 16.4591 76.2053 16.3759 76.2053 16.3464C76.2053 16.2768 75.991 16.0626 75.9215 16.0626C75.8919 16.0626 75.8087 15.9993 75.7364 15.922C75.6642 15.8447 75.5713 15.7814 75.5301 15.7814C75.4888 15.7814 75.4551 15.7603 75.4551 15.7345C75.4551 15.7087 75.4129 15.6876 75.3613 15.6876C75.3098 15.6876 75.2676 15.6665 75.2676 15.6408C75.2676 15.615 75.2254 15.5939 75.1738 15.5939C75.1222 15.5939 75.08 15.5728 75.08 15.547C75.08 15.5212 74.9956 15.5001 74.8925 15.5001C74.7893 15.5001 74.7049 15.479 74.7049 15.4533C74.7049 15.4275 74.5994 15.4064 74.4705 15.4064ZM120.118 15.4064C119.989 15.4064 119.883 15.3853 119.883 15.3595C119.883 15.3305 119.633 15.3126 119.227 15.3126C118.82 15.3126 118.57 15.3305 118.57 15.3595C118.57 15.3856 118.445 15.4064 118.289 15.4064C118.133 15.4064 118.008 15.4272 118.008 15.4533C118.008 15.479 117.944 15.5001 117.867 15.5001C117.79 15.5001 117.726 15.5212 117.726 15.547C117.726 15.5728 117.663 15.5939 117.586 15.5939C117.508 15.5939 117.445 15.615 117.445 15.6408C117.445 15.6665 117.403 15.6876 117.351 15.6876C117.3 15.6876 117.258 15.7087 117.258 15.7345C117.258 15.7603 117.22 15.7814 117.174 15.7814C117.128 15.7814 117.06 15.8236 117.023 15.8751C116.986 15.9267 116.928 15.9689 116.895 15.9689C116.815 15.9689 116.32 16.464 116.32 16.5435C116.32 16.577 116.278 16.6348 116.226 16.672C116.175 16.7092 116.132 16.7771 116.132 16.823C116.132 16.8688 116.111 16.9064 116.085 16.9064C116.06 16.9064 116.039 16.9486 116.039 17.0001C116.039 17.0517 116.017 17.0939 115.992 17.0939C115.966 17.0939 115.945 17.1361 115.945 17.1876C115.945 17.2392 115.924 17.2814 115.898 17.2814C115.872 17.2814 115.851 17.3236 115.851 17.3751C115.851 17.4267 115.83 17.4689 115.804 17.4689C115.778 17.4689 115.757 17.5322 115.757 17.6095C115.757 17.6868 115.736 17.7501 115.71 17.7501C115.685 17.7501 115.663 17.8345 115.663 17.9376C115.663 18.0408 115.642 18.1251 115.617 18.1251C115.591 18.1251 115.57 18.2095 115.57 18.3126C115.57 18.4158 115.549 18.5001 115.523 18.5001C115.495 18.5001 115.476 18.6564 115.476 18.8751C115.476 19.0939 115.456 19.2501 115.429 19.2501C115.4 19.2501 115.382 19.547 115.382 20.047C115.382 20.547 115.4 20.8439 115.429 20.8439C115.456 20.8439 115.476 20.9845 115.476 21.172C115.476 21.3595 115.496 21.5001 115.523 21.5001C115.549 21.5001 115.57 21.5845 115.57 21.6876C115.57 21.7908 115.591 21.8751 115.617 21.8751C115.642 21.8751 115.663 21.9595 115.663 22.0626C115.663 22.1658 115.685 22.2501 115.71 22.2501C115.736 22.2501 115.757 22.3134 115.757 22.3908C115.757 22.4681 115.778 22.5314 115.804 22.5314C115.83 22.5314 115.851 22.5736 115.851 22.6251C115.851 22.6767 115.872 22.7189 115.898 22.7189C115.924 22.7189 115.945 22.7611 115.945 22.8126C115.945 22.8642 115.966 22.9064 115.992 22.9064C116.017 22.9064 116.039 22.9486 116.039 23.0001C116.039 23.0517 116.06 23.0939 116.085 23.0939C116.111 23.0939 116.132 23.1314 116.132 23.1773C116.132 23.2232 116.175 23.2911 116.226 23.3283C116.278 23.3654 116.32 23.4232 116.32 23.4566C116.32 23.542 116.912 24.1251 116.999 24.1251C117.038 24.1251 117.07 24.1462 117.07 24.172C117.07 24.1978 117.112 24.2189 117.164 24.2189C117.215 24.2189 117.258 24.24 117.258 24.2658C117.258 24.2915 117.3 24.3126 117.351 24.3126C117.403 24.3126 117.445 24.3337 117.445 24.3595C117.445 24.3853 117.487 24.4064 117.539 24.4064C117.59 24.4064 117.633 24.4275 117.633 24.4533C117.633 24.479 117.696 24.5001 117.773 24.5001C117.851 24.5001 117.914 24.5212 117.914 24.547C117.914 24.5728 118.019 24.5939 118.148 24.5939C118.277 24.5939 118.383 24.615 118.383 24.6408C118.383 24.6702 118.68 24.6876 119.18 24.6876C119.68 24.6876 119.977 24.6702 119.977 24.6408C119.977 24.615 120.061 24.5939 120.164 24.5939C120.268 24.5939 120.352 24.5728 120.352 24.547C120.352 24.5212 120.415 24.5001 120.493 24.5001C120.57 24.5001 120.633 24.479 120.633 24.4533C120.633 24.4275 120.697 24.4064 120.774 24.4064C120.851 24.4064 120.915 24.3853 120.915 24.3595C120.915 24.3337 120.957 24.3126 121.008 24.3126C121.06 24.3126 121.102 24.2915 121.102 24.2658C121.102 24.24 121.136 24.2189 121.177 24.2189C121.218 24.2189 121.311 24.1556 121.383 24.0783C121.456 24.0009 121.539 23.9376 121.568 23.9376C121.638 23.9376 121.852 23.7235 121.852 23.6539C121.852 23.6244 121.916 23.5411 121.993 23.4689C122.07 23.3966 122.134 23.3038 122.134 23.2626C122.134 23.2213 122.155 23.1876 122.18 23.1876C122.206 23.1876 122.227 23.1454 122.227 23.0939C122.227 23.0423 122.248 23.0001 122.274 23.0001C122.3 23.0001 122.321 22.9579 122.321 22.9064C122.321 22.8548 122.342 22.8126 122.368 22.8126C122.394 22.8126 122.415 22.7704 122.415 22.7189C122.415 22.6673 122.436 22.6251 122.462 22.6251C122.488 22.6251 122.509 22.5829 122.509 22.5314C122.509 22.4798 122.53 22.4376 122.556 22.4376C122.581 22.4376 122.602 22.3533 122.602 22.2501C122.602 22.147 122.624 22.0626 122.649 22.0626C122.675 22.0626 122.696 21.9783 122.696 21.8751C122.696 21.772 122.717 21.6876 122.743 21.6876C122.769 21.6876 122.79 21.5822 122.79 21.4533C122.79 21.3244 122.811 21.2189 122.837 21.2189C122.867 21.2189 122.884 20.7657 122.884 19.9533C122.884 19.1408 122.867 18.6876 122.837 18.6876C122.811 18.6876 122.79 18.6033 122.79 18.5001C122.79 18.397 122.769 18.3126 122.743 18.3126C122.717 18.3126 122.696 18.2283 122.696 18.1251C122.696 18.022 122.675 17.9376 122.649 17.9376C122.624 17.9376 122.602 17.8533 122.602 17.7501C122.602 17.647 122.581 17.5626 122.556 17.5626C122.53 17.5626 122.509 17.5204 122.509 17.4689C122.509 17.4173 122.488 17.3751 122.462 17.3751C122.436 17.3751 122.415 17.3329 122.415 17.2814C122.415 17.2298 122.394 17.1876 122.368 17.1876C122.342 17.1876 122.321 17.1454 122.321 17.0939C122.321 17.0423 122.3 17.0001 122.274 17.0001C122.248 17.0001 122.227 16.9626 122.227 16.9167C122.227 16.8708 122.185 16.8029 122.134 16.7658C122.082 16.7286 122.04 16.6709 122.04 16.6376C122.04 16.5523 121.259 15.7814 121.173 15.7814C121.134 15.7814 121.102 15.7603 121.102 15.7345C121.102 15.7087 121.06 15.6876 121.008 15.6876C120.957 15.6876 120.915 15.6665 120.915 15.6408C120.915 15.615 120.851 15.5939 120.774 15.5939C120.697 15.5939 120.633 15.5728 120.633 15.547C120.633 15.5212 120.57 15.5001 120.493 15.5001C120.415 15.5001 120.352 15.479 120.352 15.4533C120.352 15.4275 120.246 15.4064 120.118 15.4064ZM90.8052 15.6876C90.6762 15.6876 90.5707 15.6665 90.5707 15.6408C90.5707 15.6103 89.9612 15.5939 88.836 15.5939H87.1013V16.98C87.1013 18.1189 87.1132 18.3782 87.1683 18.4331C87.2221 18.4871 87.4326 18.5001 88.2466 18.5001C88.8896 18.5001 89.258 18.4831 89.258 18.4533C89.258 18.4241 89.5237 18.4064 89.9612 18.4064C90.3988 18.4064 90.6645 18.3887 90.6645 18.3595C90.6645 18.3337 90.7489 18.3126 90.8521 18.3126C90.9552 18.3126 91.0396 18.2915 91.0396 18.2658C91.0396 18.24 91.0982 18.2189 91.1699 18.2189C91.2464 18.2189 91.3281 18.1802 91.3678 18.1251C91.405 18.0736 91.4633 18.0314 91.4975 18.0314C91.583 18.0314 91.7897 17.8174 91.7897 17.7288C91.7897 17.689 91.8108 17.6564 91.8366 17.6564C91.8624 17.6564 91.8835 17.6142 91.8835 17.5626C91.8835 17.5111 91.9046 17.4689 91.9304 17.4689C91.9588 17.4689 91.9773 17.2658 91.9773 16.9533C91.9773 16.6407 91.9588 16.4376 91.9304 16.4376C91.9046 16.4376 91.8835 16.4054 91.8835 16.3661C91.8835 16.2731 91.4855 15.8751 91.3924 15.8751C91.3531 15.8751 91.3209 15.854 91.3209 15.8283C91.3209 15.8025 91.2576 15.7814 91.1802 15.7814C91.1029 15.7814 91.0396 15.7603 91.0396 15.7345C91.0396 15.7087 90.9341 15.6876 90.8052 15.6876ZM135.749 15.6876C135.646 15.6876 135.561 15.6665 135.561 15.6408C135.561 15.6106 135.061 15.5939 134.155 15.5939H132.748V17.6095V19.6251H134.014C134.827 19.6251 135.28 19.6084 135.28 19.5783C135.28 19.5522 135.405 19.5314 135.561 19.5314C135.718 19.5314 135.843 19.5106 135.843 19.4845C135.843 19.4587 135.906 19.4376 135.983 19.4376C136.061 19.4376 136.124 19.4165 136.124 19.3908C136.124 19.365 136.166 19.3439 136.218 19.3439C136.269 19.3439 136.312 19.3228 136.312 19.297C136.312 19.2712 136.344 19.2501 136.383 19.2501C136.476 19.2501 136.874 18.8522 136.874 18.7592C136.874 18.7198 136.895 18.6876 136.921 18.6876C136.947 18.6876 136.968 18.6454 136.968 18.5939C136.968 18.5423 136.989 18.5001 137.015 18.5001C137.041 18.5001 137.062 18.4579 137.062 18.4064C137.062 18.3548 137.083 18.3126 137.109 18.3126C137.138 18.3126 137.155 18.047 137.155 17.6095C137.155 17.172 137.138 16.9064 137.109 16.9064C137.083 16.9064 137.062 16.8431 137.062 16.7658C137.062 16.6884 137.041 16.6251 137.015 16.6251C136.989 16.6251 136.968 16.5931 136.968 16.5539C136.968 16.4613 136.382 15.8751 136.289 15.8751C136.25 15.8751 136.218 15.854 136.218 15.8283C136.218 15.8025 136.154 15.7814 136.077 15.7814C136 15.7814 135.936 15.7603 135.936 15.7345C135.936 15.7087 135.852 15.6876 135.749 15.6876ZM90.1019 21.0314C89.6955 21.0314 89.4455 21.0135 89.4455 20.9845C89.4455 20.9545 89.0235 20.9376 88.2734 20.9376H87.1013V22.672V24.4064H88.5547C89.4924 24.4064 90.0081 24.3897 90.0081 24.3595C90.0081 24.3327 90.1488 24.3126 90.3363 24.3126C90.5239 24.3126 90.6645 24.2925 90.6645 24.2658C90.6645 24.24 90.7489 24.2189 90.8521 24.2189C90.9552 24.2189 91.0396 24.1978 91.0396 24.172C91.0396 24.1462 91.0818 24.1251 91.1334 24.1251C91.1849 24.1251 91.2271 24.104 91.2271 24.0783C91.2271 24.0525 91.2904 24.0314 91.3678 24.0314C91.4451 24.0314 91.5084 24.0103 91.5084 23.9845C91.5084 23.9587 91.5406 23.9376 91.5798 23.9376C91.6726 23.9376 92.1648 23.4455 92.1648 23.3527C92.1648 23.3135 92.1859 23.2814 92.2117 23.2814C92.2375 23.2814 92.2586 23.197 92.2586 23.0939C92.2586 22.9908 92.2797 22.9064 92.3055 22.9064C92.3313 22.9064 92.3524 22.822 92.3524 22.7189C92.3524 22.6158 92.3313 22.5314 92.3055 22.5314C92.2797 22.5314 92.2586 22.4259 92.2586 22.297C92.2586 22.1681 92.2375 22.0626 92.2117 22.0626C92.1859 22.0626 92.1648 22.0204 92.1648 21.9689C92.1648 21.9173 92.1437 21.8751 92.1179 21.8751C92.0922 21.8751 92.0711 21.8426 92.0711 21.8027C92.0711 21.7141 91.8643 21.5001 91.7788 21.5001C91.7446 21.5001 91.6863 21.4579 91.6491 21.4064C91.6119 21.3548 91.544 21.3126 91.4981 21.3126C91.4522 21.3126 91.4147 21.2915 91.4147 21.2658C91.4147 21.24 91.3514 21.2189 91.274 21.2189C91.1967 21.2189 91.1334 21.1978 91.1334 21.172C91.1334 21.1462 91.049 21.1251 90.9458 21.1251C90.8427 21.1251 90.7583 21.104 90.7583 21.0783C90.7583 21.0492 90.5082 21.0314 90.1019 21.0314Z" fill="white"/>
</svg>
