<svg width="30" height="30" viewBox="0 0 30 30" fill="none" xmlns="http://www.w3.org/2000/svg">
<path fill-rule="evenodd" clip-rule="evenodd" d="M4.5 22H6V24.5C6 25.879 7.121 27 8.5 27H9.5H20.5H21.5C22.879 27 24 25.879 24 24.5V22H25.5C26.327 22 27 21.327 27 20.5V13.5C27 12.673 26.327 12 25.5 12H24V7.5C24 5.019 21.981 3 19.5 3H10.5C8.019 3 6 5.019 6 7.5V12H4.5C3.673 12 3 12.673 3 13.5V20.5C3 21.327 3.673 22 4.5 22ZM6 19H4V15H6V19ZM4.5 21C4.225 21 4 20.775 4 20.5V20H6V21H4.5ZM10 26V23.5C10 22.673 10.673 22 11.5 22H18.5C19.327 22 20 22.673 20 23.5V26H10ZM23 24.5C23 25.327 22.327 26 21.5 26H21V23.5C21 22.121 19.879 21 18.5 21H11.5C10.121 21 9 22.121 9 23.5V26H8.5C7.673 26 7 25.327 7 24.5V21.5V12.5V9.215C8.28 9.478 9.62 9.678 11 9.806V11H10.5C10.224 11 10 11.224 10 11.5V13.5C10 13.776 10.224 14 10.5 14H11.125V16.5C11.125 16.776 11.349 17 11.625 17C11.901 17 12.125 16.776 12.125 16.5V14H12.5C12.776 14 13 13.776 13 13.5V11.5C13 11.224 12.776 11 12.5 11H12V9.883C12.993 9.952 13.994 9.999 15 9.999C16.006 9.999 17.007 9.952 18 9.883V11H17.5C17.224 11 17 11.224 17 11.5V13.5C17 13.776 17.224 14 17.5 14H18V16.5C18 16.776 18.224 17 18.5 17C18.776 17 19 16.776 19 16.5V14H19.5C19.776 14 20 13.776 20 13.5V11.5C20 11.224 19.776 11 19.5 11H19V9.806C20.38 9.677 21.72 9.478 23 9.215V12.5V21.5V24.5ZM12 12V13H11V12H12ZM18 13V12H19V13H18ZM26 19H24V15H26V19ZM25.5 21H24V20H26V20.5C26 20.775 25.775 21 25.5 21ZM25.5 13C25.775 13 26 13.225 26 13.5V14H24V13H25.5ZM10.5 4H19.5C21.43 4 23 5.57 23 7.5V8.198C21.724 8.469 20.382 8.673 19 8.805V8.5C19 8.224 18.776 8 18.5 8C18.224 8 18 8.224 18 8.5V8.882C16.014 9.023 13.986 9.023 12 8.882V8.5C12 8.224 11.776 8 11.5 8C11.224 8 11 8.224 11 8.5V8.805C9.618 8.673 8.276 8.469 7 8.198V7.5C7 5.57 8.57 4 10.5 4ZM4.5 13H6V14H4V13.5C4 13.225 4.225 13 4.5 13Z" fill="#272625"/>
</svg>
