<svg width="30" height="30" viewBox="0 0 30 30" fill="none" xmlns="http://www.w3.org/2000/svg">
<path fill-rule="evenodd" clip-rule="evenodd" d="M25.5 15H24.783L22.383 11H23.5C23.776 11 24 10.776 24 10.5V6.5C24 6.224 23.776 6 23.5 6H3.5C3.224 6 3 6.224 3 6.5V21.5C3 21.776 3.224 22 3.5 22H6.051C6.283 23.14 7.293 24 8.5 24C9.707 24 10.717 23.14 10.949 22H19.5H20.051C20.283 23.14 21.293 24 22.5 24C23.707 24 24.717 23.14 24.949 22H26.5C26.776 22 27 21.776 27 21.5V16.5C27 15.673 26.327 15 25.5 15ZM22 12.305L23.617 15H22V12.305ZM4 7H23V10H21.5H19.5C19.224 10 19 10.224 19 10.5V21H10.949C10.717 19.86 9.707 19 8.5 19C7.293 19 6.283 19.86 6.051 21H4V7ZM8.5 23C7.673 23 7 22.327 7 21.5C7 20.673 7.673 20 8.5 20C9.327 20 10 20.673 10 21.5C10 22.327 9.327 23 8.5 23ZM22.5 23C21.673 23 21 22.327 21 21.5C21 20.673 21.673 20 22.5 20C23.327 20 24 20.673 24 21.5C24 22.327 23.327 23 22.5 23ZM26 21H24.949C24.717 19.86 23.707 19 22.5 19C21.293 19 20.283 19.86 20.051 21H20V11H21V15.5C21 15.776 21.224 16 21.5 16H25.5C25.775 16 26 16.225 26 16.5V21ZM10.5 15H6.5C6.224 15 6 14.776 6 14.5V10.5C6 10.224 6.224 10 6.5 10H10.5C10.776 10 11 10.224 11 10.5V14.5C11 14.776 10.776 15 10.5 15ZM10 11H7V14H10V11ZM16.5 15H12.5C12.224 15 12 14.776 12 14.5V10.5C12 10.224 12.224 10 12.5 10H16.5C16.776 10 17 10.224 17 10.5V14.5C17 14.776 16.776 15 16.5 15ZM16 11H13V14H16V11ZM21.5 9H19.5C19.224 9 19 8.776 19 8.5C19 8.224 19.224 8 19.5 8H21.5C21.776 8 22 8.224 22 8.5C22 8.776 21.776 9 21.5 9Z" fill="#272625"/>
</svg>
