<svg width="30" height="30" viewBox="0 0 30 30" fill="none" xmlns="http://www.w3.org/2000/svg">
<path fill-rule="evenodd" clip-rule="evenodd" d="M24.0169 18.888C23.7188 18.8585 23.4496 18.6968 23.2834 18.4475L21.1302 15.2177C20.88 15.4643 20.6685 15.6682 20.4896 15.8318C20.2113 16.0861 19.8829 16.3695 19.5274 16.5001C19.3058 16.5815 19.0305 16.6223 18.7336 16.5414C18.4582 16.4664 18.2688 16.3139 18.162 16.2149C18.0698 16.1296 17.9838 16.03 17.9331 15.9714L17.9331 15.9714L17.9203 15.9566C17.8594 15.8863 17.8097 15.8297 17.7515 15.7715L12.0343 21.4887C12.3006 22.0463 12.2029 22.7343 11.7411 23.1961L8.55912 26.3781C8.25475 26.6825 7.78978 26.7579 7.4048 26.5654L4.57637 25.1512C4.28886 25.0075 4.08798 24.7343 4.0365 24.417C3.985 24.0997 4.08918 23.777 4.31648 23.5497L8.20556 19.6606C8.66738 19.1988 9.35541 19.1011 9.91298 19.3674L17.2352 12.0451C15.4999 10.139 13.4099 8.38248 9.52495 5.82108C9.00182 5.47616 8.86376 4.8657 9.0257 4.38198C9.19017 3.89071 9.68472 3.47773 10.3292 3.54436C15.4066 4.06925 19.2841 5.99039 23.4084 10.1147C24.5046 11.2109 25.5023 12.3909 26.2222 13.2907C26.5832 13.742 26.8769 14.126 27.081 14.3981C27.1831 14.5342 27.2629 14.6425 27.3176 14.7175C27.345 14.7549 27.3661 14.7841 27.3806 14.8042L27.3974 14.8275L27.402 14.8339L27.4034 14.8358C27.4034 14.8358 27.4041 14.8367 26.5903 15.418C26.5903 15.418 24.8226 12.9431 22.7013 10.8218C22.4022 10.5227 22.105 10.236 21.8088 9.9612C21.6446 9.80883 21.4808 9.66012 21.3172 9.51501C18.1838 6.73587 15.1399 5.27809 11.4444 4.69693C11.279 4.67092 11.1123 4.64666 10.9442 4.62412C10.7516 4.59829 10.5572 4.57471 10.3608 4.55333C10.3525 4.55243 10.3443 4.55153 10.336 4.55064C10.2995 4.5467 10.263 4.54284 10.2264 4.53906C9.96988 4.51254 9.86011 4.84426 10.0754 4.98621L10.1732 5.05075C10.3637 5.17666 10.5499 5.3007 10.7322 5.423C10.8468 5.4999 10.9597 5.57611 11.0712 5.65165C14.3796 7.89468 16.3112 9.55058 17.943 11.3374C18.1688 11.5846 18.3889 11.8344 18.606 12.0886C18.8218 12.3411 19.0348 12.598 19.2477 12.8611C19.4552 13.1177 19.6628 13.3801 19.8728 13.6502L18.4586 15.0644C18.547 15.1528 18.6188 15.2357 18.6817 15.3082L18.6817 15.3082C18.7864 15.429 18.8662 15.5211 18.9562 15.562C19.1976 15.6717 19.5126 15.4137 20.579 14.3564C20.5796 14.3558 20.5802 14.3553 20.5808 14.3547C20.591 14.3446 20.6013 14.3343 20.6116 14.3241L20.6121 14.3236C20.6337 14.3022 20.6556 14.2805 20.6778 14.2584C20.7994 14.1375 20.9302 14.0069 21.0711 13.8661C21.1827 13.7546 21.3687 13.7727 21.4562 13.9039L24.1155 17.8928L26.5903 15.418L27.4041 14.8367C27.6882 15.2345 27.6431 15.7794 27.2974 16.1251L24.8226 18.5999C24.6107 18.8118 24.3151 18.9175 24.0169 18.888ZM10.6804 20.0142L17.8968 12.7978C18.1118 13.0507 18.3241 13.3082 18.5366 13.5722L17.7515 14.3573L11.3875 20.7213L10.6804 20.0142ZM9.26622 24.2568L7.85201 25.671L5.02358 24.2568L7.1449 22.1355L8.91267 20.3677C9.10793 20.1725 9.42451 20.1725 9.61978 20.3677L9.97333 20.7213L10.6804 21.4284L11.034 21.7819C11.2293 21.9772 11.2293 22.2938 11.034 22.489L9.26622 24.2568Z" fill="#272625"/>
</svg>
