<svg width="30" height="30" viewBox="0 0 30 30" fill="none" xmlns="http://www.w3.org/2000/svg">
<path fill-rule="evenodd" clip-rule="evenodd" d="M3.50016 13.546C3.50616 13.609 3.52516 13.669 3.55316 13.725C3.55516 13.728 3.55416 13.731 3.55616 13.734L8.33616 22.734C8.33916 22.739 8.34416 22.741 8.34716 22.745C8.35216 22.753 8.35216 22.762 8.35716 22.77C8.39816 22.834 8.45216 22.882 8.51316 22.92C8.52616 22.928 8.54116 22.931 8.55416 22.938C8.61316 22.968 8.67516 22.985 8.74116 22.99C8.75416 22.991 8.76516 23 8.77816 23H21.2182C21.3042 23 21.3882 22.975 21.4642 22.932C21.4902 22.917 21.5062 22.891 21.5292 22.872C21.5672 22.84 21.6102 22.815 21.6382 22.771C21.6432 22.763 21.6432 22.754 21.6482 22.746C21.6512 22.741 21.6562 22.739 21.6592 22.735L26.4392 13.735C26.4412 13.732 26.4402 13.729 26.4422 13.726C26.4702 13.67 26.4892 13.61 26.4952 13.547C26.4962 13.535 26.4922 13.524 26.4922 13.512C26.4932 13.466 26.4932 13.419 26.4812 13.373C26.4802 13.37 26.4782 13.367 26.4772 13.364C26.4712 13.342 26.4582 13.324 26.4492 13.304C26.4332 13.267 26.4172 13.231 26.3932 13.2C26.3812 13.184 26.3642 13.171 26.3502 13.157C26.3192 13.125 26.2872 13.097 26.2502 13.075C26.2432 13.071 26.2402 13.065 26.2332 13.061C26.2222 13.055 26.2092 13.056 26.1982 13.05C26.1592 13.033 26.1192 13.02 26.0772 13.014C26.0532 13.01 26.0302 13.009 26.0052 13.008C25.9882 13.008 25.9722 13.002 25.9542 13.004L18.9792 13.635L15.4362 7.26C15.4302 7.249 15.4172 7.246 15.4102 7.236C15.3212 7.096 15.1742 7 14.9982 7C14.8222 7 14.6752 7.096 14.5862 7.233C14.5792 7.243 14.5672 7.247 14.5602 7.257L11.0182 13.633L4.04316 13.002C4.02516 13 4.00916 13.006 3.99216 13.006C3.96816 13.006 3.94516 13.008 3.92116 13.011C3.87816 13.018 3.83716 13.031 3.79816 13.048C3.78716 13.053 3.77516 13.052 3.76416 13.058C3.75716 13.062 3.75416 13.068 3.74716 13.072C3.70916 13.095 3.67616 13.123 3.64516 13.155C3.63116 13.17 3.61516 13.182 3.60216 13.198C3.57816 13.229 3.56316 13.266 3.54616 13.303C3.53716 13.324 3.52416 13.342 3.51816 13.363C3.51716 13.366 3.51516 13.369 3.51416 13.372C3.50216 13.419 3.50216 13.465 3.50316 13.511C3.50316 13.523 3.49916 13.534 3.50016 13.546ZM11.7362 14.398C11.7372 14.396 11.7382 14.394 11.7392 14.392L14.4982 9.429V17.723L10.8182 16.05L11.7362 14.398ZM18.2632 14.403L19.1782 16.05L15.4982 17.723V9.429L18.2552 14.388C18.2582 14.394 18.2602 14.398 18.2632 14.403ZM21.0312 21.785L16.0402 18.575L24.8682 14.562L21.0312 21.785ZM14.9982 19.094L19.5162 22H10.4802L14.9982 19.094ZM13.9562 18.576L8.96516 21.786L5.12916 14.564L13.9562 18.576ZM23.1082 14.263L20.0912 15.635L19.5102 14.589L23.1082 14.263ZM10.4862 14.589L9.90516 15.635L6.88816 14.263L10.4862 14.589Z" fill="#272625"/>
</svg>
