<svg width="30" height="30" viewBox="0 0 30 30" fill="none" xmlns="http://www.w3.org/2000/svg">
<path fill-rule="evenodd" clip-rule="evenodd" d="M23.5 9H19.891L19.364 6.894C19.085 5.779 18.088 5 16.938 5H13.061C11.912 5 10.915 5.779 10.636 6.894L10.109 9H9V7.5C9 7.224 8.776 7 8.5 7H6.5C6.224 7 6 7.224 6 7.5V9.051C4.308 9.296 3 10.742 3 12.5V24.5C3 25.327 3.673 26 4.5 26H25.5C26.327 26 27 25.327 27 24.5V12.5C27 10.57 25.43 9 23.5 9ZM7 8H8V9H7V8ZM4 24.5V14H5.5C5.776 14 6 14.224 6 14.5V25H4.5C4.224 25 4 24.776 4 24.5ZM26 24.5C26 24.776 25.776 25 25.5 25H7V14.5C7 13.673 6.327 13 5.5 13H4V12.5C4 11.122 5.122 10 6.5 10H8.5H10.5C10.729 10 10.929 9.844 10.985 9.621L11.606 7.136C11.773 6.467 12.372 6 13.062 6H16.939C17.628 6 18.227 6.467 18.395 7.136L19.016 9.621C19.071 9.844 19.271 10 19.5 10H23.5C24.878 10 26 11.122 26 12.5V24.5ZM13.5 10H16.5C17.327 10 18 9.327 18 8.5C18 7.673 17.327 7 16.5 7H13.5C12.673 7 12 7.673 12 8.5C12 9.327 12.673 10 13.5 10ZM13.5 8H16.5C16.776 8 17 8.224 17 8.5C17 8.776 16.776 9 16.5 9H13.5C13.224 9 13 8.776 13 8.5C13 8.224 13.224 8 13.5 8ZM9 18C9 14.691 11.691 12 15 12C18.309 12 21 14.691 21 18C21 21.309 18.309 24 15 24C11.691 24 9 21.309 9 18ZM10 18C10 20.757 12.243 23 15 23C17.757 23 20 20.757 20 18C20 15.243 17.757 13 15 13C12.243 13 10 15.243 10 18ZM15 14C12.794 14 11 15.794 11 18C11 20.206 12.794 22 15 22C17.206 22 19 20.206 19 18C19 15.794 17.206 14 15 14ZM15 21C13.346 21 12 19.654 12 18C12 16.346 13.346 15 15 15C16.654 15 18 16.346 18 18C18 19.654 16.654 21 15 21ZM22 12.5C22 11.673 22.673 11 23.5 11C24.327 11 25 11.673 25 12.5C25 13.327 24.327 14 23.5 14C22.673 14 22 13.327 22 12.5ZM23 12.5C23 12.776 23.224 13 23.5 13C23.776 13 24 12.776 24 12.5C24 12.224 23.776 12 23.5 12C23.224 12 23 12.224 23 12.5Z" fill="#272625"/>
</svg>
