<svg width="30" height="30" viewBox="0 0 30 30" fill="none" xmlns="http://www.w3.org/2000/svg">
<path fill-rule="evenodd" clip-rule="evenodd" d="M24.5003 13.598L25.8033 13.04C26.0563 12.934 26.3503 13.048 26.4603 13.302C26.5683 13.556 26.4513 13.85 26.1973 13.959L25.1203 14.421L26.2483 15.065C26.4893 15.203 26.5723 15.508 26.4353 15.748C26.3423 15.909 26.1733 16 26.0003 16C25.9153 16 25.8303 15.979 25.7523 15.935L23.9683 14.916L21.5873 15.936C22.1723 17.014 22.5003 18.231 22.5003 19.5C22.5003 23.636 19.1363 27 15.0003 27C10.8643 27 7.50033 23.636 7.50033 19.5C7.50033 18.231 7.82833 17.014 8.41333 15.936L6.03233 14.916L4.24833 15.935C4.17033 15.979 4.08533 16 4.00033 16C3.82733 16 3.65833 15.909 3.56533 15.749C3.42933 15.508 3.51233 15.204 3.75233 15.066L4.88033 14.422L3.80333 13.96C3.54933 13.851 3.43233 13.557 3.54033 13.303C3.64933 13.048 3.94333 12.933 4.19733 13.04L5.50033 13.598V12.5C5.50033 12.224 5.72433 12 6.00033 12C6.27633 12 6.50033 12.224 6.50033 12.5V14.027L8.95633 15.08C9.37533 14.508 9.86833 13.986 10.4443 13.546C9.82533 12.633 9.50033 11.59 9.50033 10.5C9.50033 8.64 10.4313 6.996 11.8483 6H11.0003C10.7243 6 10.5003 5.776 10.5003 5.5C10.5003 5.224 10.7243 5 11.0003 5H11.5003V3.5C11.5003 3.224 11.7243 3 12.0003 3H18.0003C18.2763 3 18.5003 3.224 18.5003 3.5V5H19.0003C19.2763 5 19.5003 5.224 19.5003 5.5C19.5003 5.776 19.2763 6 19.0003 6H18.1523C19.5693 6.996 20.5003 8.64 20.5003 10.5C20.5003 11.59 20.1753 12.633 19.5553 13.546C20.1323 13.986 20.6243 14.508 21.0433 15.08L23.5003 14.027V12.5C23.5003 12.224 23.7243 12 24.0003 12C24.2763 12 24.5003 12.224 24.5003 12.5V13.598ZM17.5003 4H12.5003V5H17.5003V4ZM15.0003 26C18.5843 26 21.5003 23.084 21.5003 19.5C21.5003 18.369 21.2033 17.284 20.6683 16.33L19.1973 16.96C19.1333 16.987 19.0663 17 19.0003 17C18.8073 17 18.6223 16.887 18.5413 16.698C18.4333 16.444 18.5503 16.15 18.8043 16.041L20.0973 15.487C19.6713 14.948 19.1663 14.465 18.5743 14.074C18.4563 13.996 18.3763 13.872 18.3553 13.732C18.3333 13.591 18.3723 13.448 18.4623 13.339C19.1423 12.513 19.5003 11.53 19.5003 10.5C19.5003 8.019 17.4813 6 15.0003 6C12.5193 6 10.5003 8.019 10.5003 10.5C10.5003 11.53 10.8583 12.513 11.5393 13.338C11.6283 13.448 11.6673 13.59 11.6463 13.731C11.6253 13.871 11.5453 13.995 11.4273 14.073C10.8353 14.464 10.3303 14.947 9.90433 15.486L11.1973 16.04C11.4513 16.149 11.5683 16.443 11.4603 16.697C11.3783 16.887 11.1933 17 11.0003 17C10.9343 17 10.8673 16.987 10.8033 16.96L9.33233 16.33C8.79733 17.284 8.50033 18.369 8.50033 19.5C8.50033 23.084 11.4163 26 15.0003 26ZM13 9.99999C13.13 9.99999 13.26 9.94999 13.359 9.84999C13.45 9.74999 13.5 9.62999 13.5 9.49999C13.5 9.36999 13.45 9.23999 13.35 9.14899C13.17 8.96899 12.85 8.94999 12.64 9.14899C12.55 9.23999 12.5 9.36999 12.5 9.49999C12.5 9.62999 12.55 9.75999 12.649 9.85899C12.74 9.94999 12.87 9.99999 13 9.99999ZM16.649 9.14901C16.55 9.24001 16.5 9.37001 16.5 9.50001C16.5 9.63001 16.55 9.76001 16.649 9.85901C16.74 9.95001 16.87 10 17 10C17.13 10 17.26 9.95001 17.359 9.85001C17.45 9.76001 17.5 9.63001 17.5 9.50001C17.5 9.37001 17.45 9.24001 17.35 9.14901C17.17 8.96001 16.84 8.96001 16.649 9.14901ZM14.5 15.5C14.5 15.37 14.55 15.24 14.649 15.14C14.84 14.96 15.17 14.96 15.35 15.149C15.439 15.24 15.5 15.37 15.5 15.5C15.5 15.63 15.45 15.76 15.35 15.85C15.26 15.95 15.13 16 15 16C14.87 16 14.74 15.95 14.649 15.859C14.55 15.76 14.5 15.63 14.5 15.5ZM14.64 18.149C14.55 18.24 14.5 18.37 14.5 18.5C14.5 18.63 14.55 18.76 14.649 18.859C14.74 18.95 14.87 19 15 19C15.13 19 15.26 18.95 15.35 18.85C15.45 18.76 15.5 18.63 15.5 18.5C15.5 18.37 15.45 18.24 15.35 18.149C15.17 17.96 14.85 17.95 14.64 18.149ZM14.5 21.5C14.5 21.37 14.55 21.24 14.64 21.149C14.85 20.95 15.17 20.96 15.35 21.149C15.45 21.24 15.5 21.37 15.5 21.5C15.5 21.63 15.45 21.76 15.35 21.85C15.26 21.95 15.13 22 15 22C14.87 22 14.74 21.95 14.649 21.859C14.55 21.76 14.5 21.63 14.5 21.5ZM16.6155 11.181C15.7385 12.238 14.2615 12.238 13.3855 11.181C13.2085 10.969 12.8945 10.938 12.6815 11.115C12.4685 11.291 12.4385 11.606 12.6155 11.819C13.2465 12.58 14.0945 13 15.0005 13C15.9065 13 16.7545 12.58 17.3855 11.819C17.5625 11.606 17.5325 11.291 17.3205 11.115C17.1055 10.939 16.7915 10.969 16.6155 11.181Z" fill="#272625"/>
</svg>
