<svg width="30" height="30" viewBox="0 0 30 30" fill="none" xmlns="http://www.w3.org/2000/svg">
<path fill-rule="evenodd" clip-rule="evenodd" d="M20.9292 16.2452C20.8442 16.1032 20.6952 16.0132 20.5302 16.0032C20.3552 15.9892 20.2062 16.0662 20.1052 16.1952L17.7352 19.2552L13.0002 11.3642V9.2992C13.3552 9.1142 13.8022 9.0022 14.2522 9.0022L14.3552 9.0042C14.9712 9.0252 15.3562 9.2332 15.8442 9.4962L15.9692 9.5632C16.4942 9.8472 17.1402 10.0022 17.7862 10.0022C18.5402 10.0022 19.2512 9.7952 19.7872 9.4192C19.9202 9.3252 20.0002 9.1732 20.0002 9.0102V5.0102C20.0002 4.8232 19.8962 4.6532 19.7312 4.5672C19.5652 4.4802 19.3662 4.4932 19.2132 4.6012C18.5192 5.0872 17.2632 5.1242 16.4412 4.6832L16.3192 4.6172C15.7892 4.3312 15.2402 4.0342 14.3902 4.0052L14.2522 4.0022C13.8182 4.0022 13.3922 4.0822 13.0002 4.2172V3.5022C13.0002 3.2262 12.7762 3.0022 12.5002 3.0022C12.2242 3.0022 12.0002 3.2262 12.0002 3.5022V5.0102V9.0102V11.3642L3.07125 26.2452C2.92925 26.4812 3.00625 26.7892 3.24225 26.9312C3.47925 27.0752 3.78625 26.9952 3.92825 26.7592L9.59825 17.3102L10.6202 17.9302C10.7802 18.0272 10.9812 18.0272 11.1412 17.9282L12.5102 17.0882L13.8892 17.9292C13.9702 17.9782 14.0602 18.0022 14.1502 18.0022C14.2412 18.0022 14.3332 17.9772 14.4132 17.9272L15.4042 17.3132L17.2402 20.3732C17.2452 20.3832 17.2512 20.3922 17.2572 20.4022L21.0722 26.7592C21.1652 26.9152 21.3312 27.0022 21.5002 27.0022C21.5872 27.0022 21.6763 26.9802 21.7572 26.9312C21.9942 26.7892 22.0702 26.4822 21.9282 26.2452L18.2862 20.1752L20.4472 17.3862L26.0712 26.7592C26.1652 26.9152 26.3312 27.0022 26.5002 27.0022C26.5872 27.0022 26.6763 26.9802 26.7572 26.9312C26.9942 26.7892 27.0702 26.4822 26.9282 26.2452L20.9292 16.2452ZM14.2522 5.0022L14.3552 5.0042C14.9712 5.0252 15.3562 5.2332 15.8442 5.4962L15.9692 5.5632C16.8432 6.0342 18.0592 6.1262 19.0012 5.8102V8.7292C18.2952 9.0952 17.1852 9.0822 16.4412 8.6822L16.3192 8.6162C15.7892 8.3302 15.2402 8.0332 14.3902 8.0042L14.2522 8.0022C13.8202 8.0022 13.3902 8.0742 13.0002 8.2072V5.2912C13.3542 5.1072 13.8052 5.0022 14.2522 5.0022ZM14.1482 16.9152L12.7702 16.0752C12.6092 15.9762 12.4092 15.9772 12.2482 16.0762L10.8782 16.9162L10.1132 16.4522L12.5002 12.4742L14.8892 16.4562L14.1482 16.9152Z" fill="#272625"/>
</svg>
