<svg width="30" height="30" viewBox="0 0 30 30" fill="none" xmlns="http://www.w3.org/2000/svg">
<path fill-rule="evenodd" clip-rule="evenodd" d="M22.0003 10.4059V9.80792L25.7243 7.94592C25.8933 7.86092 26.0003 7.68792 26.0003 7.49892C26.0003 7.30992 25.8933 7.13692 25.7243 7.05192L21.7243 5.05192C21.5693 4.97492 21.3843 4.98492 21.2383 5.07292C21.0903 5.16492 21.0003 5.32592 21.0003 5.49892V9.49892V9.99892H8.50031C8.29331 9.99892 8.10731 10.1259 8.03331 10.3189L3.03331 23.3189C2.97431 23.4729 2.99431 23.6459 3.08831 23.7819C3.18131 23.9179 3.33531 23.9989 3.50031 23.9989H26.5003C26.5073 23.9999 26.5153 23.9999 26.5203 23.9989C26.7963 23.9989 27.0203 23.7749 27.0203 23.4989C27.0203 23.3869 26.9843 23.2829 26.9213 23.1999L22.0003 10.4059ZM22.0003 6.30792L24.3823 7.49892L22.0003 8.68992V6.30792ZM8.84431 10.9989H20.7723L16.1573 22.9989H4.22831L8.84431 10.9989ZM21.0003 13.1919V22.9989H17.2283L21.0003 13.1919ZM22.0003 22.9989V13.1919L25.7723 22.9989H22.0003Z" fill="#272625"/>
</svg>
