<svg width="30" height="30" viewBox="0 0 30 30" fill="none" xmlns="http://www.w3.org/2000/svg">
<path fill-rule="evenodd" clip-rule="evenodd" d="M22.5 14C22.047 14 21.619 14.087 21.206 14.212L20.034 11.477L20.342 10.553C20.542 9.954 20.445 9.318 20.076 8.806C19.707 8.294 19.132 8 18.5 8C18.224 8 18.001 8.224 18.001 8.5C18.001 8.776 18.226 9 18.502 9C18.808 9 19.086 9.143 19.265 9.391C19.444 9.639 19.491 9.948 19.394 10.238L19.14 11H12V10H12.5C12.776 10 13 9.776 13 9.5C13 9.224 12.776 9 12.5 9H9.5C9.224 9 9 9.224 9 9.5C9 9.776 9.224 10 9.5 10H11V11.367L9.283 14.372C8.736 14.135 8.134 14 7.5 14C5.019 14 3 16.019 3 18.5C3 20.981 5.019 23 7.5 23C9.81 23 11.697 21.244 11.949 19H15.5C15.584 19 15.669 18.979 15.748 18.934C15.749 18.934 15.749 18.933 15.749 18.933C15.752 18.931 15.754 18.928 15.757 18.926C15.825 18.885 15.876 18.829 15.916 18.766C15.921 18.759 15.93 18.755 15.934 18.748L19.436 12.62L20.287 14.606C18.929 15.381 18 16.827 18 18.5C18 20.981 20.019 23 22.5 23C24.981 23 27 20.981 27 18.5C27 16.019 24.981 14 22.5 14ZM11.5 12.508L14.638 18H11.949C11.805 16.719 11.135 15.603 10.145 14.878L11.5 12.508ZM10.949 18H8.362L9.645 15.755C10.338 16.298 10.817 17.089 10.949 18ZM7.5 22C5.57 22 4 20.43 4 18.5C4 16.57 5.57 15 7.5 15C7.953 15 8.383 15.093 8.781 15.251L7.066 18.252C6.978 18.407 6.978 18.597 7.067 18.751C7.157 18.905 7.322 19 7.5 19H10.949C10.704 20.692 9.258 22 7.5 22ZM15.5 17.492L12.362 12H18.639L15.5 17.492ZM22.5 22C20.57 22 19 20.43 19 18.5C19 17.239 19.677 16.141 20.681 15.524L22.041 18.696C22.122 18.887 22.306 19 22.5 19C22.566 19 22.633 18.987 22.697 18.959C22.951 18.85 23.069 18.556 22.96 18.303L21.6 15.132C21.889 15.055 22.187 15 22.5 15C24.43 15 26 16.57 26 18.5C26 20.43 24.43 22 22.5 22Z" fill="#272625"/>
</svg>
