<svg width="30" height="30" viewBox="0 0 30 30" fill="none" xmlns="http://www.w3.org/2000/svg">
<path fill-rule="evenodd" clip-rule="evenodd" d="M24.244 18.498C25.623 18.798 26.672 19.913 26.933 21.265C26.972 21.336 27 21.413 27 21.5C27 21.5385 26.9897 21.5734 26.9792 21.609C26.9775 21.615 26.9757 21.621 26.974 21.627C26.9769 21.6581 26.9806 21.6889 26.9843 21.7198C26.9921 21.7853 27 21.8507 27 21.918V24.5C27 24.776 26.776 25 26.5 25H3.5C3.224 25 3 24.776 3 24.5V9.5C3 9.224 3.224 9 3.5 9H10V8.5C10 6.537 11.098 5 12.5 5C12.776 5 13 5.224 13 5.5V9.425C13.133 9.844 13.262 10.262 13.388 10.68C13.848 12.193 14.283 13.622 14.99 14.986C15.282 15.547 15.646 15.969 16.167 16.353C16.809 16.825 17.513 17.027 18.177 17.173C20.198 17.617 22.221 18.059 24.244 18.498ZM23 21H25.817C25.514 20.245 24.857 19.654 24.031 19.474C23.809 19.4262 23.5874 19.3777 23.3657 19.329C23.2439 19.3023 23.122 19.2756 23 19.249V21ZM12 6.148C11.424 6.501 11 7.436 11 8.5V9H12V6.148ZM10 10.5V10H4V21H22V19.032C21.5514 18.934 21.1029 18.8363 20.6543 18.7385C19.7569 18.5429 18.8594 18.3474 17.962 18.15C17.226 17.988 16.368 17.743 15.573 17.158C15.321 16.972 15.102 16.771 14.9 16.558L13.659 16.974C13.606 16.992 13.553 17 13.5 17C13.291 17 13.096 16.868 13.027 16.661C12.939 16.399 13.079 16.116 13.341 16.028L14.263 15.718C14.2475 15.6921 14.2317 15.6666 14.2159 15.6411C14.1769 15.5778 14.1379 15.5147 14.103 15.447C13.913 15.08 13.741 14.707 13.583 14.331L11.659 14.975C11.606 14.992 11.553 15 11.5 15C11.291 15 11.096 14.868 11.026 14.66C10.939 14.397 11.079 14.114 11.341 14.026L13.222 13.396C13.083 13.016 12.953 12.634 12.831 12.253L10.657 12.975C10.605 12.992 10.552 13 10.5 13C10.29 13 10.095 12.867 10.025 12.657C9.938 12.396 10.08 12.112 10.343 12.025L12.533 11.298C12.5118 11.228 12.4902 11.1576 12.4687 11.0876C12.4568 11.0486 12.4448 11.0097 12.433 10.971C12.4143 10.9099 12.3957 10.8488 12.3771 10.7878C12.2969 10.5249 12.2168 10.2621 12.134 10H11V10.5C11 10.776 10.776 11 10.5 11C10.224 11 10 10.776 10 10.5ZM19 24V22H4V24H19ZM20 22V24H26V22H20ZM10 17.5C10 18.879 8.879 20 7.5 20C6.121 20 5 18.879 5 17.5C5 16.121 6.121 15 7.5 15C8.879 15 10 16.121 10 17.5ZM9 17.5C9 16.673 8.327 16 7.5 16C6.673 16 6 16.673 6 17.5C6 18.327 6.673 19 7.5 19C8.327 19 9 18.327 9 17.5Z" fill="#272625"/>
</svg>
