<svg width="30" height="30" viewBox="0 0 30 30" fill="none" xmlns="http://www.w3.org/2000/svg">
<path fill-rule="evenodd" clip-rule="evenodd" d="M25.5 8H19V6.5C19 5.673 18.327 5 17.5 5H12.5C11.673 5 11 5.673 11 6.5V8H4.5C3.673 8 3 8.673 3 9.5V15.5C3 15.701 3.121 15.883 3.306 15.961C3.53 16.055 3.766 16.142 4 16.23V22.5C4 23.327 4.673 24 5.5 24H24.5C25.327 24 26 23.327 26 22.5V16.23C26.234 16.142 26.47 16.056 26.694 15.961C26.879 15.883 27 15.701 27 15.5V9.5C27 8.673 26.327 8 25.5 8ZM12 6.5C12 6.224 12.224 6 12.5 6H17.5C17.776 6 18 6.224 18 6.5V8H12V6.5ZM25 22.5C25 22.776 24.776 23 24.5 23H5.5C5.224 23 5 22.776 5 22.5V16.578C7.326 17.327 10.047 17.794 13 17.943V18.5C13 18.776 13.224 19 13.5 19H16.5C16.776 19 17 18.776 17 18.5V17.943C19.953 17.794 22.674 17.328 25 16.578V22.5ZM14 18V17H16V18H14ZM26 15.165C25.777 15.254 25.54 15.336 25.305 15.42C22.961 16.251 20.073 16.782 17 16.942V16.5C17 16.224 16.776 16 16.5 16H13.5C13.224 16 13 16.224 13 16.5V16.942C9.927 16.781 7.038 16.251 4.695 15.42C4.46 15.336 4.223 15.254 4 15.165V9.5C4 9.224 4.224 9 4.5 9H25.5C25.776 9 26 9.224 26 9.5V15.165Z" fill="#272625"/>
</svg>
