<svg width="30" height="30" viewBox="0 0 30 30" fill="none" xmlns="http://www.w3.org/2000/svg">
<path fill-rule="evenodd" clip-rule="evenodd" d="M23 6H26.5C26.776 6 27 6.224 27 6.5V25.5C27 25.776 26.776 26 26.5 26H3.5C3.224 26 3 25.776 3 25.5V6.5C3 6.224 3.224 6 3.5 6H7V4.5C7 4.224 7.224 4 7.5 4C7.776 4 8 4.224 8 4.5V6H12V4.5C12 4.224 12.224 4 12.5 4C12.776 4 13 4.224 13 4.5V6H17V4.5C17 4.224 17.224 4 17.5 4C17.776 4 18 4.224 18 4.5V6H22V4.5C22 4.224 22.224 4 22.5 4C22.776 4 23 4.224 23 4.5V6ZM7 7.5V7H4V10H26V7H23V7.5C23 7.776 22.776 8 22.5 8C22.224 8 22 7.776 22 7.5V7H18V7.5C18 7.776 17.776 8 17.5 8C17.224 8 17 7.776 17 7.5V7H13V7.5C13 7.776 12.776 8 12.5 8C12.224 8 12 7.776 12 7.5V7H8V7.5C8 7.776 7.776 8 7.5 8C7.224 8 7 7.776 7 7.5ZM4 11V25H26V11H4ZM19.0332 17.5H20.5002C20.7762 17.5 21.0002 17.724 21.0002 18C21.0002 18.276 20.7762 18.5 20.5002 18.5H19.0332C18.7572 18.5 18.5332 18.276 18.5332 18C18.5332 17.724 18.7572 17.5 19.0332 17.5ZM15 15C13.346 15 12 16.346 12 18C12 19.654 13.346 21 15 21C16.654 21 18 19.654 18 18C18 16.346 16.654 15 15 15ZM15 20C13.897 20 13 19.103 13 18C13 16.897 13.897 16 15 16C16.103 16 17 16.897 17 18C17 19.103 16.103 20 15 20ZM15.5 13.967C15.5 14.243 15.276 14.467 15 14.467C14.724 14.467 14.5 14.243 14.5 13.967V12.5C14.5 12.224 14.724 12 15 12C15.276 12 15.5 12.224 15.5 12.5V13.967ZM15 21.533C14.724 21.533 14.5 21.757 14.5 22.033V23.5C14.5 23.776 14.724 24 15 24C15.276 24 15.5 23.776 15.5 23.5V22.033C15.5 21.757 15.276 21.533 15 21.533ZM10.967 17.5C11.243 17.5 11.467 17.724 11.467 18C11.467 18.276 11.243 18.5 10.967 18.5H9.5C9.224 18.5 9 18.276 9 18C9 17.724 9.224 17.5 9.5 17.5H10.967ZM11.7955 15.501C11.8935 15.599 12.0215 15.647 12.1495 15.647C12.2775 15.647 12.4055 15.598 12.5035 15.501C12.6985 15.306 12.6985 14.989 12.5035 14.794L11.4665 13.757C11.2715 13.562 10.9545 13.562 10.7595 13.757C10.5645 13.952 10.5645 14.269 10.7595 14.464L11.7955 15.501ZM17.4978 20.499C17.6928 20.304 18.0098 20.304 18.2048 20.499L19.2428 21.536C19.4378 21.731 19.4378 22.048 19.2428 22.243C19.1448 22.34 19.0168 22.389 18.8888 22.389C18.7608 22.389 18.6328 22.341 18.5348 22.243L17.4978 21.206C17.3028 21.011 17.3028 20.694 17.4978 20.499ZM17.8528 15.648C17.9808 15.648 18.1088 15.599 18.2068 15.502L19.2438 14.465C19.4388 14.27 19.4388 13.953 19.2438 13.758C19.0488 13.563 18.7318 13.563 18.5368 13.758L17.4998 14.795C17.3048 14.99 17.3048 15.307 17.4998 15.502C17.5968 15.599 17.7248 15.648 17.8528 15.648ZM10.7576 21.536L11.7946 20.499C11.9896 20.303 12.3076 20.304 12.5026 20.499C12.6976 20.694 12.6976 21.011 12.5026 21.206L11.4656 22.243C11.3676 22.34 11.2396 22.389 11.1116 22.389C10.9836 22.389 10.8556 22.341 10.7576 22.243C10.5626 22.048 10.5626 21.731 10.7576 21.536Z" fill="#272625"/>
</svg>
