<svg width="30" height="30" viewBox="0 0 30 30" fill="none" xmlns="http://www.w3.org/2000/svg">
<path fill-rule="evenodd" clip-rule="evenodd" d="M15.0499 4.23222C15.4633 3.37793 16.2228 2.5 17.5 2.5C17.7761 2.5 18 2.72386 18 3C18 3.27614 17.7761 3.5 17.5 3.5C16.7772 3.5 16.2867 3.97207 15.9501 4.66778C15.728 5.12664 15.6035 5.62897 15.5441 6.01455C19.8013 6.24284 23.3513 9.1338 24.5583 13.0519C25.9484 13.3135 27 14.5339 27 16C27 17.4661 25.9484 18.6865 24.5583 18.9481C23.3002 23.032 19.4967 26 15 26C10.5033 26 6.69982 23.032 5.44167 18.9481C4.05162 18.6865 3 17.4661 3 16C3 14.5339 4.05162 13.3135 5.44167 13.0519C6.62666 9.20546 10.0696 6.34893 14.223 6.02974C14.178 5.98548 14.1266 5.9402 14.068 5.89468C13.763 5.6574 13.3682 5.5 13 5.5C12.7239 5.5 12.5 5.27614 12.5 5C12.5 4.72386 12.7239 4.5 13 4.5C13.6318 4.5 14.237 4.75926 14.682 5.10533C14.6927 5.11369 14.7035 5.12217 14.7142 5.13075C14.7968 4.8356 14.9068 4.52792 15.0499 4.23222ZM14.9983 7H15C19.0455 7 22.4701 9.66997 23.6027 13.3463L23.7803 13.923L24.3734 14.0346C25.2995 14.2089 26 15.0237 26 16C26 16.9763 25.2995 17.7911 24.3734 17.9654L23.7803 18.077L23.6027 18.6537C22.4701 22.33 19.0455 25 15 25C10.9545 25 7.52993 22.33 6.39735 18.6537L6.21968 18.077L5.62664 17.9654C4.70051 17.7911 4 16.9763 4 16C4 15.0237 4.70051 14.2089 5.62664 14.0346L6.21968 13.923L6.39735 13.3463C7.52978 9.67047 10.9535 7.00073 14.9983 7ZM10.7226 19.584C10.951 19.4317 11.259 19.4921 11.4131 19.7184L11.4152 19.7212C11.4187 19.7259 11.426 19.7357 11.4374 19.7498C11.4603 19.7781 11.4994 19.8236 11.5567 19.8808C11.671 19.9951 11.8578 20.1566 12.1322 20.3212C12.6772 20.6482 13.5879 21 15 21C16.4121 21 17.3228 20.6482 17.8677 20.3212C18.1422 20.1566 18.329 19.9951 18.4433 19.8808C18.5005 19.8236 18.5397 19.7781 18.5625 19.7498C18.574 19.7357 18.5813 19.7259 18.5848 19.7212L18.5868 19.7184C18.741 19.4921 19.049 19.4317 19.2773 19.584C19.5071 19.7371 19.5692 20.0476 19.416 20.2773L19 20C19.416 20.2773 19.4158 20.2776 19.4156 20.2779L19.4152 20.2785L19.4143 20.2799L19.4122 20.283L19.4069 20.2907C19.4027 20.2966 19.3975 20.3039 19.3912 20.3125C19.3786 20.3297 19.3616 20.3521 19.3398 20.379C19.2962 20.4328 19.2338 20.5045 19.1504 20.5879C18.9835 20.7548 18.7328 20.9684 18.3822 21.1787C17.6772 21.6018 16.5879 22 15 22C13.4121 22 12.3228 21.6018 11.6177 21.1787C11.2672 20.9684 11.0165 20.7548 10.8496 20.5879C10.7662 20.5045 10.7037 20.4328 10.6602 20.379C10.6384 20.3521 10.6214 20.3297 10.6088 20.3125C10.6024 20.3039 10.5972 20.2966 10.5931 20.2907L10.5878 20.283L10.5857 20.2799L10.5848 20.2785L10.5844 20.2779C10.5842 20.2776 10.584 20.2773 11 20L10.584 20.2773C10.4308 20.0476 10.4929 19.7371 10.7226 19.584ZM8.77639 15.9472C8.5294 15.8237 8.42929 15.5234 8.55278 15.2764L9 15.5C8.55278 15.2764 8.5529 15.2762 8.55301 15.2759L8.55327 15.2754L8.55385 15.2743L8.55531 15.2714L8.55938 15.2635L8.5722 15.2394C8.58283 15.2198 8.59766 15.1933 8.61673 15.1611C8.65477 15.0969 8.71016 15.0094 8.78313 14.9091C8.92766 14.7103 9.1487 14.451 9.45 14.225C9.75305 13.9977 10.1457 13.7982 10.6255 13.7382C11.109 13.6778 11.6453 13.7637 12.2236 14.0528C12.4706 14.1763 12.5707 14.4766 12.4472 14.7236C12.3237 14.9706 12.0234 15.0707 11.7764 14.9472C11.3546 14.7364 11.016 14.6972 10.7495 14.7305C10.4793 14.7643 10.2469 14.8773 10.05 15.025C9.8513 15.174 9.69734 15.3522 9.59187 15.4972C9.53983 15.5688 9.50147 15.6297 9.47702 15.6709C9.46483 15.6915 9.45623 15.707 9.45123 15.7162L9.44678 15.7245L9.44651 15.725L9.44619 15.7257C9.32206 15.9712 9.0227 16.0704 8.77639 15.9472ZM21.4472 15.2764C21.5707 15.5234 21.4706 15.8237 21.2236 15.9472C20.9773 16.0704 20.6779 15.9711 20.5538 15.7256C20.5535 15.725 20.5532 15.7245 20.553 15.724L20.5532 15.7244L20.5488 15.7162C20.5438 15.707 20.5352 15.6915 20.523 15.6709C20.4985 15.6297 20.4602 15.5688 20.4081 15.4972C20.3027 15.3522 20.1487 15.174 19.95 15.025C19.7531 14.8773 19.5207 14.7643 19.2505 14.7305C18.984 14.6972 18.6454 14.7364 18.2236 14.9472C17.9766 15.0707 17.6763 14.9706 17.5528 14.7236C17.4293 14.4766 17.5294 14.1763 17.7764 14.0528C18.3547 13.7637 18.891 13.6778 19.3745 13.7382C19.8543 13.7982 20.247 13.9977 20.55 14.225C20.8513 14.451 21.0723 14.7103 21.2169 14.9091C21.2898 15.0094 21.3452 15.0969 21.3833 15.1611C21.4023 15.1933 21.4172 15.2198 21.4278 15.2394L21.4406 15.2635L21.4447 15.2714L21.4461 15.2743L21.4467 15.2754L21.447 15.2759C21.4471 15.2762 21.4472 15.2764 21 15.5L21.4472 15.2764Z" fill="#272625"/>
</svg>
