<svg width="30" height="30" viewBox="0 0 30 30" fill="none" xmlns="http://www.w3.org/2000/svg">
<path fill-rule="evenodd" clip-rule="evenodd" d="M7.00025 14C6.86725 14 6.74025 13.947 6.64625 13.854L3.64625 10.853C3.45125 10.658 3.45125 10.341 3.64625 10.146L6.64625 7.146C6.74025 7.053 6.86725 7 7.00025 7H14.5002V5.908C13.9192 5.701 13.5002 5.151 13.5002 4.5C13.5002 3.673 14.1733 3 15.0002 3C15.8272 3 16.5002 3.673 16.5002 4.5C16.5002 5.151 16.0813 5.701 15.5002 5.908V7.5V10H23.0002C23.1332 10 23.2603 10.053 23.3542 10.147L26.3542 13.147C26.5492 13.342 26.5492 13.659 26.3542 13.854L23.3542 16.854C23.2603 16.947 23.1332 17 23.0002 17H15.5002V24H18.0002C19.3263 24 20.4142 25.038 20.4963 26.344C20.5123 26.393 20.5203 26.445 20.5203 26.5C20.5203 26.776 20.2962 27 20.0203 27H20.0002H10.0002C9.72425 27 9.50025 26.776 9.50025 26.5C9.50025 25.122 10.6212 24 12.0002 24H14.5002V16.5V14H7.00025ZM12.0002 25C11.3482 25 10.7922 25.418 10.5862 26H19.4142C19.2083 25.418 18.6523 25 18.0002 25H12.0002ZM25.2932 13.5L22.7932 11H15.5002V13.5V16H22.7932L25.2932 13.5ZM15.5002 4.5C15.5002 4.224 15.2752 4 15.0002 4C14.7253 4 14.5002 4.224 14.5002 4.5C14.5002 4.776 14.7253 5 15.0002 5C15.2752 5 15.5002 4.776 15.5002 4.5ZM14.5002 8H7.20725L4.70725 10.5L7.20725 13H14.5002V10.5V8ZM13 10H8C7.724 10 7.5 9.776 7.5 9.5C7.5 9.224 7.724 9 8 9H13C13.276 9 13.5 9.224 13.5 9.5C13.5 9.776 13.276 10 13 10ZM17 13H22C22.276 13 22.5 12.776 22.5 12.5C22.5 12.224 22.276 12 22 12H17C16.724 12 16.5 12.224 16.5 12.5C16.5 12.776 16.724 13 17 13ZM22 15H17C16.724 15 16.5 14.776 16.5 14.5C16.5 14.224 16.724 14 17 14H22C22.276 14 22.5 14.224 22.5 14.5C22.5 14.776 22.276 15 22 15Z" fill="#272625"/>
</svg>
