<svg width="30" height="30" viewBox="0 0 30 30" fill="none" xmlns="http://www.w3.org/2000/svg">
<path fill-rule="evenodd" clip-rule="evenodd" d="M23.5009 3.00008C23.3445 3.0027 23.1975 3.07412 23.0995 3.19496L20.9135 5.89215C20.7336 5.60835 20.519 5.34061 20.2631 5.08694C19.2518 4.0844 16.783 3.56348 16.1241 4.91228C16.0747 5.01333 15.9761 5.08752 15.8637 5.07333C15.7757 5.06221 15.6821 5.04556 15.5851 5.02829C15.0257 4.92873 14.3509 4.80861 13.9474 5.60869C13.97 5.56383 13.9935 5.52187 14.0177 5.48263L12.1636 3.19496C12.0657 3.07412 11.9186 3.0027 11.7622 3.00008C11.6059 2.99745 11.4565 3.06387 11.3544 3.18136C10.82 3.7968 10.1917 4.70523 10.2697 5.87394C10.2911 6.19401 10.3644 6.52052 10.4968 6.85375C10.188 7.13484 9.88161 7.4571 9.5909 7.81316C8.53081 9.11157 7.63159 10.9195 7.63159 12.913C7.63159 15.3119 8.18601 16.7405 8.72718 17.9856C8.76424 18.0708 8.80103 18.1549 8.83743 18.238C9.32302 19.347 9.73685 20.2921 9.73685 21.7826C9.73685 22.2082 9.56221 22.6272 9.23758 23.0452C8.91128 23.4653 8.45341 23.8577 7.94218 24.2153C7.4335 24.5711 6.89159 24.8791 6.41054 25.1374C6.2554 25.2207 6.1011 25.3016 5.95511 25.3781C5.6691 25.5279 5.41499 25.6611 5.24898 25.7631C5.0659 25.8757 4.97048 26.0874 5.00812 26.2977C5.04575 26.508 5.20885 26.6743 5.41981 26.7175C8.3361 27.315 11.0735 26.8985 13.0927 26.0861C13.5428 25.905 13.9608 25.7028 14.3395 25.4854C15.1429 26.1138 16.2469 26.4783 17.6316 26.4783C21.2753 26.4783 22.9757 23.9542 22.3684 20.7391C22.2329 20.0219 22.6983 19.362 23.2738 18.5459C24.0394 17.4601 25 16.0979 25 13.9565C25 11.8018 24.3325 10.1144 23.235 8.90679C24.4078 7.83377 24.9298 6.82545 24.9934 5.87394C25.0715 4.70523 24.4431 3.7968 23.9087 3.18136C23.8067 3.06387 23.6572 2.99745 23.5009 3.00008ZM13.7395 6.80541L11.7628 4.3664C11.4744 4.79922 11.2847 5.27481 11.3201 5.80499C11.3606 6.41214 11.7064 7.21026 12.7979 8.19098C13.1258 7.9334 13.4789 7.70786 13.853 7.51459C13.7937 7.27301 13.7545 7.0352 13.7395 6.80541ZM14.1987 8.51535C13.8163 8.72639 13.4654 8.97638 13.1514 9.26321C12.0553 10.2646 11.3158 11.7988 11.3158 13.9565C11.3158 15.524 11.917 16.5909 12.5681 17.5414C12.6461 17.6551 12.7308 17.7753 12.8182 17.8991C13.0703 18.2566 13.3444 18.6452 13.5407 19.0017C13.8234 19.5152 14.0729 20.1714 13.9294 20.9312C13.6661 22.3253 13.9253 23.436 14.5022 24.1765C15.0667 24.9013 16.0628 25.4348 17.6316 25.4348C19.2003 25.4348 20.1964 24.9013 20.761 24.1765C21.3379 23.436 21.5971 22.3253 21.3338 20.9312C21.1902 20.1714 21.4397 19.5152 21.7224 19.0017C21.9188 18.6452 22.1929 18.2566 22.445 17.8991C22.5323 17.7753 22.6171 17.6551 22.695 17.5414C23.3462 16.5909 23.9473 15.524 23.9473 13.9565C23.9473 11.7988 23.2078 10.2646 22.1117 9.26321C22.0052 9.16588 21.8944 9.07279 21.7796 8.98403C21.8227 9.55163 21.8368 10.1638 21.8407 10.8261C21.8424 11.1142 21.6064 11.3503 21.3158 11.3442C20.3953 11.3246 19.5013 11.2011 17.8684 10.4197C17.7375 10.3571 17.578 10.409 17.5184 10.5404C17.3843 10.8358 17.3017 11.0819 17.2512 11.2788C17.1725 11.5854 16.8892 11.8334 16.6198 11.6639C15.8414 11.174 14.7943 9.87693 14.1987 8.51535ZM21.5907 7.61131C21.8983 7.78196 22.1906 7.97523 22.4652 8.19098C23.5567 7.21026 23.9025 6.41214 23.9431 5.80499C23.9785 5.27481 23.7888 4.79922 23.5004 4.3664L21.4094 6.9463C21.4809 7.1598 21.5407 7.38127 21.5907 7.61131ZM13.5878 24.7063C12.8463 23.6825 12.6015 22.2913 12.8947 20.7391C13.0302 20.0219 12.5649 19.362 11.9894 18.5459C11.2237 17.4601 10.2632 16.0979 10.2632 13.9565C10.2632 11.8018 10.9307 10.1144 12.0282 8.90679C11.6153 8.52908 11.2831 8.15938 11.0232 7.79735C10.8164 7.99911 10.6096 8.22403 10.4091 8.46963C9.45167 9.64232 8.68422 11.2257 8.68422 12.913C8.68422 15.1151 9.18243 16.396 9.69389 17.5727C9.73216 17.6607 9.7707 17.7486 9.80929 17.8365L9.80937 17.8366C10.2963 18.9462 10.7895 20.0698 10.7895 21.7826C10.7895 22.5072 10.489 23.1444 10.0716 23.6818C9.656 24.2169 9.10509 24.6789 8.54907 25.0679C8.08502 25.3925 7.60353 25.6757 7.17012 25.9145C9.2789 26.0854 11.2111 25.717 12.6968 25.1192C13.0175 24.9902 13.3153 24.8514 13.5878 24.7063ZM16.5225 10.1927C16.5342 10.1662 16.5462 10.1393 16.5585 10.1122C16.8775 9.40942 17.698 9.17948 18.326 9.48C19.4678 10.0263 20.1727 10.2071 20.7813 10.2695C20.7383 8.04459 20.4967 6.79418 19.5188 5.82479C19.212 5.52064 18.5804 5.22183 17.9503 5.1555C17.2809 5.08504 17.1068 5.29471 17.0714 5.36709C16.895 5.72832 16.4324 6.19708 15.7307 6.10844C15.6278 6.09545 15.5268 6.07796 15.4449 6.06348L15.3949 6.0546C15.3288 6.04285 15.2732 6.03297 15.2155 6.02393C15.0718 6.00146 14.9901 5.99741 14.9391 6.00123L14.9328 6.00176C14.9226 6.01544 14.9074 6.03861 14.8889 6.07535C14.7955 6.26044 14.7457 6.56447 14.8242 7.02186C14.9015 7.4722 15.0901 7.98837 15.3624 8.51443C15.7065 9.17911 16.1343 9.76777 16.5225 10.1927ZM14.9474 5.98491C14.9475 5.98498 14.9466 5.98586 14.9448 5.98733C14.9465 5.98557 14.9474 5.98484 14.9474 5.98491ZM15.5789 14.4783C15.5789 14.7822 15.328 15.0435 15 15.0435C14.672 15.0435 14.4211 14.7822 14.4211 14.4783C14.4211 14.1743 14.672 13.913 15 13.913C15.328 13.913 15.5789 14.1743 15.5789 14.4783ZM16.5789 14.4783C16.5789 15.3427 15.872 16.0435 15 16.0435C14.128 16.0435 13.4211 15.3427 13.4211 14.4783C13.4211 13.6138 14.128 12.913 15 12.913C15.872 12.913 16.5789 13.6138 16.5789 14.4783ZM20.8421 14.4783C20.8421 14.7822 20.5911 15.0435 20.2631 15.0435C19.9351 15.0435 19.6842 14.7822 19.6842 14.4783C19.6842 14.1743 19.9351 13.913 20.2631 13.913C20.5911 13.913 20.8421 14.1743 20.8421 14.4783ZM21.8421 14.4783C21.8421 15.3427 21.1352 16.0435 20.2631 16.0435C19.3911 16.0435 18.6842 15.3427 18.6842 14.4783C18.6842 13.6138 19.3911 12.913 20.2631 12.913C21.1352 12.913 21.8421 13.6138 21.8421 14.4783ZM15.6975 20.9089C15.8919 20.7128 16.2085 20.7114 16.4046 20.9058C17.0792 21.5745 17.0791 22.2783 17.0789 22.806L17.0789 22.8261C17.0789 23.1022 16.8551 23.3261 16.5789 23.3261C16.3028 23.3261 16.0789 23.1022 16.0789 22.8261C16.0789 22.3124 16.0701 21.9822 15.7006 21.616C15.5045 21.4216 15.5031 21.105 15.6975 20.9089ZM18.8585 20.9058C19.0546 20.7114 19.3712 20.7128 19.5656 20.9089C19.76 21.105 19.7586 21.4216 19.5625 21.616C19.193 21.9822 19.1842 22.3124 19.1842 22.8261C19.1842 23.1022 18.9603 23.3261 18.6842 23.3261C18.4081 23.3261 18.1842 23.1022 18.1842 22.8261L18.1842 22.806C18.1841 22.2783 18.1839 21.5745 18.8585 20.9058Z" fill="#272625"/>
</svg>
