<svg width="30" height="30" viewBox="0 0 30 30" fill="none" xmlns="http://www.w3.org/2000/svg">
<path fill-rule="evenodd" clip-rule="evenodd" d="M24.4023 3.14625C24.2073 2.95125 23.8902 2.95125 23.6952 3.14625L21.6532 5.18825C21.2312 5.61025 20.9993 6.17125 20.9993 6.76725C20.9993 7.19325 21.1222 7.59825 21.3433 7.94925L19.5123 9.78025C18.7163 5.73925 17.0173 3.00025 14.9993 3.00025C12.1953 3.00025 9.99925 8.27125 9.99925 15.0002C9.99925 16.4152 10.1013 17.7602 10.2812 19.0112L7.94525 21.3472C7.09025 20.8312 5.91125 20.9303 5.18825 21.6532L3.14625 23.6952C2.95125 23.8902 2.95125 24.2073 3.14625 24.4023L5.59725 26.8533C5.69425 26.9513 5.82225 27.0002 5.95025 27.0002C6.07825 27.0002 6.20625 26.9513 6.30425 26.8542L8.34625 24.8123C8.76725 24.3902 8.99925 23.8293 8.99925 23.2332C8.99925 22.8072 8.87625 22.4023 8.65525 22.0513L10.4862 20.2202C11.2822 24.2612 12.9813 27.0002 14.9993 27.0002C17.8033 27.0002 19.9993 21.7292 19.9993 15.0002C19.9993 13.5852 19.8973 12.2403 19.7173 10.9893L22.0502 8.65625C22.4012 8.87725 22.8062 9.00025 23.2323 9.00025C23.8283 9.00025 24.3892 8.76825 24.8113 8.34625L26.8533 6.30425C27.0483 6.10925 27.0483 5.79225 26.8533 5.59725L24.4023 3.14625ZM7.63825 24.1043L5.95025 25.7923L4.20625 24.0483L5.89425 22.3603C6.35825 21.8963 7.16425 21.8963 7.63125 22.3553C7.63325 22.3573 7.63425 22.3603 7.63625 22.3623C7.63825 22.3643 7.64125 22.3653 7.64325 22.3673C7.87225 22.6003 7.99925 22.9063 7.99925 23.2333C7.99925 23.5623 7.87125 23.8723 7.63825 24.1043ZM10.9992 15.0002C10.9992 8.51825 13.1073 4.00025 14.9993 4.00025C16.4292 4.00025 17.9803 6.58125 18.6543 10.6382L17.2522 12.0402C16.7013 11.4082 15.9012 11.0002 14.9993 11.0002C13.3453 11.0002 11.9993 12.3462 11.9993 14.0002V16.0002C11.9993 16.3833 12.0782 16.7463 12.2092 17.0833L11.1742 18.1182C11.0642 17.1423 10.9992 16.1023 10.9992 15.0002ZM16.9993 14.0002V16.0002C16.9993 17.1033 16.1023 18.0002 14.9993 18.0002C14.3733 18.0002 13.8202 17.7052 13.4532 17.2533L16.9722 13.7343C16.9843 13.8223 16.9993 13.9093 16.9993 14.0002ZM13.0263 16.2662C13.0143 16.1782 12.9993 16.0912 12.9993 16.0002V14.0002C12.9993 12.8973 13.8963 12.0002 14.9993 12.0002C15.6253 12.0002 16.1783 12.2952 16.5452 12.7472L13.0263 16.2662ZM18.9993 15.0002C18.9993 21.4823 16.8912 26.0002 14.9992 26.0002C13.5693 26.0002 12.0182 23.4193 11.3442 19.3622L12.7463 17.9602C13.2972 18.5922 14.0972 19.0002 14.9992 19.0002C16.6532 19.0002 17.9993 17.6543 17.9993 16.0002V14.0002C17.9993 13.6172 17.9202 13.2542 17.7892 12.9172L18.8242 11.8822C18.9342 12.8582 18.9993 13.8982 18.9993 15.0002ZM24.1033 7.63925C23.6392 8.10325 22.8333 8.10325 22.3663 7.64425C22.3643 7.64225 22.3633 7.63925 22.3612 7.63725C22.3593 7.63525 22.3563 7.63425 22.3542 7.63225C22.1263 7.40025 21.9993 7.09425 21.9993 6.76725C21.9993 6.43825 22.1273 6.12825 22.3603 5.89525L24.0483 4.20725L25.7922 5.95125L24.1033 7.63925Z" fill="#272625"/>
</svg>
