<svg width="30" height="30" viewBox="0 0 30 30" fill="none" xmlns="http://www.w3.org/2000/svg">
<path fill-rule="evenodd" clip-rule="evenodd" d="M4 10C3.44772 10 3 9.5523 3 9.00001V5.00001C3 4.44772 3.44771 4.00001 3.99999 4.00001L4.99999 4C5.55228 4 6 4.44771 6 5V9.00001C6 9.5523 5.55228 10 5 10V24H5.5C5.77614 24 6 24.2239 6 24.5C6 24.7761 5.77614 25 5.5 25H5V25.5C5 25.7761 4.77614 26 4.5 26C4.22386 26 4 25.7761 4 25.5V25H3.5C3.22386 25 3 24.7761 3 24.5C3 24.2239 3.22386 24 3.5 24H4V10ZM4 5.00001L5 5V9.00001H4L4 5.00001ZM25 10C24.4477 10 24 9.5523 24 9.00001V5.00001C24 4.44772 24.4477 4.00001 25 4.00001L26 4C26.5523 4 27 4.44771 27 5V9.00001C27 9.5523 26.5523 10 26 10V24H26.5C26.7761 24 27 24.2239 27 24.5C27 24.7761 26.7761 25 26.5 25H26V25.5C26 25.7761 25.7761 26 25.5 26C25.2239 26 25 25.7761 25 25.5V25H24.5C24.2239 25 24 24.7761 24 24.5C24 24.2239 24.2239 24 24.5 24H25V10ZM25 5.00001L26 5V9.00001H25V5.00001ZM20.2988 8.71414C20.1608 8.95329 19.855 9.03522 19.6158 8.89715L17.8838 7.89715C17.6446 7.75908 17.5627 7.45329 17.7008 7.21414C17.8388 6.97499 18.1446 6.89306 18.3838 7.03113L20.1158 8.03113C20.355 8.1692 20.4369 8.47499 20.2988 8.71414ZM11.1158 23.6196C11.355 23.7576 11.6608 23.6757 11.7988 23.4366C11.9369 23.1974 11.855 22.8916 11.6158 22.7535L9.88376 21.7535C9.64462 21.6155 9.33882 21.6974 9.20075 21.9366C9.06268 22.1757 9.14462 22.4815 9.38376 22.6196L11.1158 23.6196ZM14.4224 19.8923L11.2318 25.4186L7.76775 23.4186L12.113 15.8923L11.5357 14.8923L6.90172 22.9186C6.62558 23.3969 6.78945 24.0085 7.26775 24.2846L10.7318 26.2846C11.2101 26.5608 11.8217 26.3969 12.0979 25.9186L14.9998 20.8923L14.4224 19.8923ZM18.4642 14.8918L23.0985 22.9186C23.3746 23.3969 23.2108 24.0085 22.7325 24.2846L19.2684 26.2846C18.7901 26.5608 18.1785 26.3969 17.9023 25.9186L7.90234 8.59808C7.07392 7.1632 7.56554 5.32843 9.00042 4.5C10.4353 3.67157 12.2701 4.1632 13.0985 5.59808L15.0001 8.89177L16.9017 5.5981C17.7301 4.16322 19.5649 3.67159 20.9998 4.50002C22.4347 5.32845 22.9263 7.16322 22.0979 8.5981L18.4642 14.8918ZM17.8869 13.8918L21.2318 8.0981C21.7841 7.14151 21.4564 5.91833 20.4998 5.36605C19.5432 4.81376 18.32 5.14151 17.7677 6.0981L15.5775 9.89177L17.8869 13.8918ZM12.2325 6.09808L22.2325 23.4186L18.7684 25.4186L8.76837 8.09808C8.21608 7.14149 8.54383 5.91831 9.50042 5.36603C10.457 4.81374 11.6802 5.14149 12.2325 6.09808ZM12.2988 7.21414C12.4369 7.45329 12.355 7.75908 12.1158 7.89715L10.3838 8.89715C10.1446 9.03522 9.83882 8.95329 9.70075 8.71414C9.56268 8.47499 9.64462 8.1692 9.88376 8.03113L11.6158 7.03113C11.855 6.89306 12.1608 6.97499 12.2988 7.21414ZM20.6158 22.6196C20.855 22.4815 20.9369 22.1757 20.7988 21.9366C20.6608 21.6974 20.355 21.6155 20.1158 21.7535L18.3838 22.7535C18.1446 22.8916 18.0627 23.1974 18.2008 23.4366C18.3388 23.6757 18.6446 23.7576 18.8838 23.6196L20.6158 22.6196Z" fill="#272625"/>
</svg>
