<svg width="30" height="30" viewBox="0 0 30 30" fill="none" xmlns="http://www.w3.org/2000/svg">
<path fill-rule="evenodd" clip-rule="evenodd" d="M4 15.5H7.349L5.723 16.584C5.494 16.737 5.431 17.048 5.584 17.277C5.681 17.422 5.839 17.5 6 17.5C6.096 17.5 6.192 17.473 6.277 17.416L9.151 15.5H13.793L10.511 18.782L7.124 19.459C6.853 19.513 6.677 19.776 6.731 20.047C6.786 20.319 7.06 20.493 7.319 20.44L9.236 20.057L6.868 22.425C6.673 22.62 6.673 22.937 6.868 23.132C6.966 23.23 7.094 23.278 7.222 23.278C7.35 23.278 7.478 23.229 7.576 23.132L9.944 20.764L9.56 22.68C9.505 22.951 9.681 23.215 9.952 23.269C9.985 23.276 10.018 23.279 10.052 23.279C10.285 23.279 10.493 23.115 10.541 22.878L11.219 19.49L14.5 16.207V20.849L12.584 23.723C12.431 23.952 12.493 24.263 12.723 24.416C12.952 24.568 13.262 24.508 13.416 24.277L14.5 22.651V26C14.5 26.276 14.724 26.5 15 26.5C15.276 26.5 15.5 26.276 15.5 26V22.651L16.584 24.277C16.681 24.422 16.839 24.5 17 24.5C17.096 24.5 17.192 24.473 17.277 24.416C17.506 24.263 17.569 23.952 17.416 23.723L15.5 20.849V16.207L18.782 19.489L19.459 22.876C19.507 23.114 19.715 23.278 19.948 23.278C19.981 23.278 20.014 23.275 20.047 23.268C20.318 23.214 20.494 22.951 20.44 22.68L20.057 20.763L22.425 23.131C22.523 23.229 22.651 23.277 22.779 23.277C22.907 23.277 23.035 23.228 23.133 23.131C23.328 22.936 23.328 22.619 23.133 22.424L20.765 20.056L22.682 20.439C22.941 20.493 23.215 20.319 23.27 20.046C23.325 19.775 23.149 19.512 22.877 19.458L19.49 18.781L16.207 15.5H20.849L23.723 17.416C23.808 17.473 23.904 17.5 24 17.5C24.161 17.5 24.319 17.422 24.416 17.277C24.569 17.048 24.507 16.737 24.277 16.584L22.651 15.5H26C26.276 15.5 26.5 15.276 26.5 15C26.5 14.724 26.276 14.5 26 14.5H22.651L24.277 13.416C24.506 13.263 24.569 12.952 24.416 12.723C24.262 12.493 23.949 12.432 23.723 12.584L20.849 14.5H16.207L19.489 11.218L22.876 10.541C23.147 10.487 23.323 10.224 23.269 9.953C23.214 9.681 22.939 9.504 22.681 9.56L20.764 9.943L23.132 7.575C23.327 7.38 23.327 7.063 23.132 6.868C22.937 6.673 22.62 6.673 22.425 6.868L20.057 9.236L20.44 7.319C20.495 7.048 20.319 6.785 20.047 6.731C19.787 6.676 19.514 6.851 19.459 7.124L18.782 10.511L15.5 13.793V9.151L17.416 6.277C17.569 6.048 17.507 5.737 17.277 5.584C17.049 5.433 16.738 5.492 16.584 5.723L15.5 7.349V4C15.5 3.724 15.276 3.5 15 3.5C14.724 3.5 14.5 3.724 14.5 4V7.349L13.416 5.723C13.261 5.492 12.95 5.432 12.723 5.584C12.493 5.737 12.431 6.048 12.584 6.277L14.5 9.151V13.793L11.218 10.511L10.54 7.123C10.485 6.852 10.217 6.677 9.951 6.731C9.681 6.785 9.505 7.049 9.56 7.32L9.944 9.236L7.575 6.868C7.38 6.673 7.063 6.673 6.868 6.868C6.673 7.063 6.673 7.38 6.868 7.575L9.236 9.943L7.319 9.561C7.06 9.504 6.786 9.681 6.731 9.954C6.677 10.224 6.853 10.487 7.124 10.541L10.511 11.218L13.793 14.5H9.151L6.277 12.584C6.048 12.433 5.738 12.492 5.584 12.723C5.431 12.952 5.493 13.263 5.723 13.416L7.349 14.5H4C3.724 14.5 3.5 14.724 3.5 15C3.5 15.276 3.724 15.5 4 15.5Z" fill="#272625"/>
</svg>
