<svg width="30" height="30" viewBox="0 0 30 30" fill="none" xmlns="http://www.w3.org/2000/svg">
<path fill-rule="evenodd" clip-rule="evenodd" d="M22.333 9.874L21.561 10.646C23.368 12.376 24.5 14.806 24.5 17.5C24.5 22.738 20.238 27 15 27C9.762 27 5.5 22.738 5.5 17.5C5.5 13.27 8.281 9.679 12.109 8.453C11.723 7.889 11.5 7.214 11.5 6.5C11.5 4.57 13.07 3 15 3C16.93 3 18.5 4.57 18.5 6.5C18.5 7.214 18.277 7.889 17.891 8.453C18.956 8.794 19.935 9.323 20.8 9.993L21.627 9.168L21.314 8.855C21.119 8.66 21.119 8.343 21.314 8.148C21.509 7.953 21.826 7.953 22.021 8.148L23.354 9.481C23.549 9.676 23.549 9.993 23.354 10.188C23.256 10.285 23.128 10.334 23 10.334C22.872 10.334 22.744 10.286 22.646 10.188L22.333 9.874ZM15 4C13.621 4 12.5 5.122 12.5 6.5C12.5 7.144 12.751 7.739 13.176 8.18C13.607 8.095 14.05 8.049 14.5 8.025V7H14C13.724 7 13.5 6.776 13.5 6.5C13.5 6.224 13.724 6 14 6H16C16.276 6 16.5 6.224 16.5 6.5C16.5 6.776 16.276 7 16 7H15.5V8.025C15.95 8.049 16.393 8.096 16.824 8.18C17.249 7.739 17.5 7.144 17.5 6.5C17.5 5.122 16.379 4 15 4ZM6.5 17.5C6.5 22.187 10.313 26 15 26C19.687 26 23.5 22.187 23.5 17.5C23.5 12.813 19.687 9 15 9C10.313 9 6.5 12.813 6.5 17.5ZM15.5 11.5C15.5 11.776 15.276 12 15 12C14.724 12 14.5 11.776 14.5 11.5V10.5C14.5 10.224 14.724 10 15 10C15.276 10 15.5 10.224 15.5 10.5V11.5ZM15 23C14.724 23 14.5 23.224 14.5 23.5V24.5C14.5 24.776 14.724 25 15 25C15.276 25 15.5 24.776 15.5 24.5V23.5C15.5 23.224 15.276 23 15 23ZM21 17H22C22.276 17 22.5 17.224 22.5 17.5C22.5 17.776 22.276 18 22 18H21C20.724 18 20.5 17.776 20.5 17.5C20.5 17.224 20.724 17 21 17ZM9 17H8C7.724 17 7.5 17.224 7.5 17.5C7.5 17.776 7.724 18 8 18H9C9.276 18 9.5 17.776 9.5 17.5C9.5 17.224 9.276 17 9 17ZM18.889 12.904L19.596 12.197C19.791 12.001 20.109 12.002 20.304 12.197C20.499 12.392 20.499 12.709 20.304 12.904L19.597 13.611C19.499 13.708 19.371 13.757 19.243 13.757C19.115 13.757 18.987 13.709 18.889 13.611C18.694 13.416 18.694 13.099 18.889 12.904ZM10.404 21.389L9.69599 22.096C9.50099 22.291 9.50099 22.608 9.69599 22.804C9.79399 22.902 9.92199 22.95 10.05 22.95C10.178 22.95 10.306 22.901 10.404 22.804L11.112 22.097C11.307 21.902 11.307 21.585 11.112 21.389C10.916 21.194 10.6 21.194 10.404 21.389ZM18.889 21.389C19.084 21.194 19.401 21.194 19.596 21.389L20.304 22.096C20.499 22.291 20.499 22.608 20.304 22.803C20.206 22.9 20.078 22.949 19.95 22.949C19.822 22.949 19.694 22.901 19.596 22.803L18.889 22.096C18.694 21.901 18.694 21.584 18.889 21.389ZM10.403 12.196C10.208 12.002 9.89099 12.001 9.69599 12.196C9.50099 12.392 9.50099 12.708 9.69599 12.904L10.404 13.611C10.502 13.708 10.63 13.757 10.758 13.757C10.886 13.757 11.014 13.708 11.112 13.611C11.307 13.415 11.307 13.099 11.112 12.903L10.403 12.196ZM13.5 17.5C13.5 16.922 14.28 14.186 14.52 13.361C14.645 12.933 15.355 12.933 15.48 13.361C15.72 14.186 16.5 16.922 16.5 17.5C16.5 18.327 15.827 19 15 19C14.173 19 13.5 18.327 13.5 17.5ZM14.5 17.5C14.5 17.776 14.725 18 15 18C15.275 18 15.5 17.776 15.5 17.5C15.498 17.295 15.283 16.409 15 15.356C14.717 16.409 14.502 17.296 14.5 17.5Z" fill="#272625"/>
</svg>
