<svg width="30" height="30" viewBox="0 0 30 30" fill="none" xmlns="http://www.w3.org/2000/svg">
<path fill-rule="evenodd" clip-rule="evenodd" d="M7.14625 3.14625C7.34125 2.95125 7.65825 2.95125 7.85325 3.14625L8.85325 4.14725C9.04825 4.34225 9.04825 4.65925 8.85325 4.85425C8.75525 4.95125 8.62725 5.00025 8.49925 5.00025C8.37125 5.00025 8.24325 4.95125 8.14625 4.85325L7.14625 3.85325C6.95125 3.65825 6.95125 3.34125 7.14625 3.14625ZM8 6.50024C8 6.22424 8.224 6.00024 8.5 6.00024H21.5C21.776 6.00024 22 6.22424 22 6.50024V9.50024C22 9.50659 21.9983 9.51237 21.9966 9.51833C21.9951 9.52365 21.9935 9.52912 21.993 9.53524C21.9923 9.5489 21.9892 9.5617 21.9859 9.57476C21.9842 9.58179 21.9824 9.58889 21.981 9.59624C21.968 9.66324 21.943 9.72324 21.906 9.77724C21.9021 9.78267 21.9003 9.78907 21.8986 9.79536C21.8968 9.80183 21.8951 9.80818 21.891 9.81324L18 14.6762V24.0002C18 25.6542 16.654 27.0002 15 27.0002C13.346 27.0002 12 25.6542 12 24.0002V14.6762L8.109 9.81224C8.10404 9.80618 8.10212 9.79921 8.10022 9.79234C8.09867 9.78673 8.09714 9.78118 8.094 9.77624C8.057 9.72224 8.032 9.66224 8.019 9.59524C8.0176 9.58792 8.01584 9.58095 8.0141 9.57406C8.01084 9.56119 8.00765 9.54857 8.007 9.53424C8.00654 9.52874 8.00503 9.52365 8.00353 9.5186C8.00176 9.51264 8 9.50674 8 9.50024V6.50024ZM17 7.00024V9.00024H19V7.00024H17ZM14 9.00024H16V7.00024H14V9.00024ZM11 9.00024H13V7.00024H11V9.00024ZM10 7.00024H9V9.00024H10V7.00024ZM15 26.0002C16.103 26.0002 17 25.1032 17 24.0002V15.0002H13V24.0002C13 25.1032 13.897 26.0002 15 26.0002ZM12.74 14.0002H17.26L20.46 10.0002H9.54L12.74 14.0002ZM20 9.00024H21V7.00024H20V9.00024ZM21.8533 4.85423L22.8533 3.85423C23.0483 3.65923 23.0483 3.34223 22.8533 3.14723C22.6582 2.95223 22.3413 2.95223 22.1462 3.14723L21.1462 4.14723C20.9513 4.34223 20.9513 4.65923 21.1462 4.85423C21.2432 4.95123 21.3713 5.00023 21.4993 5.00023C21.6272 5.00023 21.7552 4.95123 21.8533 4.85423ZM13 3.50024V4.50024C13 4.77624 12.776 5.00024 12.5 5.00024C12.224 5.00024 12 4.77624 12 4.50024V3.50024C12 3.22424 12.224 3.00024 12.5 3.00024C12.776 3.00024 13 3.22424 13 3.50024ZM18 4.50024V3.50024C18 3.22424 17.776 3.00024 17.5 3.00024C17.224 3.00024 17 3.22424 17 3.50024V4.50024C17 4.77624 17.224 5.00024 17.5 5.00024C17.776 5.00024 18 4.77624 18 4.50024ZM16 18.0002C16 18.5525 15.5523 19.0002 15 19.0002C14.4477 19.0002 14 18.5525 14 18.0002C14 17.448 14.4477 17.0002 15 17.0002C15.5523 17.0002 16 17.448 16 18.0002Z" fill="#272625"/>
</svg>
