<svg width="30" height="30" viewBox="0 0 30 30" fill="none" xmlns="http://www.w3.org/2000/svg">
<path fill-rule="evenodd" clip-rule="evenodd" d="M23 6H26.5C26.776 6 27 6.224 27 6.5V25.5C27 25.776 26.776 26 26.5 26H3.5C3.224 26 3 25.776 3 25.5V6.5C3 6.224 3.224 6 3.5 6H7V4.5C7 4.224 7.224 4 7.5 4C7.776 4 8 4.224 8 4.5V6H12V4.5C12 4.224 12.224 4 12.5 4C12.776 4 13 4.224 13 4.5V6H17V4.5C17 4.224 17.224 4 17.5 4C17.776 4 18 4.224 18 4.5V6H22V4.5C22 4.224 22.224 4 22.5 4C22.776 4 23 4.224 23 4.5V6ZM7 7.5V7H4V10H26V7H23V7.5C23 7.776 22.776 8 22.5 8C22.224 8 22 7.776 22 7.5V7H18V7.5C18 7.776 17.776 8 17.5 8C17.224 8 17 7.776 17 7.5V7H13V7.5C13 7.776 12.776 8 12.5 8C12.224 8 12 7.776 12 7.5V7H8V7.5C8 7.776 7.776 8 7.5 8C7.224 8 7 7.776 7 7.5ZM4 11V25H26V11H4ZM16.6691 16.261H20.5001C20.7161 16.261 20.9071 16.401 20.9741 16.605C21.0411 16.809 20.9711 17.035 20.7981 17.163L17.6821 19.482L18.8761 23.353C18.9411 23.562 18.8631 23.788 18.6821 23.912C18.5971 23.971 18.4981 24 18.3991 24C18.2901 24 18.1821 23.964 18.0921 23.894L14.9981 21.474L11.9061 23.857C11.7341 23.991 11.4961 23.996 11.3141 23.871C11.1361 23.747 11.0591 23.52 11.1231 23.312L12.3161 19.486L9.2011 17.162C9.0281 17.033 8.9581 16.808 9.0251 16.603C9.0941 16.399 9.2841 16.261 9.5001 16.261H13.3321L14.5221 12.354C14.6511 11.933 15.3501 11.933 15.4791 12.354L16.6691 16.261ZM16.6231 19.438C16.5611 19.236 16.6321 19.016 16.8021 18.89L18.9901 17.261H16.2991C16.0791 17.261 15.8841 17.117 15.8201 16.907L15.0001 14.215L14.1801 16.907C14.1151 17.117 13.9211 17.261 13.7011 17.261H11.0071L13.1981 18.896C13.3681 19.023 13.4401 19.243 13.3771 19.446L12.5501 22.098L14.6931 20.444C14.7841 20.375 14.8921 20.34 14.9991 20.34C15.1081 20.34 15.2171 20.375 15.3071 20.446L17.4511 22.123L16.6231 19.438Z" fill="#272625"/>
</svg>
