<svg width="20" height="20" viewBox="0 0 20 20" fill="none" xmlns="http://www.w3.org/2000/svg">
<path d="M11.7782 10C11.7782 9.0181 10.9822 8.2222 10.0005 8.2222C9.01855 8.2222 8.22266 9.0181 8.22266 10C8.22266 10.9818 9.01855 11.7778 10.0005 11.7778C10.9822 11.7778 11.7782 10.9818 11.7782 10Z" fill="white"/>
<path fill-rule="evenodd" clip-rule="evenodd" d="M12.1558 5.65853C12.6758 5.6823 12.958 5.7692 13.146 5.8422C13.3949 5.93886 13.5723 6.05442 13.7589 6.24109C13.9456 6.42776 14.0611 6.60554 14.158 6.85443C14.231 7.04221 14.318 7.32443 14.3417 7.84444C14.4067 9.27605 14.4067 10.7218 14.3417 12.1534C14.3179 12.6734 14.231 12.9556 14.158 13.1434C14.0613 13.3923 13.9456 13.5695 13.7589 13.7561C13.5722 13.9427 13.395 14.0583 13.146 14.1549C12.9582 14.2283 12.6758 14.315 12.1558 14.3387C10.7237 14.4038 9.27754 14.4038 7.84549 14.3387C7.32549 14.3147 7.04326 14.2278 6.85515 14.1548C6.60626 14.0582 6.42848 13.9426 6.24181 13.7559C6.05514 13.5693 5.93958 13.3919 5.84269 13.1429C5.76969 12.9552 5.68269 12.6729 5.65902 12.1529C5.59394 10.7211 5.59394 9.2749 5.65902 7.8431C5.6828 7.3231 5.76969 7.04087 5.84269 6.85287C5.93936 6.60398 6.05514 6.4262 6.24181 6.23953C6.42848 6.05286 6.60626 5.93731 6.85515 5.84042C7.04315 5.76708 7.32549 5.68042 7.84549 5.65653C9.2749 5.59196 10.7275 5.59362 12.1558 5.65853ZM12.8474 6.51344C12.4941 6.51344 12.2074 6.79977 12.2074 7.15322C12.2074 7.50656 12.4941 7.79323 12.8474 7.79323C13.2008 7.79323 13.4874 7.50656 13.4874 7.15322C13.4874 6.79988 13.2008 6.51344 12.8474 6.51344ZM7.26158 10.0001C7.26158 8.4876 8.48787 7.26128 10.0004 7.26122C11.513 7.26122 12.739 8.48757 12.739 10.0001C12.739 11.5127 11.5131 12.7385 10.0005 12.7385C8.48793 12.7385 7.26158 11.5127 7.26158 10.0001Z" fill="white"/>
<path fill-rule="evenodd" clip-rule="evenodd" d="M10 0C4.47715 0 0 4.47715 0 10C0 15.5228 4.47715 20 10 20C15.5228 20 20 15.5228 20 10C20 4.47715 15.5228 0 10 0ZM7.8013 4.69889C9.25908 4.63255 10.7399 4.63256 12.1977 4.69889C12.7655 4.72489 13.1532 4.81478 13.4932 4.94667C13.8444 5.08279 14.141 5.26501 14.4377 5.56168C14.7344 5.85813 14.9166 6.15569 15.0533 6.50647C15.1844 6.84558 15.2744 7.23314 15.301 7.80093C15.3667 9.26238 15.3667 10.7373 15.301 12.1988C15.2744 12.7663 15.1844 13.154 15.0533 13.4932C14.9166 13.8439 14.7344 14.1414 14.4377 14.4379C14.1414 14.7346 13.8442 14.9172 13.4936 15.0534C13.1542 15.1853 12.7662 15.2752 12.1985 15.3012C10.7373 15.3677 9.262 15.3677 7.80085 15.3012C7.23318 15.2752 6.84551 15.1853 6.50617 15.0534C6.15561 14.9172 5.85805 14.7346 5.56172 14.4379C5.26516 14.1414 5.08293 13.8439 4.9466 13.4931C4.81482 13.154 4.72493 12.7664 4.69882 12.1986C4.6326 10.7373 4.63334 9.26223 4.69871 7.80082C4.72426 7.23325 4.81426 6.84558 4.94649 6.50636C5.08316 6.15569 5.26538 5.85813 5.56205 5.56168C5.8585 5.26512 6.15606 5.0829 6.50684 4.94667C6.84595 4.81478 7.23351 4.72489 7.8013 4.69889Z" fill="white"/>
</svg>
