<svg width="12" height="20" viewBox="0 0 12 20" fill="none" xmlns="http://www.w3.org/2000/svg">
<path fill-rule="evenodd" clip-rule="evenodd" d="M5.98637 10.3211C8.93559 10.3211 11.333 8.00662 11.333 5.16132C11.333 2.31509 8.93559 0 5.98637 0C3.03779 0 0.639768 2.31509 0.639768 5.16132C0.639768 8.00662 3.03779 10.3211 5.98637 10.3211ZM11.268 13.2925C10.3012 13.8786 9.25163 14.2942 8.1633 14.5336L11.1522 17.419C11.7645 18.0088 11.7645 18.9667 11.1522 19.5571C10.5405 20.1476 9.54914 20.1476 8.93812 19.5571L5.99945 16.7217L3.06335 19.5571C2.7572 19.852 2.35603 19.9997 1.95487 19.9997C1.55435 19.9997 1.15382 19.852 0.847673 19.5571C0.236011 18.9667 0.236011 18.0094 0.847033 17.419L3.83624 14.5336C2.74792 14.2942 1.69831 13.878 0.731546 13.2925C-8.11219e-05 12.8472 -0.219856 11.9143 0.241129 11.2074C0.700835 10.4997 1.66759 10.2866 2.4005 10.7319C4.5893 12.061 7.40896 12.0613 9.59904 10.7319C10.332 10.2866 11.2984 10.4997 11.7591 11.2074C12.22 11.9137 11.9996 12.8472 11.268 13.2925ZM5.98614 3.02496C7.20691 3.02496 8.1999 3.98317 8.1999 5.16156C8.1999 6.33903 7.20691 7.29786 5.98614 7.29786C4.76634 7.29786 3.77239 6.33903 3.77239 5.16156C3.77239 3.98317 4.76634 3.02496 5.98614 3.02496Z" fill="white"/>
</svg>
