<svg width="20" height="20" viewBox="0 0 20 20" fill="none" xmlns="http://www.w3.org/2000/svg">
<path fill-rule="evenodd" clip-rule="evenodd" d="M10 20C15.5228 20 20 15.5228 20 10C20 4.47715 15.5228 0 10 0C4.47715 0 0 4.47715 0 10C0 15.5228 4.47715 20 10 20ZM7.7585 13.5061L7.92392 11.2725L12.1853 7.59935C12.3707 7.44175 12.1453 7.35456 11.8973 7.51215L6.6293 10.6765L4.36133 9.99934C3.86799 9.85254 3.85882 9.52854 4.46425 9.30295L13.3353 6.04256C13.7461 5.89576 14.1053 6.12976 13.9716 6.72816L12.4619 13.5173C12.3482 13.9965 12.0511 14.1153 11.6294 13.8897L9.3302 12.2733L8.22059 13.2913C8.09767 13.4085 7.99517 13.5061 7.7585 13.5061Z" fill="white"/>
</svg>
