<svg width="19" height="20" viewBox="0 0 19 20" fill="none" xmlns="http://www.w3.org/2000/svg">
<path fill-rule="evenodd" clip-rule="evenodd" d="M17.2003 6.3753C17.5609 7.31463 17.7338 8.15714 17.7717 9.1843C17.7778 9.38722 17.7749 9.75898 17.7618 10.0108C17.7344 10.4936 17.7082 10.5895 17.5693 10.7172C17.3459 10.9268 16.9104 10.8768 16.7453 10.6243C16.6591 10.4887 16.647 10.3895 16.6637 9.82543C16.7116 8.15702 16.3741 6.85067 15.5612 5.54443C14.5899 3.97727 13.1369 2.92155 11.2475 2.40506C10.7657 2.2736 10.3597 2.19348 9.72819 2.10846C9.31682 2.05462 9.22673 2.03185 9.12521 1.96937C8.8185 1.77293 8.81442 1.27551 9.12017 1.07608C9.27794 0.970802 9.39428 0.966098 9.90855 1.03196C11.4166 1.22041 12.7622 1.6685 13.8679 2.34562C14.6604 2.83161 15.1601 3.26821 15.8034 4.03284C16.4839 4.84836 16.8442 5.45131 17.2003 6.3753ZM17.9571 15.7602C17.9216 15.6564 17.8387 15.4963 17.7795 15.4044C17.4065 14.8411 15.4023 13.2726 14.4017 12.7597C13.8303 12.4662 13.407 12.3684 13.0932 12.4602C12.7557 12.5552 12.578 12.7123 12.0126 13.415C11.7847 13.6966 11.5508 13.9605 11.4886 14.002C11.3347 14.1087 11.0327 14.1948 10.8196 14.1948C10.3252 14.1918 9.42815 13.8716 8.73836 13.4505C8.20253 13.1244 7.51575 12.5403 6.98876 11.9622C6.36704 11.2832 5.94375 10.6843 5.60919 10.0083C5.17699 9.13958 5.06745 8.60884 5.24801 8.22042C5.29243 8.12259 5.35165 8.01885 5.37826 7.98619C5.40492 7.95658 5.68322 7.72826 5.99106 7.4792C6.59502 6.99891 6.69271 6.8892 6.8052 6.56009C6.94729 6.14202 6.90883 5.71508 6.68976 5.28518C6.521 4.95903 6.0799 4.24745 5.76018 3.7879C5.33684 3.18308 4.28292 1.89038 4.0727 1.7154C3.69377 1.40708 3.20831 1.35368 2.67242 1.56127C2.10703 1.78067 1.04716 2.63456 0.594204 3.23052C0.185663 3.77012 0.0288112 4.15257 0.00510384 4.65661C-0.0156052 5.07168 0.0199068 5.24365 0.238984 5.77439C1.95307 9.93711 4.51085 13.2608 8.02491 15.8996C9.86037 17.2782 11.7639 18.3278 13.7385 19.0454C14.8901 19.4634 15.3904 19.4841 15.9796 19.1402C16.2282 18.992 16.844 18.3604 17.1874 17.9009C17.7558 17.1359 17.966 16.7831 18.0252 16.5014C18.0667 16.3087 18.0341 15.9737 17.9571 15.7602ZM13.5529 4.46256C14.824 5.49045 15.5343 6.95139 15.6399 8.76725C15.6843 9.48246 15.6253 9.71539 15.3729 9.84808C15.1453 9.97102 14.8873 9.93055 14.7103 9.74546C14.5931 9.62508 14.548 9.46043 14.5498 9.16888C14.5549 8.36277 14.3692 7.46257 14.0672 6.83792C13.7178 6.11091 13.1776 5.49222 12.498 5.03989C11.9027 4.64262 11.1149 4.37426 10.3511 4.30744C9.85562 4.26409 9.6787 4.18018 9.5836 3.94266C9.52468 3.80058 9.54025 3.55495 9.60932 3.44494C9.67463 3.34349 9.82116 3.23131 9.92478 3.20165C10.0346 3.16962 10.6745 3.22561 11.0221 3.29469C11.9711 3.48784 12.8367 3.88499 13.5529 4.46256ZM12.9672 6.62868C13.2907 7.0409 13.4729 7.50628 13.5459 8.09898C13.5618 8.22237 13.5685 8.45214 13.5639 8.60652C13.5569 8.85587 13.5469 8.90261 13.481 9.00999C13.3016 9.29489 12.8785 9.3412 12.6408 9.10312C12.5125 8.97288 12.4808 8.85998 12.4683 8.49277C12.4417 7.71068 12.1927 7.22759 11.6581 6.91888C11.4062 6.77485 11.1293 6.67917 10.7286 6.60545C10.4277 6.54639 10.3195 6.49227 10.2257 6.34121C10.0923 6.13308 10.1264 5.81168 10.3009 5.65136C10.4882 5.48024 10.6975 5.46581 11.2155 5.59148C12.0103 5.78003 12.5471 6.09788 12.9672 6.62868Z" fill="white"/>
</svg>
