<svg width="22" height="13" viewBox="0 0 22 13" fill="none" xmlns="http://www.w3.org/2000/svg">
<path fill-rule="evenodd" clip-rule="evenodd" d="M12.0469 12.5632C12.0469 12.5632 12.4319 12.5212 12.6291 12.3133C12.8096 12.1228 12.8033 11.7633 12.8033 11.7633C12.8033 11.7633 12.7793 10.0846 13.5734 9.83678C14.0463 9.68948 14.6003 10.313 15.2001 10.988C15.5928 11.43 16.0052 11.894 16.4271 12.1781C17.2326 12.721 17.8441 12.6022 17.8441 12.6022L20.6936 12.5632C20.6936 12.5632 22.1836 12.4731 21.4772 11.3229C21.4728 11.3157 21.4666 11.3046 21.4582 11.2895C21.3567 11.1081 20.9344 10.3527 19.3591 8.91704L19.3098 8.87218C18.5874 8.2145 18.2104 7.87131 18.1707 7.49276C18.1274 7.07965 18.4858 6.62443 19.2353 5.67244C19.4468 5.4037 19.6896 5.09537 19.9633 4.73723C21.2738 3.0227 21.7976 1.97596 21.6338 1.52838C21.4783 1.10026 20.5142 1.21395 20.5142 1.21395L17.3067 1.23341C17.3067 1.23341 17.0688 1.20166 16.8925 1.3051C16.7203 1.4065 16.6087 1.64309 16.6087 1.64309C16.6087 1.64309 16.1016 2.96945 15.4244 4.09813C13.996 6.4784 13.4252 6.60437 13.1915 6.45689C12.7358 6.16753 12.7574 5.39012 12.7763 4.71124C12.78 4.58036 12.7835 4.45304 12.7835 4.3337C12.7835 3.80249 12.8024 3.34261 12.8187 2.94632C12.8732 1.62119 12.8985 1.00712 12.0896 0.815529C11.7411 0.732568 11.4845 0.678285 10.5924 0.669067C9.44773 0.6578 8.47944 0.673164 7.9306 0.936386C7.5654 1.11153 7.28368 1.50278 7.45585 1.52531C7.66766 1.55296 8.14763 1.65231 8.40222 1.99235C8.7309 2.43174 8.71942 3.41703 8.71942 3.41703C8.71942 3.41703 8.90828 6.13324 8.27806 6.4702C7.84608 6.70167 7.25343 6.22951 5.97942 4.06945C5.32728 2.9633 4.83479 1.74039 4.83479 1.74039C4.83479 1.74039 4.73984 1.51199 4.56976 1.38909C4.36421 1.24058 4.07727 1.19449 4.07727 1.19449L1.02946 1.21395C1.02946 1.21395 0.571401 1.22624 0.403412 1.42186C0.254203 1.59495 0.391934 1.95445 0.391934 1.95445C0.391934 1.95445 2.77822 7.43501 5.48066 10.1973C7.95877 12.7292 10.7718 12.5632 10.7718 12.5632H12.0469Z" fill="white"/>
</svg>
