<svg width="24" height="26" viewBox="0 0 24 26" fill="none" xmlns="http://www.w3.org/2000/svg">
<path fill-rule="evenodd" clip-rule="evenodd" d="M12.0502 24.8984H12.0453C10.0453 24.8977 8.08018 24.396 6.33478 23.4439L0 25.1057L1.69529 18.9134C0.649553 17.1011 0.0992909 15.0454 0.100188 12.9393C0.102809 6.35064 5.4635 0.990234 12.0501 0.990234C15.2469 0.991614 18.2472 2.23609 20.5033 4.49485C22.7594 6.7535 24.0013 9.7558 24 12.9487C23.9974 19.5359 18.6388 24.8957 12.0502 24.8984ZM6.62866 21.2806L6.99135 21.4958C8.5163 22.4008 10.2643 22.8796 12.0466 22.8803H12.0506C17.525 22.8803 21.9805 18.4246 21.9827 12.948C21.9837 10.2941 20.9516 7.79872 19.0764 5.92132C17.2012 4.04392 14.7074 3.00951 12.0545 3.00859C6.57596 3.00859 2.12034 7.46381 2.11816 12.94C2.11739 14.8167 2.6425 16.6444 3.63673 18.2258L3.87289 18.6016L2.86951 22.2667L6.62866 21.2806ZM18.0704 15.7904C18.0104 15.6901 17.8697 15.6222 17.6615 15.5215C17.6112 15.4972 17.5562 15.4706 17.4982 15.4416C17.1996 15.2922 15.7316 14.5699 15.4579 14.4702C15.1843 14.3706 14.9851 14.3208 14.7861 14.6196C14.5871 14.9185 14.0149 15.5911 13.8407 15.7904C13.6665 15.9896 13.4923 16.0146 13.1938 15.8651C13.1451 15.8407 13.0786 15.8118 12.9965 15.7762C12.5761 15.5939 11.7468 15.2342 10.7926 14.3831C9.90501 13.5913 9.30577 12.6136 9.13159 12.3147C8.95742 12.0157 9.11302 11.8542 9.2625 11.7053C9.35194 11.6162 9.45465 11.4911 9.55737 11.366C9.6089 11.3033 9.66053 11.2404 9.71039 11.1822C9.83726 11.0341 9.89224 10.9218 9.96699 10.7692L10.009 10.6841C10.1085 10.4848 10.0587 10.3105 9.98407 10.161C9.93413 10.061 9.65029 9.36996 9.39338 8.74449L9.39164 8.74025C9.2652 8.43245 9.14545 8.1409 9.06348 7.94396C8.84948 7.42993 8.63256 7.4312 8.45856 7.43222C8.43548 7.43236 8.41315 7.43249 8.39168 7.43141C8.21772 7.42267 8.01845 7.42083 7.81941 7.42083C7.62037 7.42083 7.29687 7.49556 7.02319 7.79449C7.00564 7.81366 6.98605 7.83457 6.96474 7.8573C6.65376 8.18913 5.97816 8.91003 5.97816 10.2854C5.97816 11.7474 7.03693 13.1601 7.19495 13.3709L7.19736 13.3742C7.20714 13.3872 7.22465 13.4123 7.2497 13.4482C7.60722 13.961 9.49889 16.674 12.2981 17.8827C13.0105 18.1903 13.5666 18.3741 14.0003 18.5116C14.7155 18.739 15.3665 18.7069 15.8809 18.63C16.4546 18.5443 17.6474 17.9077 17.8964 17.2103C18.145 16.5127 18.145 15.9149 18.0704 15.7904Z" fill="white"/>
</svg>
