<svg width="20" height="20" viewBox="0 0 20 20" fill="none" xmlns="http://www.w3.org/2000/svg">
<path fill-rule="evenodd" clip-rule="evenodd" d="M7.49567 14.248L7.31433 14.1404L5.43476 14.6334L5.93644 12.8009L5.81837 12.613C5.32125 11.8223 5.0587 10.9084 5.05908 9.97007C5.06017 7.23198 7.28798 5.00437 10.0273 5.00437C11.3537 5.00483 12.6006 5.52204 13.5382 6.46074C14.4758 7.39944 14.9919 8.64713 14.9914 9.97409C14.9903 12.7124 12.7625 14.9402 10.0253 14.9402H10.0233C9.13217 14.9399 8.25815 14.7005 7.49567 14.248ZM12.8307 11.2608C12.9349 11.3112 13.0052 11.3451 13.0352 11.3953C13.0725 11.4575 13.0725 11.7564 12.9482 12.1052C12.8237 12.4539 12.2273 12.7722 11.9404 12.8151C11.6832 12.8535 11.3578 12.8696 11.0001 12.7559C10.7833 12.6871 10.5052 12.5952 10.149 12.4414C8.74944 11.8371 7.80361 10.4806 7.62485 10.2242C7.61233 10.2062 7.60357 10.1937 7.59868 10.1872L7.59748 10.1855C7.51847 10.0801 6.98908 9.3738 6.98908 8.64277C6.98908 7.95509 7.32688 7.59464 7.48237 7.42873C7.49302 7.41736 7.50282 7.40691 7.51159 7.39732C7.64844 7.24786 7.81019 7.21049 7.90971 7.21049C8.00922 7.21049 8.10886 7.21141 8.19584 7.21578C8.20657 7.21632 8.21774 7.21625 8.22928 7.21619C8.31628 7.21568 8.42474 7.21504 8.53174 7.47206C8.5729 7.57096 8.63313 7.71759 8.69666 7.87224C8.82512 8.185 8.96706 8.53057 8.99204 8.58057C9.02937 8.6553 9.05424 8.74245 9.00448 8.84214C8.99701 8.85708 8.9901 8.87119 8.9835 8.88467C8.94613 8.96097 8.91863 9.0171 8.8552 9.09117C8.83025 9.1203 8.80447 9.1517 8.77868 9.18309C8.72732 9.24564 8.67597 9.30818 8.63125 9.35273C8.55651 9.42718 8.47871 9.50795 8.5658 9.65741C8.65288 9.80688 8.9525 10.2957 9.39632 10.6916C9.87341 11.1172 10.2881 11.297 10.4982 11.3882C10.5393 11.406 10.5725 11.4204 10.5969 11.4326C10.7462 11.5074 10.8332 11.4949 10.9203 11.3953C11.0074 11.2956 11.2935 10.9593 11.393 10.8099C11.4926 10.6605 11.5921 10.6854 11.7289 10.7352C11.8658 10.785 12.5998 11.1462 12.7491 11.2209C12.7782 11.2355 12.8055 11.2486 12.8307 11.2608Z" fill="white"/>
<path fill-rule="evenodd" clip-rule="evenodd" d="M10 20C15.5228 20 20 15.5228 20 10C20 4.47715 15.5228 0 10 0C4.47715 0 0 4.47715 0 10C0 15.5228 4.47715 20 10 20ZM10.0226 15.9493H10.0251C13.3194 15.948 15.9987 13.268 16 9.97444C16.0006 8.37798 15.3797 6.87683 14.2517 5.7475C13.1236 4.61812 11.6234 3.99588 10.0251 3.99519C6.73175 3.99519 4.0514 6.6754 4.05009 9.96973C4.04965 11.0228 4.32478 12.0506 4.84765 12.9568L4 16.0529L7.16739 15.222C8.04009 15.6981 9.02267 15.949 10.0226 15.9493Z" fill="white"/>
</svg>
