<svg width="180" height="175" viewBox="0 0 180 175" fill="none" xmlns="http://www.w3.org/2000/svg">
<path fill-rule="evenodd" clip-rule="evenodd" d="M89.9987 0L94.1693 7.22504C92.7825 7.1434 91.3957 7.11789 89.9987 7.11789C88.6017 7.11789 87.2149 7.1536 85.8281 7.22504L89.9987 0ZM98.57 14.8836L103.23 22.9607C94.5016 21.1579 85.4971 21.1579 76.7686 22.9607L81.4287 14.8836C87.1222 14.2033 92.8765 14.2033 98.57 14.8836ZM114.42 42.3506L108.343 31.7988C96.4304 27.8143 83.5461 27.8143 71.6335 31.7988L65.5611 42.3506C73.0392 38.2114 81.4451 36.0401 89.9908 36.0401C98.5365 36.0401 106.942 38.2114 114.42 42.3506ZM111.753 49.1614L108.143 55.417C102.6 52.1818 96.2933 50.4874 89.8761 50.5089C83.459 50.5304 77.1642 52.2671 71.6425 55.5394L68.0328 49.2788C74.6514 45.3702 82.1918 43.2988 89.8769 43.2781C97.5619 43.2575 105.113 45.2884 111.753 49.1614ZM89.9973 64.9748C93.8368 64.9701 97.6075 65.9937 100.918 67.9393L104.533 61.6786C100.088 59.0783 95.0275 57.7182 89.8786 57.7397C84.7297 57.7612 79.6808 59.1637 75.2574 61.8011L78.8672 68.0567C82.2282 66.0357 86.0762 64.9702 89.9973 64.9748ZM89.639 79.4521C89.5115 79.4612 89.382 79.4704 89.2577 79.4704C88.1307 79.5883 87.0476 79.9712 86.0966 80.5878L82.4766 74.322C84.7056 72.9584 87.2631 72.2266 89.8755 72.205C92.4879 72.1835 95.0571 72.8729 97.3083 74.1996L93.6934 80.4653C93.412 80.2892 93.1171 80.1357 92.8114 80.0061C91.9213 79.6279 90.964 79.4335 89.997 79.4346C89.8842 79.4346 89.7627 79.4433 89.6393 79.4521H89.6392H89.6392L89.639 79.4521ZM98.2095 101.585L123.407 57.9079L119.231 50.6675L94.0338 94.3443L98.2095 101.585ZM127.582 65.1376L102.379 108.814L106.555 116.044L131.752 72.3677L127.582 65.1376ZM110.726 123.279L135.923 79.6027L140.093 86.8329L115.192 129.999H114.606L110.726 123.279ZM144.269 94.0627L123.533 129.999H131.88L148.44 101.298L144.269 94.0627ZM148.568 130H140.222L152.611 108.529L156.782 115.759L148.568 130ZM160.957 122.994L156.914 130H165L160.957 122.994ZM56.4559 58.1474L97.9071 130H106.259L60.6316 50.907L56.4559 58.1474ZM48.1104 72.6076L81.2204 130H89.5667L52.281 65.3775L48.1104 72.6076ZM64.5332 129.999L39.7696 87.0725L43.9402 79.8372L72.8795 129.999H64.5332ZM31.4214 101.538L47.8438 129.999H56.1851L35.592 94.3024L31.4214 101.538ZM31.1569 130L23.0757 115.999L27.2514 108.769L39.4981 130H31.1569ZM22.811 130L18.9055 123.229L15 130H22.811ZM9.65826 145.188C10.1583 145.188 10.5022 145.15 10.5022 145.094C10.5022 145.034 11.3773 145 12.9402 145C14.5031 145 15.3782 145.034 15.3782 145.094C15.3782 145.15 15.7221 145.188 16.2221 145.188C16.7222 145.188 17.0661 145.226 17.0661 145.282C17.0661 145.333 17.277 145.375 17.5349 145.375C17.7928 145.375 18.0037 145.418 18.0037 145.469C18.0037 145.521 18.2147 145.563 18.4726 145.563C18.7305 145.563 18.9414 145.605 18.9414 145.657C18.9414 145.708 19.068 145.75 19.2228 145.75C19.3775 145.75 19.5041 145.793 19.5041 145.844C19.5041 145.896 19.6307 145.938 19.7854 145.938C19.9401 145.938 20.0667 145.98 20.0667 146.032C20.0667 146.083 20.1933 146.125 20.348 146.125C20.5027 146.125 20.6293 146.168 20.6293 146.219C20.6293 146.271 20.7137 146.313 20.8168 146.313C20.92 146.313 21.0044 146.355 21.0044 146.407C21.0044 146.458 21.0888 146.5 21.1919 146.5C21.2951 146.5 21.3795 146.543 21.3795 146.594C21.3795 146.646 21.4638 146.688 21.567 146.688C21.6701 146.688 21.7545 146.73 21.7545 146.782C21.7545 146.833 21.8296 146.875 21.9213 146.875C22.0131 146.875 22.149 146.96 22.2234 147.063C22.2977 147.166 22.4132 147.25 22.48 147.25C22.6384 147.25 24.005 148.617 24.005 148.775C24.005 148.842 24.0894 148.957 24.1925 149.032C24.2957 149.106 24.3801 149.242 24.3801 149.334C24.3801 149.425 24.4223 149.5 24.4738 149.5C24.5254 149.5 24.5676 149.585 24.5676 149.688C24.5676 149.791 24.6098 149.875 24.6614 149.875C24.713 149.875 24.7552 150.044 24.7552 150.25C24.7552 150.457 24.7974 150.625 24.8489 150.625C24.9005 150.625 24.9427 150.752 24.9427 150.907C24.9427 151.061 24.9849 151.188 25.0365 151.188C25.0951 151.188 25.1302 151.75 25.1302 152.688C25.1302 153.625 25.0951 154.188 25.0365 154.188C24.9849 154.188 24.9427 154.357 24.9427 154.563C24.9427 154.769 24.9005 154.938 24.8489 154.938C24.7974 154.938 24.7552 155.064 24.7552 155.219C24.7552 155.374 24.713 155.5 24.6614 155.5C24.6098 155.5 24.5676 155.575 24.5676 155.667C24.5676 155.759 24.4832 155.895 24.3801 155.969C24.2769 156.043 24.1925 156.159 24.1925 156.226C24.1925 156.397 23.1962 157.375 23.0225 157.375C22.944 157.375 22.8798 157.418 22.8798 157.469C22.8798 157.521 22.8047 157.563 22.7129 157.563C22.6211 157.563 22.4853 157.647 22.4109 157.75C22.3366 157.854 22.2007 157.938 22.1089 157.938C22.0172 157.938 21.9421 157.98 21.9421 158.032C21.9421 158.083 21.8577 158.125 21.7545 158.125C21.6514 158.125 21.567 158.168 21.567 158.219C21.567 158.271 21.4826 158.313 21.3795 158.313C21.2763 158.313 21.1919 158.337 21.1919 158.366C21.1919 158.504 21.4837 158.688 21.701 158.688C21.8336 158.688 21.9421 158.73 21.9421 158.782C21.9421 158.833 22.0687 158.875 22.2234 158.875C22.3781 158.875 22.5047 158.918 22.5047 158.969C22.5047 159.021 22.5891 159.063 22.6922 159.063C22.7954 159.063 22.8798 159.105 22.8798 159.157C22.8798 159.208 22.9642 159.25 23.0673 159.25C23.1705 159.25 23.2548 159.293 23.2548 159.344C23.2548 159.396 23.3392 159.438 23.4424 159.438C23.5455 159.438 23.6299 159.48 23.6299 159.532C23.6299 159.583 23.6973 159.625 23.7799 159.625C23.8623 159.625 24.048 159.752 24.1925 159.907C24.337 160.061 24.5036 160.188 24.5626 160.188C24.7018 160.188 25.1302 160.616 25.1302 160.755C25.1302 160.814 25.2568 160.981 25.4115 161.125C25.5663 161.27 25.6929 161.456 25.6929 161.538C25.6929 161.62 25.735 161.688 25.7866 161.688C25.8382 161.688 25.8804 161.772 25.8804 161.875C25.8804 161.979 25.9226 162.063 25.9742 162.063C26.0257 162.063 26.0679 162.189 26.0679 162.344C26.0679 162.499 26.1101 162.625 26.1617 162.625C26.2133 162.625 26.2555 162.752 26.2555 162.907C26.2555 163.061 26.2977 163.188 26.3492 163.188C26.4039 163.188 26.443 163.5 26.443 163.938C26.443 164.375 26.4821 164.688 26.5368 164.688C26.5903 164.688 26.6305 164.969 26.6305 165.344C26.6305 165.719 26.5903 166 26.5368 166C26.4821 166 26.443 166.313 26.443 166.75C26.443 167.188 26.4039 167.5 26.3492 167.5C26.2977 167.5 26.2555 167.627 26.2555 167.782C26.2555 167.936 26.2133 168.063 26.1617 168.063C26.1101 168.063 26.0679 168.232 26.0679 168.438C26.0679 168.644 26.0257 168.813 25.9742 168.813C25.9226 168.813 25.8804 168.897 25.8804 169C25.8804 169.104 25.8382 169.188 25.7866 169.188C25.735 169.188 25.6929 169.272 25.6929 169.375C25.6929 169.479 25.6507 169.563 25.5991 169.563C25.5475 169.563 25.5053 169.638 25.5053 169.73C25.5053 169.821 25.4209 169.957 25.3178 170.032C25.2146 170.106 25.1302 170.221 25.1302 170.288C25.1302 170.446 23.3879 172.188 23.2299 172.188C23.1632 172.188 23.0479 172.272 22.9735 172.375C22.8992 172.479 22.7726 172.563 22.6922 172.563C22.6119 172.563 22.4853 172.647 22.4109 172.75C22.3366 172.854 22.2007 172.938 22.1089 172.938C22.0172 172.938 21.9421 172.98 21.9421 173.032C21.9421 173.083 21.8577 173.125 21.7545 173.125C21.6514 173.125 21.567 173.168 21.567 173.219C21.567 173.271 21.4826 173.313 21.3795 173.313C21.2763 173.313 21.1919 173.355 21.1919 173.407C21.1919 173.458 21.0653 173.5 20.9106 173.5C20.7559 173.5 20.6293 173.543 20.6293 173.594C20.6293 173.646 20.5449 173.688 20.4418 173.688C20.3386 173.688 20.2542 173.73 20.2542 173.782C20.2542 173.833 20.1276 173.875 19.9729 173.875C19.8182 173.875 19.6916 173.918 19.6916 173.969C19.6916 174.021 19.565 174.063 19.4103 174.063C19.2556 174.063 19.129 174.105 19.129 174.157C19.129 174.208 18.9602 174.25 18.7539 174.25C18.5476 174.25 18.3788 174.293 18.3788 174.344C18.3788 174.396 18.21 174.438 18.0037 174.438C17.7975 174.438 17.6287 174.48 17.6287 174.532C17.6287 174.585 17.3474 174.625 16.9723 174.625C16.5972 174.625 16.3159 174.666 16.3159 174.719C16.3159 174.775 15.972 174.813 15.472 174.813C14.9719 174.813 14.628 174.851 14.628 174.907C14.628 174.967 13.6591 175 11.9087 175C10.1583 175 9.18941 174.967 9.18941 174.907C9.18941 174.85 8.81434 174.813 8.25172 174.813C7.6891 174.813 7.31402 174.775 7.31402 174.719C7.31402 174.664 7.00149 174.625 6.56387 174.625C6.12625 174.625 5.81371 174.586 5.81371 174.532C5.81371 174.48 5.60273 174.438 5.34486 174.438C5.087 174.438 4.87602 174.396 4.87602 174.344C4.87602 174.293 4.70723 174.25 4.50094 174.25C4.29464 174.25 4.12586 174.208 4.12586 174.157C4.12586 174.105 3.95707 174.063 3.75078 174.063C3.54449 174.063 3.3757 174.021 3.3757 173.969C3.3757 173.918 3.24911 173.875 3.09439 173.875C2.93967 173.875 2.81309 173.833 2.81309 173.782C2.81309 173.73 2.6865 173.688 2.53178 173.688C2.37706 173.688 2.25047 173.646 2.25047 173.594C2.25047 173.543 2.12388 173.5 1.96916 173.5C1.81444 173.5 1.68785 173.458 1.68785 173.407C1.68785 173.355 1.56126 173.313 1.40654 173.313C1.25182 173.313 1.12523 173.271 1.12523 173.219C1.12523 173.168 1.04084 173.125 0.937695 173.125C0.834549 173.125 0.750156 173.083 0.750156 173.032C0.750156 172.98 0.665764 172.938 0.562617 172.938C0.459471 172.938 0.375078 172.896 0.375078 172.844C0.375078 172.793 0.290686 172.75 0.187539 172.75C0.0312253 172.75 0 172.688 0 172.375C0 172.169 0.0421963 172 0.0937695 172C0.145343 172 0.187539 171.874 0.187539 171.719C0.187539 171.564 0.229735 171.438 0.281309 171.438C0.332882 171.438 0.375078 171.311 0.375078 171.157C0.375078 171.002 0.417274 170.875 0.468848 170.875C0.520421 170.875 0.562617 170.749 0.562617 170.594C0.562617 170.439 0.604814 170.313 0.656387 170.313C0.70796 170.313 0.750156 170.229 0.750156 170.125C0.750156 170.022 0.792353 169.938 0.843926 169.938C0.895499 169.938 0.937695 169.811 0.937695 169.657C0.937695 169.502 0.979892 169.375 1.03146 169.375C1.08304 169.375 1.12523 169.249 1.12523 169.094C1.12523 168.939 1.16743 168.813 1.219 168.813C1.27058 168.813 1.31277 168.686 1.31277 168.532C1.31277 168.377 1.35497 168.25 1.40654 168.25C1.45812 168.25 1.50031 168.166 1.50031 168.063C1.50031 167.96 1.54251 167.875 1.59408 167.875C1.64566 167.875 1.68785 167.749 1.68785 167.594C1.68785 167.375 1.72949 167.313 1.87539 167.313C1.97854 167.313 2.06293 167.355 2.06293 167.407C2.06293 167.458 2.14732 167.5 2.25047 167.5C2.35362 167.5 2.43801 167.543 2.43801 167.594C2.43801 167.646 2.5646 167.688 2.71932 167.688C2.87404 167.688 3.00063 167.73 3.00063 167.782C3.00063 167.833 3.08502 167.875 3.18816 167.875C3.29131 167.875 3.3757 167.918 3.3757 167.969C3.3757 168.021 3.50229 168.063 3.65701 168.063C3.81173 168.063 3.93832 168.105 3.93832 168.157C3.93832 168.208 4.02271 168.25 4.12586 168.25C4.22901 168.25 4.3134 168.293 4.3134 168.344C4.3134 168.396 4.43999 168.438 4.59471 168.438C4.74943 168.438 4.87602 168.48 4.87602 168.532C4.87602 168.583 5.0448 168.625 5.25109 168.625C5.45739 168.625 5.62617 168.668 5.62617 168.719C5.62617 168.771 5.75276 168.813 5.90748 168.813C6.0622 168.813 6.18879 168.855 6.18879 168.907C6.18879 168.958 6.39977 169 6.65764 169C6.9155 169 7.12648 169.043 7.12648 169.094C7.12648 169.146 7.37657 169.188 7.6891 169.188C8.00164 169.188 8.25172 169.23 8.25172 169.282C8.25172 169.339 8.72057 169.375 9.47072 169.375C10.2209 169.375 10.6897 169.411 10.6897 169.469C10.6897 169.526 11.096 169.563 11.7212 169.563C12.3464 169.563 12.7527 169.526 12.7527 169.469C12.7527 169.412 13.159 169.375 13.7841 169.375C14.4093 169.375 14.8156 169.338 14.8156 169.282C14.8156 169.23 15.0266 169.188 15.2844 169.188C15.5423 169.188 15.7533 169.146 15.7533 169.094C15.7533 169.043 15.8799 169 16.0346 169C16.1893 169 16.3159 168.958 16.3159 168.907C16.3159 168.855 16.4425 168.813 16.5972 168.813C16.7519 168.813 16.8785 168.771 16.8785 168.719C16.8785 168.668 16.9629 168.625 17.0661 168.625C17.1692 168.625 17.2536 168.583 17.2536 168.532C17.2536 168.48 17.3178 168.438 17.3963 168.438C17.582 168.438 18.5664 167.454 18.5664 167.268C18.5664 167.19 18.6086 167.125 18.6601 167.125C18.7117 167.125 18.7539 167.041 18.7539 166.938C18.7539 166.835 18.7961 166.75 18.8477 166.75C18.8993 166.75 18.9414 166.582 18.9414 166.375C18.9414 166.169 18.9836 166 19.0352 166C19.0868 166 19.129 165.832 19.129 165.625C19.129 165.419 19.0868 165.25 19.0352 165.25C18.9836 165.25 18.9414 165.082 18.9414 164.875C18.9414 164.669 18.8993 164.5 18.8477 164.5C18.7961 164.5 18.7539 164.425 18.7539 164.334C18.7539 164.242 18.6695 164.106 18.5664 164.032C18.4632 163.957 18.3788 163.84 18.3788 163.77C18.3788 163.607 18.1475 163.375 17.9842 163.375C17.9146 163.375 17.7968 163.291 17.7224 163.188C17.6481 163.085 17.5122 163 17.4204 163C17.3287 163 17.2536 162.958 17.2536 162.907C17.2536 162.855 17.1692 162.813 17.0661 162.813C16.9629 162.813 16.8785 162.771 16.8785 162.719C16.8785 162.668 16.7097 162.625 16.5034 162.625C16.2971 162.625 16.1284 162.583 16.1284 162.532C16.1284 162.48 15.9174 162.438 15.6595 162.438C15.4016 162.438 15.1907 162.396 15.1907 162.344C15.1907 162.288 14.8156 162.25 14.253 162.25C13.6904 162.25 13.3153 162.213 13.3153 162.157C13.3153 162.096 12.0337 162.063 9.65826 162.063H6.00125V159.438V156.813H9.37695C11.5649 156.813 12.7527 156.78 12.7527 156.719C12.7527 156.666 13.034 156.625 13.409 156.625C13.7841 156.625 14.0654 156.585 14.0654 156.532C14.0654 156.48 14.2764 156.438 14.5343 156.438C14.7921 156.438 15.0031 156.396 15.0031 156.344C15.0031 156.293 15.1297 156.25 15.2844 156.25C15.4392 156.25 15.5657 156.208 15.5657 156.157C15.5657 156.105 15.6501 156.063 15.7533 156.063C15.8564 156.063 15.9408 156.021 15.9408 155.969C15.9408 155.918 16.0051 155.875 16.0835 155.875C16.2692 155.875 17.2536 154.891 17.2536 154.706C17.2536 154.627 17.2958 154.563 17.3474 154.563C17.3989 154.563 17.4411 154.394 17.4411 154.188C17.4411 153.982 17.4833 153.813 17.5349 153.813C17.5865 153.813 17.6287 153.602 17.6287 153.344C17.6287 153.086 17.5865 152.875 17.5349 152.875C17.4833 152.875 17.4411 152.749 17.4411 152.594C17.4411 152.439 17.3989 152.313 17.3474 152.313C17.2958 152.313 17.2536 152.248 17.2536 152.17C17.2536 151.928 16.4426 151.188 16.1777 151.188C16.0474 151.188 15.9408 151.146 15.9408 151.094C15.9408 151.043 15.8142 151 15.6595 151C15.5048 151 15.3782 150.958 15.3782 150.907C15.3782 150.855 15.2094 150.813 15.0031 150.813C14.7968 150.813 14.628 150.771 14.628 150.719C14.628 150.664 14.2842 150.625 13.7841 150.625C13.284 150.625 12.9402 150.587 12.9402 150.532C12.9402 150.474 12.5026 150.438 11.815 150.438C11.1273 150.438 10.6897 150.474 10.6897 150.532C10.6897 150.588 10.3146 150.625 9.75203 150.625C9.18941 150.625 8.81434 150.663 8.81434 150.719C8.81434 150.773 8.53303 150.813 8.15795 150.813C7.78287 150.813 7.50156 150.853 7.50156 150.907C7.50156 150.958 7.33278 151 7.12648 151C6.92019 151 6.75141 151.043 6.75141 151.094C6.75141 151.146 6.62482 151.188 6.4701 151.188C6.31538 151.188 6.18879 151.23 6.18879 151.282C6.18879 151.333 6.02 151.375 5.81371 151.375C5.60742 151.375 5.43863 151.418 5.43863 151.469C5.43863 151.521 5.31204 151.563 5.15732 151.563C5.0026 151.563 4.87602 151.605 4.87602 151.657C4.87602 151.708 4.74943 151.75 4.59471 151.75C4.43999 151.75 4.3134 151.793 4.3134 151.844C4.3134 151.896 4.22901 151.938 4.12586 151.938C4.02271 151.938 3.93832 151.98 3.93832 152.032C3.93832 152.083 3.81173 152.125 3.65701 152.125C3.50229 152.125 3.3757 152.168 3.3757 152.219C3.3757 152.271 3.24911 152.313 3.09439 152.313C2.87563 152.313 2.81309 152.271 2.81309 152.125C2.81309 152.022 2.77089 151.938 2.71932 151.938C2.66774 151.938 2.62555 151.811 2.62555 151.657C2.62555 151.502 2.58335 151.375 2.53178 151.375C2.4802 151.375 2.43801 151.291 2.43801 151.188C2.43801 151.085 2.39581 151 2.34424 151C2.29267 151 2.25047 150.874 2.25047 150.719C2.25047 150.564 2.20827 150.438 2.1567 150.438C2.10513 150.438 2.06293 150.354 2.06293 150.25C2.06293 150.147 2.02073 150.063 1.96916 150.063C1.91759 150.063 1.87539 149.936 1.87539 149.782C1.87539 149.627 1.83319 149.5 1.78162 149.5C1.73005 149.5 1.68785 149.374 1.68785 149.219C1.68785 149.064 1.64566 148.938 1.59408 148.938C1.54251 148.938 1.50031 148.854 1.50031 148.75C1.50031 148.647 1.45812 148.563 1.40654 148.563C1.35497 148.563 1.31277 148.436 1.31277 148.282C1.31277 148.127 1.27058 148 1.219 148C1.16743 148 1.12523 147.92 1.12523 147.821C1.12523 147.722 1.07366 147.624 1.01065 147.603C0.819546 147.539 1.37166 147.063 1.63675 147.063C1.76802 147.063 1.87539 147.021 1.87539 146.969C1.87539 146.918 2.00198 146.875 2.1567 146.875C2.31142 146.875 2.43801 146.833 2.43801 146.782C2.43801 146.73 2.5646 146.688 2.71932 146.688C2.87404 146.688 3.00063 146.646 3.00063 146.594C3.00063 146.543 3.12721 146.5 3.28193 146.5C3.43665 146.5 3.56324 146.458 3.56324 146.407C3.56324 146.355 3.68983 146.313 3.84455 146.313C3.99927 146.313 4.12586 146.271 4.12586 146.219C4.12586 146.168 4.29464 146.125 4.50094 146.125C4.70723 146.125 4.87602 146.083 4.87602 146.032C4.87602 145.98 5.0448 145.938 5.25109 145.938C5.45739 145.938 5.62617 145.896 5.62617 145.844C5.62617 145.793 5.79496 145.75 6.00125 145.75C6.20754 145.75 6.37633 145.708 6.37633 145.657C6.37633 145.605 6.62641 145.563 6.93895 145.563C7.25148 145.563 7.50156 145.521 7.50156 145.469C7.50156 145.416 7.78287 145.375 8.15795 145.375C8.53303 145.375 8.81434 145.335 8.81434 145.282C8.81434 145.226 9.15819 145.188 9.65826 145.188ZM42.3463 145.188C42.7839 145.188 43.0965 145.149 43.0965 145.094C43.0965 145.035 43.8466 145 45.1594 145C46.4722 145 47.2223 145.035 47.2223 145.094C47.2223 145.149 47.5349 145.188 47.9725 145.188C48.4101 145.188 48.7226 145.227 48.7226 145.282C48.7226 145.333 48.9336 145.375 49.1915 145.375C49.4494 145.375 49.6603 145.418 49.6603 145.469C49.6603 145.521 49.8291 145.563 50.0354 145.563C50.2417 145.563 50.4105 145.605 50.4105 145.657C50.4105 145.708 50.5793 145.75 50.7856 145.75C50.9919 145.75 51.1607 145.793 51.1607 145.844C51.1607 145.896 51.2872 145.938 51.442 145.938C51.5967 145.938 51.7233 145.98 51.7233 146.032C51.7233 146.083 51.8077 146.125 51.9108 146.125C52.014 146.125 52.0984 146.168 52.0984 146.219C52.0984 146.271 52.2249 146.313 52.3797 146.313C52.5344 146.313 52.661 146.355 52.661 146.407C52.661 146.458 52.7454 146.5 52.8485 146.5C52.9517 146.5 53.036 146.543 53.036 146.594C53.036 146.646 53.1204 146.688 53.2236 146.688C53.3267 146.688 53.4111 146.73 53.4111 146.782C53.4111 146.833 53.4955 146.875 53.5987 146.875C53.7018 146.875 53.7862 146.918 53.7862 146.969C53.7862 147.021 53.8613 147.063 53.953 147.063C54.0448 147.063 54.1807 147.147 54.2551 147.25C54.3294 147.354 54.456 147.438 54.5364 147.438C54.6167 147.438 54.7433 147.522 54.8177 147.625C54.892 147.729 55.0091 147.813 55.078 147.813C55.1468 147.813 55.4516 148.066 55.7554 148.375C56.0591 148.685 56.3732 148.938 56.4535 148.938C56.5337 148.938 56.5993 149.004 56.5993 149.085C56.5993 149.165 56.8103 149.437 57.0681 149.688C57.326 149.939 57.537 150.194 57.537 150.254C57.537 150.314 57.6636 150.481 57.8183 150.625C57.973 150.77 58.0996 150.956 58.0996 151.038C58.0996 151.12 58.1418 151.188 58.1934 151.188C58.2449 151.188 58.2871 151.263 58.2871 151.355C58.2871 151.446 58.3715 151.582 58.4747 151.657C58.5848 151.736 58.6622 151.899 58.6622 152.052C58.6622 152.196 58.7044 152.313 58.756 152.313C58.8076 152.313 58.8498 152.397 58.8498 152.5C58.8498 152.604 58.892 152.688 58.9435 152.688C58.9951 152.688 59.0373 152.772 59.0373 152.875C59.0373 152.979 59.0795 153.063 59.1311 153.063C59.1826 153.063 59.2248 153.189 59.2248 153.344C59.2248 153.499 59.267 153.625 59.3186 153.625C59.3702 153.625 59.4124 153.752 59.4124 153.907C59.4124 154.061 59.4546 154.188 59.5061 154.188C59.5577 154.188 59.5999 154.357 59.5999 154.563C59.5999 154.769 59.6421 154.938 59.6937 154.938C59.7453 154.938 59.7875 155.064 59.7875 155.219C59.7875 155.374 59.8297 155.5 59.8812 155.5C59.9334 155.5 59.975 155.75 59.975 156.063C59.975 156.375 60.0166 156.625 60.0688 156.625C60.125 156.625 60.1625 157 60.1625 157.563C60.1625 158.125 60.2 158.5 60.2563 158.5C60.3146 158.5 60.3501 159.032 60.3501 159.907C60.3501 160.782 60.3146 161.313 60.2563 161.313C60.1995 161.313 60.1625 161.719 60.1625 162.344C60.1625 162.969 60.1256 163.375 60.0688 163.375C60.0166 163.375 59.975 163.625 59.975 163.938C59.975 164.25 59.9334 164.5 59.8812 164.5C59.8297 164.5 59.7875 164.627 59.7875 164.782C59.7875 164.936 59.7453 165.063 59.6937 165.063C59.6421 165.063 59.5999 165.232 59.5999 165.438C59.5999 165.644 59.5577 165.813 59.5061 165.813C59.4546 165.813 59.4124 165.939 59.4124 166.094C59.4124 166.249 59.3702 166.375 59.3186 166.375C59.267 166.375 59.2248 166.502 59.2248 166.657C59.2248 166.811 59.1826 166.938 59.1311 166.938C59.0795 166.938 59.0373 167.022 59.0373 167.125C59.0373 167.229 58.9951 167.313 58.9435 167.313C58.892 167.313 58.8498 167.397 58.8498 167.5C58.8498 167.604 58.8076 167.688 58.756 167.688C58.7044 167.688 58.6622 167.772 58.6622 167.875C58.6622 167.979 58.62 168.063 58.5685 168.063C58.5169 168.063 58.4747 168.147 58.4747 168.25C58.4747 168.354 58.4325 168.438 58.3809 168.438C58.3293 168.438 58.2871 168.522 58.2871 168.625C58.2871 168.729 58.2449 168.813 58.1934 168.813C58.1418 168.813 58.0996 168.88 58.0996 168.963C58.0996 169.045 57.973 169.231 57.8183 169.375C57.6636 169.52 57.537 169.685 57.537 169.742C57.537 169.888 55.221 172.188 55.0738 172.188C55.0073 172.188 54.892 172.272 54.8177 172.375C54.7433 172.479 54.6167 172.563 54.5364 172.563C54.456 172.563 54.3294 172.647 54.2551 172.75C54.1807 172.854 54.0448 172.938 53.953 172.938C53.8613 172.938 53.7862 172.98 53.7862 173.032C53.7862 173.083 53.7018 173.125 53.5987 173.125C53.4955 173.125 53.4111 173.168 53.4111 173.219C53.4111 173.271 53.3267 173.313 53.2236 173.313C53.1204 173.313 53.036 173.355 53.036 173.407C53.036 173.458 52.9517 173.5 52.8485 173.5C52.7454 173.5 52.661 173.543 52.661 173.594C52.661 173.646 52.5344 173.688 52.3797 173.688C52.2249 173.688 52.0984 173.73 52.0984 173.782C52.0984 173.833 52.014 173.875 51.9108 173.875C51.8077 173.875 51.7233 173.918 51.7233 173.969C51.7233 174.021 51.5967 174.063 51.442 174.063C51.2872 174.063 51.1607 174.105 51.1607 174.157C51.1607 174.208 50.9919 174.25 50.7856 174.25C50.5793 174.25 50.4105 174.293 50.4105 174.344C50.4105 174.396 50.2417 174.438 50.0354 174.438C49.8291 174.438 49.6603 174.48 49.6603 174.532C49.6603 174.584 49.4103 174.625 49.0977 174.625C48.7852 174.625 48.5351 174.667 48.5351 174.719C48.5351 174.773 48.2538 174.813 47.8787 174.813C47.5036 174.813 47.2223 174.853 47.2223 174.907C47.2223 174.966 46.441 175 45.0656 175C43.6903 175 42.9089 174.966 42.9089 174.907C42.9089 174.853 42.6276 174.813 42.2526 174.813C41.8775 174.813 41.5962 174.773 41.5962 174.719C41.5962 174.666 41.3149 174.625 40.9398 174.625C40.5647 174.625 40.2834 174.585 40.2834 174.532C40.2834 174.48 40.1146 174.438 39.9083 174.438C39.702 174.438 39.5332 174.396 39.5332 174.344C39.5332 174.293 39.4066 174.25 39.2519 174.25C39.0972 174.25 38.9706 174.208 38.9706 174.157C38.9706 174.105 38.844 174.063 38.6893 174.063C38.5346 174.063 38.408 174.021 38.408 173.969C38.408 173.918 38.2814 173.875 38.1267 173.875C37.972 173.875 37.8454 173.833 37.8454 173.782C37.8454 173.73 37.761 173.688 37.6578 173.688C37.5547 173.688 37.4703 173.646 37.4703 173.594C37.4703 173.543 37.3859 173.5 37.2828 173.5C37.1796 173.5 37.0952 173.458 37.0952 173.407C37.0952 173.355 37.0108 173.313 36.9077 173.313C36.8045 173.313 36.7201 173.271 36.7201 173.219C36.7201 173.168 36.6358 173.125 36.5326 173.125C36.4295 173.125 36.3451 173.083 36.3451 173.032C36.3451 172.98 36.2607 172.938 36.1575 172.938C36.0544 172.938 35.97 172.896 35.97 172.844C35.97 172.793 35.8949 172.75 35.8032 172.75C35.7114 172.75 35.5755 172.666 35.5011 172.563C35.4268 172.46 35.3087 172.375 35.2387 172.375C35.1686 172.375 34.9492 172.207 34.751 172C34.5528 171.794 34.3442 171.625 34.2875 171.625C34.153 171.625 33.1569 170.629 33.1569 170.495C33.1569 170.438 32.9881 170.23 32.7818 170.032C32.5755 169.833 32.4067 169.614 32.4067 169.544C32.4067 169.474 32.3224 169.356 32.2192 169.282C32.1161 169.207 32.0317 169.081 32.0317 169C32.0317 168.92 31.9473 168.793 31.8441 168.719C31.741 168.645 31.6566 168.509 31.6566 168.417C31.6566 168.325 31.6144 168.25 31.5628 168.25C31.5113 168.25 31.4691 168.166 31.4691 168.063C31.4691 167.96 31.4269 167.875 31.3753 167.875C31.3237 167.875 31.2815 167.791 31.2815 167.688C31.2815 167.585 31.2393 167.5 31.1877 167.5C31.1362 167.5 31.094 167.374 31.094 167.219C31.094 167.064 31.0518 166.938 31.0002 166.938C30.9486 166.938 30.9064 166.854 30.9064 166.75C30.9064 166.647 30.8642 166.563 30.8127 166.563C30.7611 166.563 30.7189 166.436 30.7189 166.282C30.7189 166.127 30.6767 166 30.6251 166C30.5736 166 30.5314 165.832 30.5314 165.625C30.5314 165.419 30.4892 165.25 30.4376 165.25C30.386 165.25 30.3438 165.124 30.3438 164.969C30.3438 164.814 30.3016 164.688 30.2501 164.688C30.1979 164.688 30.1563 164.438 30.1563 164.125C30.1563 163.813 30.1146 163.563 30.0625 163.563C30.0078 163.563 29.9687 163.25 29.9687 162.813C29.9687 162.375 29.9296 162.063 29.875 162.063C29.8153 162.063 29.7812 161.313 29.7812 160C29.7812 158.688 29.8153 157.938 29.875 157.938C29.9296 157.938 29.9687 157.625 29.9687 157.188C29.9687 156.75 30.0078 156.438 30.0625 156.438C30.1146 156.438 30.1563 156.188 30.1563 155.875C30.1563 155.563 30.1979 155.313 30.2501 155.313C30.3016 155.313 30.3438 155.186 30.3438 155.032C30.3438 154.877 30.386 154.75 30.4376 154.75C30.4892 154.75 30.5314 154.582 30.5314 154.375C30.5314 154.169 30.5736 154 30.6251 154C30.6767 154 30.7189 153.874 30.7189 153.719C30.7189 153.564 30.7611 153.438 30.8127 153.438C30.8642 153.438 30.9064 153.354 30.9064 153.25C30.9064 153.147 30.9486 153.063 31.0002 153.063C31.0518 153.063 31.094 152.936 31.094 152.782C31.094 152.627 31.1362 152.5 31.1877 152.5C31.2393 152.5 31.2815 152.416 31.2815 152.313C31.2815 152.21 31.3237 152.125 31.3753 152.125C31.4269 152.125 31.4691 152.05 31.4691 151.959C31.4691 151.867 31.5534 151.731 31.6566 151.657C31.7597 151.582 31.8441 151.446 31.8441 151.355C31.8441 151.263 31.8863 151.188 31.9379 151.188C31.9895 151.188 32.0317 151.113 32.0317 151.021C32.0317 150.929 32.1161 150.793 32.2192 150.719C32.3224 150.645 32.4067 150.527 32.4067 150.458C32.4067 150.389 32.6177 150.127 32.8756 149.875C33.1335 149.624 33.3444 149.373 33.3444 149.316C33.3444 149.181 33.964 148.563 34.0988 148.563C34.1562 148.563 34.3652 148.394 34.5634 148.188C34.7617 147.982 34.9811 147.813 35.0511 147.813C35.1212 147.813 35.2392 147.729 35.3136 147.625C35.388 147.522 35.5146 147.438 35.5949 147.438C35.6753 147.438 35.8019 147.354 35.8762 147.25C35.9506 147.147 36.0865 147.063 36.1783 147.063C36.27 147.063 36.3451 147.021 36.3451 146.969C36.3451 146.918 36.4295 146.875 36.5326 146.875C36.6358 146.875 36.7201 146.833 36.7201 146.782C36.7201 146.73 36.8045 146.688 36.9077 146.688C37.0108 146.688 37.0952 146.646 37.0952 146.594C37.0952 146.543 37.1796 146.5 37.2828 146.5C37.3859 146.5 37.4703 146.458 37.4703 146.407C37.4703 146.355 37.5969 146.313 37.7516 146.313C37.9063 146.313 38.0329 146.271 38.0329 146.219C38.0329 146.168 38.1595 146.125 38.3142 146.125C38.469 146.125 38.5955 146.083 38.5955 146.032C38.5955 145.98 38.7221 145.938 38.8769 145.938C39.0316 145.938 39.1582 145.896 39.1582 145.844C39.1582 145.793 39.2847 145.75 39.4395 145.75C39.5942 145.75 39.7208 145.708 39.7208 145.657C39.7208 145.605 39.9318 145.563 40.1896 145.563C40.4475 145.563 40.6585 145.521 40.6585 145.469C40.6585 145.418 40.8694 145.375 41.1273 145.375C41.3852 145.375 41.5962 145.333 41.5962 145.282C41.5962 145.227 41.9087 145.188 42.3463 145.188ZM133.64 145.188C134.078 145.188 134.391 145.149 134.391 145.094C134.391 145.035 135.141 145 136.453 145C137.766 145 138.516 145.035 138.516 145.094C138.516 145.149 138.829 145.188 139.267 145.188C139.704 145.188 140.017 145.227 140.017 145.282C140.017 145.333 140.228 145.375 140.486 145.375C140.743 145.375 140.954 145.418 140.954 145.469C140.954 145.521 141.123 145.563 141.329 145.563C141.536 145.563 141.705 145.605 141.705 145.657C141.705 145.708 141.873 145.75 142.08 145.75C142.286 145.75 142.455 145.793 142.455 145.844C142.455 145.896 142.539 145.938 142.642 145.938C142.745 145.938 142.83 145.98 142.83 146.032C142.83 146.083 142.956 146.125 143.111 146.125C143.266 146.125 143.392 146.168 143.392 146.219C143.392 146.271 143.519 146.313 143.674 146.313C143.828 146.313 143.955 146.355 143.955 146.407C143.955 146.458 144.039 146.5 144.143 146.5C144.246 146.5 144.33 146.543 144.33 146.594C144.33 146.646 144.414 146.688 144.518 146.688C144.621 146.688 144.705 146.73 144.705 146.782C144.705 146.833 144.78 146.875 144.872 146.875C144.964 146.875 145.1 146.96 145.174 147.063C145.248 147.166 145.384 147.25 145.476 147.25C145.568 147.25 145.643 147.293 145.643 147.344C145.643 147.396 145.71 147.438 145.793 147.438C145.875 147.438 146.061 147.564 146.205 147.719C146.35 147.874 146.515 148 146.572 148C146.719 148 148.831 150.128 148.831 150.276C148.831 150.342 148.915 150.457 149.019 150.532C149.122 150.606 149.206 150.733 149.206 150.813C149.206 150.893 149.29 151.02 149.394 151.094C149.497 151.168 149.581 151.304 149.581 151.396C149.581 151.488 149.623 151.563 149.675 151.563C149.727 151.563 149.769 151.647 149.769 151.75C149.769 151.854 149.811 151.938 149.862 151.938C149.914 151.938 149.956 152.022 149.956 152.125C149.956 152.229 149.998 152.313 150.05 152.313C150.102 152.313 150.144 152.397 150.144 152.5C150.144 152.604 150.186 152.688 150.238 152.688C150.289 152.688 150.331 152.772 150.331 152.875C150.331 152.979 150.374 153.063 150.425 153.063C150.477 153.063 150.519 153.189 150.519 153.344C150.519 153.499 150.561 153.625 150.613 153.625C150.664 153.625 150.706 153.752 150.706 153.907C150.706 154.061 150.749 154.188 150.8 154.188C150.852 154.188 150.894 154.357 150.894 154.563C150.894 154.769 150.936 154.938 150.988 154.938C151.039 154.938 151.081 155.107 151.081 155.313C151.081 155.519 151.124 155.688 151.175 155.688C151.227 155.688 151.269 155.938 151.269 156.25C151.269 156.563 151.311 156.813 151.363 156.813C151.42 156.813 151.457 157.282 151.457 158.032C151.457 158.782 151.493 159.25 151.55 159.25C151.604 159.25 151.644 159.532 151.644 159.907C151.644 160.282 151.604 160.563 151.55 160.563C151.492 160.563 151.457 161.063 151.457 161.875C151.457 162.688 151.421 163.188 151.363 163.188C151.311 163.188 151.269 163.438 151.269 163.75C151.269 164.063 151.227 164.313 151.175 164.313C151.124 164.313 151.081 164.482 151.081 164.688C151.081 164.894 151.039 165.063 150.988 165.063C150.936 165.063 150.894 165.232 150.894 165.438C150.894 165.644 150.852 165.813 150.8 165.813C150.749 165.813 150.706 165.939 150.706 166.094C150.706 166.249 150.664 166.375 150.613 166.375C150.561 166.375 150.519 166.502 150.519 166.657C150.519 166.811 150.477 166.938 150.425 166.938C150.374 166.938 150.331 167.022 150.331 167.125C150.331 167.229 150.289 167.313 150.238 167.313C150.186 167.313 150.144 167.397 150.144 167.5C150.144 167.604 150.102 167.688 150.05 167.688C149.998 167.688 149.956 167.772 149.956 167.875C149.956 167.979 149.914 168.063 149.862 168.063C149.811 168.063 149.769 168.147 149.769 168.25C149.769 168.354 149.727 168.438 149.675 168.438C149.623 168.438 149.581 168.513 149.581 168.605C149.581 168.696 149.497 168.832 149.394 168.907C149.29 168.981 149.206 169.108 149.206 169.188C149.206 169.268 149.122 169.395 149.019 169.469C148.915 169.543 148.831 169.659 148.831 169.725C148.831 169.873 146.719 172 146.572 172C146.515 172 146.35 172.127 146.205 172.282C146.061 172.436 145.884 172.563 145.813 172.563C145.742 172.563 145.623 172.647 145.549 172.75C145.475 172.854 145.339 172.938 145.247 172.938C145.155 172.938 145.08 172.98 145.08 173.032C145.08 173.083 144.996 173.125 144.893 173.125C144.79 173.125 144.705 173.168 144.705 173.219C144.705 173.271 144.621 173.313 144.518 173.313C144.414 173.313 144.33 173.355 144.33 173.407C144.33 173.458 144.246 173.5 144.143 173.5C144.039 173.5 143.955 173.543 143.955 173.594C143.955 173.646 143.828 173.688 143.674 173.688C143.519 173.688 143.392 173.73 143.392 173.782C143.392 173.833 143.308 173.875 143.205 173.875C143.102 173.875 143.017 173.918 143.017 173.969C143.017 174.021 142.891 174.063 142.736 174.063C142.581 174.063 142.455 174.105 142.455 174.157C142.455 174.208 142.286 174.25 142.08 174.25C141.873 174.25 141.705 174.293 141.705 174.344C141.705 174.396 141.536 174.438 141.329 174.438C141.123 174.438 140.954 174.48 140.954 174.532C140.954 174.584 140.704 174.625 140.392 174.625C140.079 174.625 139.829 174.667 139.829 174.719C139.829 174.773 139.548 174.813 139.173 174.813C138.798 174.813 138.516 174.853 138.516 174.907C138.516 174.966 137.735 175 136.36 175C134.984 175 134.203 174.966 134.203 174.907C134.203 174.852 133.89 174.813 133.453 174.813C133.015 174.813 132.703 174.774 132.703 174.719C132.703 174.667 132.453 174.625 132.14 174.625C131.827 174.625 131.577 174.584 131.577 174.532C131.577 174.48 131.409 174.438 131.202 174.438C130.996 174.438 130.827 174.396 130.827 174.344C130.827 174.293 130.701 174.25 130.546 174.25C130.391 174.25 130.265 174.208 130.265 174.157C130.265 174.105 130.138 174.063 129.983 174.063C129.829 174.063 129.702 174.021 129.702 173.969C129.702 173.918 129.575 173.875 129.421 173.875C129.266 173.875 129.139 173.833 129.139 173.782C129.139 173.73 129.055 173.688 128.952 173.688C128.849 173.688 128.764 173.646 128.764 173.594C128.764 173.543 128.68 173.5 128.577 173.5C128.474 173.5 128.389 173.458 128.389 173.407C128.389 173.355 128.272 173.313 128.129 173.313C127.976 173.313 127.812 173.235 127.733 173.125C127.659 173.022 127.523 172.938 127.431 172.938C127.339 172.938 127.264 172.896 127.264 172.844C127.264 172.793 127.189 172.75 127.097 172.75C127.005 172.75 126.87 172.666 126.795 172.563C126.721 172.46 126.603 172.375 126.533 172.375C126.463 172.375 126.243 172.207 126.045 172C125.847 171.794 125.638 171.625 125.582 171.625C125.446 171.625 124.263 170.441 124.263 170.305C124.263 170.248 124.137 170.082 123.982 169.938C123.827 169.793 123.701 169.625 123.701 169.563C123.701 169.501 123.574 169.332 123.419 169.188C123.265 169.043 123.138 168.858 123.138 168.775C123.138 168.693 123.096 168.625 123.044 168.625C122.993 168.625 122.951 168.541 122.951 168.438C122.951 168.335 122.908 168.25 122.857 168.25C122.805 168.25 122.763 168.166 122.763 168.063C122.763 167.96 122.721 167.875 122.669 167.875C122.618 167.875 122.576 167.791 122.576 167.688C122.576 167.585 122.533 167.5 122.482 167.5C122.43 167.5 122.388 167.416 122.388 167.313C122.388 167.21 122.346 167.125 122.294 167.125C122.243 167.125 122.2 166.999 122.2 166.844C122.2 166.689 122.158 166.563 122.107 166.563C122.055 166.563 122.013 166.436 122.013 166.282C122.013 166.127 121.971 166 121.919 166C121.868 166 121.825 165.874 121.825 165.719C121.825 165.564 121.783 165.438 121.732 165.438C121.68 165.438 121.638 165.269 121.638 165.063C121.638 164.857 121.596 164.688 121.544 164.688C121.492 164.688 121.45 164.477 121.45 164.219C121.45 163.961 121.408 163.75 121.357 163.75C121.303 163.75 121.263 163.469 121.263 163.094C121.263 162.719 121.223 162.438 121.169 162.438C121.109 162.438 121.075 161.594 121.075 160.094C121.075 158.594 121.109 157.75 121.169 157.75C121.224 157.75 121.263 157.438 121.263 157C121.263 156.563 121.302 156.25 121.357 156.25C121.408 156.25 121.45 156.039 121.45 155.782C121.45 155.524 121.492 155.313 121.544 155.313C121.596 155.313 121.638 155.144 121.638 154.938C121.638 154.732 121.68 154.563 121.732 154.563C121.783 154.563 121.825 154.436 121.825 154.282C121.825 154.127 121.868 154 121.919 154C121.971 154 122.013 153.874 122.013 153.719C122.013 153.564 122.055 153.438 122.107 153.438C122.158 153.438 122.2 153.311 122.2 153.157C122.2 153.002 122.243 152.875 122.294 152.875C122.346 152.875 122.388 152.791 122.388 152.688C122.388 152.585 122.43 152.5 122.482 152.5C122.533 152.5 122.576 152.416 122.576 152.313C122.576 152.21 122.618 152.125 122.669 152.125C122.721 152.125 122.763 152.041 122.763 151.938C122.763 151.835 122.805 151.75 122.857 151.75C122.908 151.75 122.951 151.666 122.951 151.563C122.951 151.46 122.993 151.375 123.044 151.375C123.096 151.375 123.138 151.308 123.138 151.225C123.138 151.143 123.265 150.957 123.419 150.813C123.574 150.668 123.701 150.5 123.701 150.438C123.701 150.376 123.827 150.207 123.982 150.063C124.137 149.918 124.263 149.753 124.263 149.695C124.263 149.559 125.447 148.375 125.584 148.375C125.641 148.375 125.807 148.249 125.951 148.094C126.096 147.939 126.272 147.813 126.343 147.813C126.414 147.813 126.533 147.729 126.608 147.625C126.682 147.522 126.809 147.438 126.889 147.438C126.969 147.438 127.096 147.354 127.17 147.25C127.245 147.147 127.38 147.063 127.472 147.063C127.564 147.063 127.639 147.021 127.639 146.969C127.639 146.918 127.723 146.875 127.827 146.875C127.93 146.875 128.014 146.833 128.014 146.782C128.014 146.73 128.099 146.688 128.202 146.688C128.305 146.688 128.389 146.646 128.389 146.594C128.389 146.543 128.474 146.5 128.577 146.5C128.68 146.5 128.764 146.458 128.764 146.407C128.764 146.355 128.891 146.313 129.046 146.313C129.2 146.313 129.327 146.271 129.327 146.219C129.327 146.168 129.454 146.125 129.608 146.125C129.763 146.125 129.89 146.083 129.89 146.032C129.89 145.98 130.016 145.938 130.171 145.938C130.326 145.938 130.452 145.896 130.452 145.844C130.452 145.793 130.579 145.75 130.733 145.75C130.888 145.75 131.015 145.708 131.015 145.657C131.015 145.605 131.226 145.563 131.484 145.563C131.742 145.563 131.952 145.521 131.952 145.469C131.952 145.418 132.163 145.375 132.421 145.375C132.679 145.375 132.89 145.333 132.89 145.282C132.89 145.227 133.203 145.188 133.64 145.188ZM71.7337 174.438H64.701V160V145.563H71.9212C76.6723 145.563 79.1415 145.595 79.1415 145.657C79.1415 145.714 79.5791 145.75 80.2667 145.75C80.9543 145.75 81.392 145.787 81.392 145.844C81.392 145.898 81.6733 145.938 82.0483 145.938C82.4234 145.938 82.7047 145.978 82.7047 146.032C82.7047 146.084 82.9548 146.125 83.2673 146.125C83.5799 146.125 83.83 146.167 83.83 146.219C83.83 146.271 83.9987 146.313 84.205 146.313C84.4113 146.313 84.5801 146.355 84.5801 146.407C84.5801 146.458 84.7067 146.5 84.8614 146.5C85.0161 146.5 85.1427 146.543 85.1427 146.594C85.1427 146.646 85.2693 146.688 85.424 146.688C85.5788 146.688 85.7054 146.73 85.7054 146.782C85.7054 146.833 85.7897 146.875 85.8929 146.875C85.996 146.875 86.0804 146.918 86.0804 146.969C86.0804 147.021 86.1648 147.063 86.268 147.063C86.3711 147.063 86.4555 147.105 86.4555 147.157C86.4555 147.208 86.5306 147.25 86.6223 147.25C86.7141 147.25 86.85 147.335 86.9244 147.438C86.9987 147.541 87.1144 147.625 87.1815 147.625C87.3404 147.625 88.3309 148.616 88.3309 148.775C88.3309 148.842 88.4153 148.957 88.5184 149.032C88.6216 149.106 88.706 149.242 88.706 149.334C88.706 149.425 88.7482 149.5 88.7998 149.5C88.8513 149.5 88.8935 149.585 88.8935 149.688C88.8935 149.791 88.9357 149.875 88.9873 149.875C89.0389 149.875 89.0811 149.96 89.0811 150.063C89.0811 150.166 89.1233 150.25 89.1748 150.25C89.2264 150.25 89.2686 150.377 89.2686 150.532C89.2686 150.686 89.3108 150.813 89.3624 150.813C89.4139 150.813 89.4561 151.024 89.4561 151.282C89.4561 151.539 89.4983 151.75 89.5499 151.75C89.6062 151.75 89.6437 152.125 89.6437 152.688C89.6437 153.25 89.6062 153.625 89.5499 153.625C89.4983 153.625 89.4561 153.794 89.4561 154C89.4561 154.207 89.4139 154.375 89.3624 154.375C89.3108 154.375 89.2686 154.502 89.2686 154.657C89.2686 154.811 89.2264 154.938 89.1748 154.938C89.1233 154.938 89.0811 155.022 89.0811 155.125C89.0811 155.229 89.0389 155.313 88.9873 155.313C88.9357 155.313 88.8935 155.388 88.8935 155.48C88.8935 155.571 88.8091 155.707 88.706 155.782C88.6028 155.856 88.5184 155.972 88.5184 156.039C88.5184 156.198 87.7163 157 87.557 157C87.4897 157 87.3738 157.085 87.2994 157.188C87.2251 157.291 87.0985 157.375 87.0181 157.375C86.9378 157.375 86.8112 157.46 86.7368 157.563C86.6574 157.673 86.494 157.75 86.341 157.75C86.1977 157.75 86.0804 157.793 86.0804 157.844C86.0804 157.896 85.996 157.938 85.8929 157.938C85.7897 157.938 85.7054 157.98 85.7054 158.032C85.7054 158.083 85.621 158.125 85.5178 158.125C85.4147 158.125 85.3303 158.168 85.3303 158.219C85.3303 158.271 85.2218 158.313 85.0892 158.313C84.9565 158.313 84.7847 158.376 84.7074 158.454C84.5824 158.578 84.5824 158.61 84.7074 158.735C84.7847 158.812 84.9565 158.875 85.0892 158.875C85.2218 158.875 85.3303 158.918 85.3303 158.969C85.3303 159.021 85.4147 159.063 85.5178 159.063C85.621 159.063 85.7054 159.105 85.7054 159.157C85.7054 159.208 85.7897 159.25 85.8929 159.25C85.996 159.25 86.0804 159.293 86.0804 159.344C86.0804 159.396 86.207 159.438 86.3617 159.438C86.5165 159.438 86.6431 159.48 86.6431 159.532C86.6431 159.583 86.7182 159.625 86.8099 159.625C86.9017 159.625 87.0375 159.71 87.1119 159.813C87.1863 159.916 87.3221 160 87.4139 160C87.5056 160 87.5807 160.043 87.5807 160.094C87.5807 160.146 87.6447 160.188 87.7229 160.188C87.8958 160.188 89.2686 161.542 89.2686 161.713C89.2686 161.779 89.353 161.895 89.4561 161.969C89.5593 162.043 89.6437 162.179 89.6437 162.271C89.6437 162.363 89.6859 162.438 89.7374 162.438C89.789 162.438 89.8312 162.564 89.8312 162.719C89.8312 162.874 89.8734 163 89.925 163C89.9766 163 90.0188 163.127 90.0188 163.282C90.0188 163.436 90.061 163.563 90.1125 163.563C90.1647 163.563 90.2063 163.813 90.2063 164.125C90.2063 164.438 90.2479 164.688 90.3001 164.688C90.3574 164.688 90.3938 165.125 90.3938 165.813C90.3938 166.5 90.3574 166.938 90.3001 166.938C90.2479 166.938 90.2063 167.188 90.2063 167.5C90.2063 167.813 90.1647 168.063 90.1125 168.063C90.061 168.063 90.0188 168.189 90.0188 168.344C90.0188 168.499 89.9766 168.625 89.925 168.625C89.8734 168.625 89.8312 168.752 89.8312 168.907C89.8312 169.061 89.789 169.188 89.7374 169.188C89.6859 169.188 89.6437 169.272 89.6437 169.375C89.6437 169.479 89.6015 169.563 89.5499 169.563C89.4983 169.563 89.4561 169.647 89.4561 169.75C89.4561 169.854 89.4139 169.938 89.3624 169.938C89.3108 169.938 89.2686 170.005 89.2686 170.088C89.2686 170.17 89.142 170.356 88.9873 170.5C88.8326 170.645 88.706 170.811 88.706 170.869C88.706 171.006 87.8988 171.813 87.7615 171.813C87.7035 171.813 87.5377 171.939 87.3932 172.094C87.2487 172.249 87.063 172.375 86.9805 172.375C86.898 172.375 86.8306 172.418 86.8306 172.469C86.8306 172.521 86.7462 172.563 86.6431 172.563C86.5399 172.563 86.4555 172.605 86.4555 172.657C86.4555 172.708 86.3711 172.75 86.268 172.75C86.1648 172.75 86.0804 172.793 86.0804 172.844C86.0804 172.896 85.996 172.938 85.8929 172.938C85.7897 172.938 85.7054 172.98 85.7054 173.032C85.7054 173.083 85.621 173.125 85.5178 173.125C85.4147 173.125 85.3303 173.168 85.3303 173.219C85.3303 173.271 85.2037 173.313 85.049 173.313C84.8942 173.313 84.7677 173.355 84.7677 173.407C84.7677 173.458 84.6411 173.5 84.4864 173.5C84.3316 173.5 84.205 173.543 84.205 173.594C84.205 173.646 84.0363 173.688 83.83 173.688C83.6237 173.688 83.4549 173.73 83.4549 173.782C83.4549 173.833 83.2439 173.875 82.986 173.875C82.7282 173.875 82.5172 173.918 82.5172 173.969C82.5172 174.024 82.2047 174.063 81.767 174.063C81.3294 174.063 81.0169 174.102 81.0169 174.157C81.0169 174.214 80.5793 174.25 79.8916 174.25C79.204 174.25 78.7664 174.287 78.7664 174.344C78.7664 174.406 76.3596 174.438 71.7337 174.438ZM101.534 174.438H97.7829V160V145.563H108.66H119.537V146.782C119.537 147.532 119.501 148 119.444 148C119.386 148 119.35 148.438 119.35 149.125C119.35 149.813 119.313 150.25 119.256 150.25C119.204 150.25 119.162 150.5 119.162 150.813V151.375H112.223H105.284V162.907V174.438H101.534ZM159.612 174.438H155.995V160V145.563H162.09C166.091 145.563 168.185 145.595 168.185 145.657C168.185 145.715 168.685 145.75 169.498 145.75C170.311 145.75 170.811 145.786 170.811 145.844C170.811 145.898 171.092 145.938 171.467 145.938C171.842 145.938 172.123 145.978 172.123 146.032C172.123 146.083 172.334 146.125 172.592 146.125C172.85 146.125 173.061 146.168 173.061 146.219C173.061 146.271 173.23 146.313 173.436 146.313C173.642 146.313 173.811 146.355 173.811 146.407C173.811 146.458 173.938 146.5 174.093 146.5C174.247 146.5 174.374 146.543 174.374 146.594C174.374 146.646 174.458 146.688 174.561 146.688C174.665 146.688 174.749 146.73 174.749 146.782C174.749 146.833 174.875 146.875 175.03 146.875C175.185 146.875 175.312 146.918 175.312 146.969C175.312 147.021 175.387 147.063 175.478 147.063C175.57 147.063 175.706 147.147 175.78 147.25C175.855 147.354 175.991 147.438 176.082 147.438C176.174 147.438 176.249 147.48 176.249 147.532C176.249 147.583 176.317 147.625 176.399 147.625C176.482 147.625 176.667 147.752 176.812 147.907C176.956 148.061 177.122 148.188 177.18 148.188C177.326 148.188 178.312 149.188 178.312 149.337C178.312 149.404 178.397 149.52 178.5 149.594C178.603 149.668 178.687 149.795 178.687 149.875C178.687 149.956 178.772 150.082 178.875 150.157C178.978 150.231 179.062 150.367 179.062 150.459C179.062 150.55 179.104 150.625 179.156 150.625C179.208 150.625 179.25 150.752 179.25 150.907C179.25 151.061 179.292 151.188 179.344 151.188C179.395 151.188 179.437 151.272 179.437 151.375C179.437 151.479 179.48 151.563 179.531 151.563C179.583 151.563 179.625 151.689 179.625 151.844C179.625 151.999 179.667 152.125 179.719 152.125C179.771 152.125 179.812 152.375 179.812 152.688C179.812 153 179.854 153.25 179.906 153.25C179.965 153.25 180 153.844 180 154.844C180 155.844 179.965 156.438 179.906 156.438C179.854 156.438 179.812 156.688 179.812 157C179.812 157.313 179.771 157.563 179.719 157.563C179.667 157.563 179.625 157.732 179.625 157.938C179.625 158.144 179.583 158.313 179.531 158.313C179.48 158.313 179.437 158.397 179.437 158.5C179.437 158.604 179.395 158.688 179.344 158.688C179.292 158.688 179.25 158.814 179.25 158.969C179.25 159.124 179.208 159.25 179.156 159.25C179.104 159.25 179.062 159.335 179.062 159.438C179.062 159.541 179.02 159.625 178.969 159.625C178.917 159.625 178.875 159.7 178.875 159.792C178.875 159.884 178.79 160.02 178.687 160.094C178.584 160.168 178.5 160.287 178.5 160.359C178.5 160.429 178.373 160.606 178.218 160.75C178.064 160.895 177.937 161.06 177.937 161.118C177.937 161.255 176.942 162.25 176.805 162.25C176.747 162.25 176.581 162.377 176.437 162.532C176.292 162.686 176.116 162.813 176.045 162.813C175.974 162.813 175.855 162.897 175.78 163C175.706 163.104 175.57 163.188 175.478 163.188C175.387 163.188 175.312 163.23 175.312 163.282C175.312 163.333 175.227 163.375 175.124 163.375C175.021 163.375 174.936 163.418 174.936 163.469C174.936 163.521 174.852 163.563 174.749 163.563C174.646 163.563 174.561 163.605 174.561 163.657C174.561 163.708 174.435 163.75 174.28 163.75C174.125 163.75 173.999 163.793 173.999 163.844C173.999 163.896 173.872 163.938 173.717 163.938C173.563 163.938 173.436 163.98 173.436 164.032C173.436 164.083 173.225 164.125 172.967 164.125C172.709 164.125 172.498 164.168 172.498 164.219C172.498 164.271 172.33 164.313 172.123 164.313C171.917 164.313 171.748 164.355 171.748 164.407C171.748 164.46 171.467 164.5 171.092 164.5C170.717 164.5 170.436 164.541 170.436 164.594C170.436 164.655 169.217 164.688 166.966 164.688H163.497V169.429C163.497 173.413 163.475 174.191 163.363 174.304C163.251 174.415 162.621 174.438 159.612 174.438ZM46.941 150.813C46.6832 150.813 46.4722 150.771 46.4722 150.719C46.4722 150.661 45.9721 150.625 45.1594 150.625C44.3467 150.625 43.8466 150.661 43.8466 150.719C43.8466 150.771 43.5965 150.813 43.284 150.813C42.9715 150.813 42.7214 150.855 42.7214 150.907C42.7214 150.958 42.5948 151 42.4401 151C42.2854 151 42.1588 151.043 42.1588 151.094C42.1588 151.146 42.0322 151.188 41.8775 151.188C41.7228 151.188 41.5962 151.23 41.5962 151.282C41.5962 151.333 41.5118 151.375 41.4086 151.375C41.3055 151.375 41.2211 151.418 41.2211 151.469C41.2211 151.521 41.146 151.563 41.0543 151.563C40.9625 151.563 40.8266 151.647 40.7522 151.75C40.6779 151.854 40.562 151.938 40.4947 151.938C40.3451 151.938 39.5332 152.735 39.5332 152.882C39.5332 152.94 39.4066 153.106 39.2519 153.25C39.0972 153.395 38.9706 153.581 38.9706 153.663C38.9706 153.745 38.9284 153.813 38.8769 153.813C38.8253 153.813 38.7831 153.897 38.7831 154C38.7831 154.104 38.7409 154.188 38.6893 154.188C38.6377 154.188 38.5955 154.272 38.5955 154.375C38.5955 154.479 38.5533 154.563 38.5018 154.563C38.4502 154.563 38.408 154.647 38.408 154.75C38.408 154.854 38.3658 154.938 38.3142 154.938C38.2627 154.938 38.2205 155.064 38.2205 155.219C38.2205 155.374 38.1783 155.5 38.1267 155.5C38.0751 155.5 38.0329 155.669 38.0329 155.875C38.0329 156.082 37.9907 156.25 37.9392 156.25C37.8876 156.25 37.8454 156.461 37.8454 156.719C37.8454 156.977 37.8032 157.188 37.7516 157.188C37.6969 157.188 37.6578 157.5 37.6578 157.938C37.6578 158.375 37.6187 158.688 37.5641 158.688C37.5057 158.688 37.4703 159.219 37.4703 160.094C37.4703 160.969 37.5057 161.5 37.5641 161.5C37.6176 161.5 37.6578 161.782 37.6578 162.157C37.6578 162.532 37.6981 162.813 37.7516 162.813C37.8032 162.813 37.8454 163.024 37.8454 163.282C37.8454 163.539 37.8876 163.75 37.9392 163.75C37.9907 163.75 38.0329 163.919 38.0329 164.125C38.0329 164.332 38.0751 164.5 38.1267 164.5C38.1783 164.5 38.2205 164.627 38.2205 164.782C38.2205 164.936 38.2627 165.063 38.3142 165.063C38.3658 165.063 38.408 165.147 38.408 165.25C38.408 165.354 38.4502 165.438 38.5018 165.438C38.5533 165.438 38.5955 165.522 38.5955 165.625C38.5955 165.729 38.6377 165.813 38.6893 165.813C38.7409 165.813 38.7831 165.897 38.7831 166C38.7831 166.104 38.8253 166.188 38.8769 166.188C38.9284 166.188 38.9706 166.263 38.9706 166.355C38.9706 166.446 39.055 166.582 39.1582 166.657C39.2613 166.731 39.3457 166.847 39.3457 166.914C39.3457 167.073 40.3362 168.063 40.4951 168.063C40.5622 168.063 40.6779 168.147 40.7522 168.25C40.8266 168.354 40.9625 168.438 41.0543 168.438C41.146 168.438 41.2211 168.48 41.2211 168.532C41.2211 168.583 41.3055 168.625 41.4086 168.625C41.5118 168.625 41.5962 168.668 41.5962 168.719C41.5962 168.771 41.6806 168.813 41.7837 168.813C41.8869 168.813 41.9712 168.855 41.9712 168.907C41.9712 168.958 42.0978 169 42.2526 169C42.4073 169 42.5339 169.043 42.5339 169.094C42.5339 169.146 42.7448 169.188 43.0027 169.188C43.2606 169.188 43.4716 169.23 43.4716 169.282C43.4716 169.34 44.0654 169.375 45.0656 169.375C46.0659 169.375 46.6597 169.34 46.6597 169.282C46.6597 169.23 46.8285 169.188 47.0348 169.188C47.2411 169.188 47.4099 169.146 47.4099 169.094C47.4099 169.043 47.5787 169 47.785 169C47.9912 169 48.16 168.958 48.16 168.907C48.16 168.855 48.2444 168.813 48.3476 168.813C48.4507 168.813 48.5351 168.771 48.5351 168.719C48.5351 168.668 48.6195 168.625 48.7226 168.625C48.8258 168.625 48.9102 168.583 48.9102 168.532C48.9102 168.48 48.9853 168.438 49.077 168.438C49.1688 168.438 49.3047 168.354 49.379 168.25C49.4534 168.147 49.5693 168.063 49.6366 168.063C49.7959 168.063 50.598 167.261 50.598 167.102C50.598 167.034 50.6824 166.918 50.7856 166.844C50.8887 166.77 50.9731 166.634 50.9731 166.542C50.9731 166.45 51.0153 166.375 51.0669 166.375C51.1185 166.375 51.1607 166.3 51.1607 166.209C51.1607 166.117 51.245 165.981 51.3482 165.907C51.4583 165.827 51.5357 165.664 51.5357 165.511C51.5357 165.368 51.5779 165.25 51.6295 165.25C51.6811 165.25 51.7233 165.166 51.7233 165.063C51.7233 164.96 51.7655 164.875 51.817 164.875C51.8686 164.875 51.9108 164.749 51.9108 164.594C51.9108 164.439 51.953 164.313 52.0046 164.313C52.0562 164.313 52.0984 164.144 52.0984 163.938C52.0984 163.732 52.1405 163.563 52.1921 163.563C52.2443 163.563 52.2859 163.313 52.2859 163C52.2859 162.688 52.3275 162.438 52.3797 162.438C52.4365 162.438 52.4734 162.032 52.4734 161.407C52.4734 160.782 52.5104 160.375 52.5672 160.375C52.6188 160.375 52.661 160.207 52.661 160C52.661 159.794 52.6188 159.625 52.5672 159.625C52.5104 159.625 52.4734 159.219 52.4734 158.594C52.4734 157.969 52.4365 157.563 52.3797 157.563C52.3275 157.563 52.2859 157.313 52.2859 157C52.2859 156.688 52.2443 156.438 52.1921 156.438C52.1405 156.438 52.0984 156.269 52.0984 156.063C52.0984 155.857 52.0562 155.688 52.0046 155.688C51.953 155.688 51.9108 155.561 51.9108 155.407C51.9108 155.252 51.8686 155.125 51.817 155.125C51.7655 155.125 51.7233 155.041 51.7233 154.938C51.7233 154.835 51.6811 154.75 51.6295 154.75C51.5779 154.75 51.5357 154.624 51.5357 154.469C51.5357 154.314 51.4935 154.188 51.442 154.188C51.3904 154.188 51.3482 154.113 51.3482 154.021C51.3482 153.929 51.2638 153.793 51.1607 153.719C51.0575 153.645 50.9731 153.526 50.9731 153.455C50.9731 153.384 50.8465 153.207 50.6918 153.063C50.5371 152.918 50.4105 152.752 50.4105 152.693C50.4105 152.554 49.9821 152.125 49.8429 152.125C49.7838 152.125 49.6173 151.999 49.4728 151.844C49.3283 151.689 49.1426 151.563 49.0601 151.563C48.9776 151.563 48.9102 151.521 48.9102 151.469C48.9102 151.418 48.8258 151.375 48.7226 151.375C48.6195 151.375 48.5351 151.333 48.5351 151.282C48.5351 151.23 48.4507 151.188 48.3476 151.188C48.2444 151.188 48.16 151.146 48.16 151.094C48.16 151.043 47.9912 151 47.785 151C47.5787 151 47.4099 150.958 47.4099 150.907C47.4099 150.855 47.1989 150.813 46.941 150.813ZM138.235 150.813C137.977 150.813 137.766 150.771 137.766 150.719C137.766 150.661 137.266 150.625 136.453 150.625C135.641 150.625 135.141 150.661 135.141 150.719C135.141 150.771 134.891 150.813 134.578 150.813C134.266 150.813 134.015 150.855 134.015 150.907C134.015 150.958 133.889 151 133.734 151C133.579 151 133.453 151.043 133.453 151.094C133.453 151.146 133.326 151.188 133.171 151.188C133.017 151.188 132.89 151.23 132.89 151.282C132.89 151.333 132.806 151.375 132.703 151.375C132.6 151.375 132.515 151.418 132.515 151.469C132.515 151.521 132.44 151.563 132.348 151.563C132.256 151.563 132.121 151.647 132.046 151.75C131.972 151.854 131.856 151.938 131.789 151.938C131.63 151.938 130.64 152.928 130.64 153.087C130.64 153.154 130.555 153.27 130.452 153.344C130.349 153.418 130.265 153.554 130.265 153.646C130.265 153.738 130.222 153.813 130.171 153.813C130.119 153.813 130.077 153.897 130.077 154C130.077 154.104 130.035 154.188 129.983 154.188C129.932 154.188 129.89 154.272 129.89 154.375C129.89 154.479 129.847 154.563 129.796 154.563C129.744 154.563 129.702 154.647 129.702 154.75C129.702 154.854 129.66 154.938 129.608 154.938C129.557 154.938 129.514 155.064 129.514 155.219C129.514 155.374 129.472 155.5 129.421 155.5C129.369 155.5 129.327 155.669 129.327 155.875C129.327 156.082 129.285 156.25 129.233 156.25C129.182 156.25 129.139 156.419 129.139 156.625C129.139 156.832 129.097 157 129.046 157C128.991 157 128.952 157.313 128.952 157.75C128.952 158.188 128.913 158.5 128.858 158.5C128.799 158.5 128.764 159.094 128.764 160.094C128.764 161.094 128.799 161.688 128.858 161.688C128.912 161.688 128.952 161.969 128.952 162.344C128.952 162.719 128.992 163 129.046 163C129.097 163 129.139 163.169 129.139 163.375C129.139 163.582 129.182 163.75 129.233 163.75C129.285 163.75 129.327 163.919 129.327 164.125C129.327 164.332 129.369 164.5 129.421 164.5C129.472 164.5 129.514 164.627 129.514 164.782C129.514 164.936 129.557 165.063 129.608 165.063C129.66 165.063 129.702 165.147 129.702 165.25C129.702 165.354 129.744 165.438 129.796 165.438C129.847 165.438 129.89 165.522 129.89 165.625C129.89 165.729 129.932 165.813 129.983 165.813C130.035 165.813 130.077 165.897 130.077 166C130.077 166.104 130.119 166.188 130.171 166.188C130.222 166.188 130.265 166.263 130.265 166.355C130.265 166.446 130.349 166.582 130.452 166.657C130.555 166.731 130.64 166.847 130.64 166.913C130.64 167.084 131.824 168.25 131.998 168.25C132.076 168.25 132.14 168.293 132.14 168.344C132.14 168.396 132.224 168.438 132.328 168.438C132.431 168.438 132.515 168.48 132.515 168.532C132.515 168.583 132.6 168.625 132.703 168.625C132.806 168.625 132.89 168.668 132.89 168.719C132.89 168.771 132.975 168.813 133.078 168.813C133.181 168.813 133.265 168.855 133.265 168.907C133.265 168.958 133.392 169 133.547 169C133.701 169 133.828 169.043 133.828 169.094C133.828 169.146 134.039 169.188 134.297 169.188C134.555 169.188 134.766 169.23 134.766 169.282C134.766 169.34 135.359 169.375 136.36 169.375C137.36 169.375 137.954 169.34 137.954 169.282C137.954 169.23 138.123 169.188 138.329 169.188C138.535 169.188 138.704 169.146 138.704 169.094C138.704 169.043 138.83 169 138.985 169C139.14 169 139.267 168.958 139.267 168.907C139.267 168.855 139.393 168.813 139.548 168.813C139.703 168.813 139.829 168.771 139.829 168.719C139.829 168.668 139.914 168.625 140.017 168.625C140.12 168.625 140.204 168.583 140.204 168.532C140.204 168.48 140.272 168.438 140.354 168.438C140.437 168.438 140.622 168.311 140.767 168.157C140.911 168.002 141.078 167.875 141.137 167.875C141.276 167.875 141.705 167.447 141.705 167.308C141.705 167.249 141.831 167.082 141.986 166.938C142.141 166.793 142.267 166.608 142.267 166.525C142.267 166.443 142.309 166.375 142.361 166.375C142.412 166.375 142.455 166.291 142.455 166.188C142.455 166.085 142.497 166 142.548 166C142.6 166 142.642 165.916 142.642 165.813C142.642 165.71 142.684 165.625 142.736 165.625C142.788 165.625 142.83 165.541 142.83 165.438C142.83 165.335 142.872 165.25 142.924 165.25C142.975 165.25 143.017 165.166 143.017 165.063C143.017 164.96 143.059 164.875 143.111 164.875C143.163 164.875 143.205 164.707 143.205 164.5C143.205 164.294 143.247 164.125 143.299 164.125C143.35 164.125 143.392 163.957 143.392 163.75C143.392 163.544 143.435 163.375 143.486 163.375C143.538 163.375 143.58 163.164 143.58 162.907C143.58 162.649 143.622 162.438 143.674 162.438C143.734 162.438 143.767 161.532 143.767 159.907C143.767 158.282 143.734 157.375 143.674 157.375C143.622 157.375 143.58 157.207 143.58 157C143.58 156.794 143.538 156.625 143.486 156.625C143.435 156.625 143.392 156.457 143.392 156.25C143.392 156.044 143.35 155.875 143.299 155.875C143.247 155.875 143.205 155.707 143.205 155.5C143.205 155.294 143.163 155.125 143.111 155.125C143.059 155.125 143.017 155.041 143.017 154.938C143.017 154.835 142.975 154.75 142.924 154.75C142.872 154.75 142.83 154.666 142.83 154.563C142.83 154.46 142.788 154.375 142.736 154.375C142.684 154.375 142.642 154.291 142.642 154.188C142.642 154.085 142.6 154 142.548 154C142.497 154 142.455 153.925 142.455 153.834C142.455 153.742 142.37 153.606 142.267 153.532C142.164 153.457 142.08 153.342 142.08 153.275C142.08 153.105 140.519 151.563 140.346 151.563C140.268 151.563 140.204 151.521 140.204 151.469C140.204 151.418 140.12 151.375 140.017 151.375C139.914 151.375 139.829 151.333 139.829 151.282C139.829 151.23 139.703 151.188 139.548 151.188C139.393 151.188 139.267 151.146 139.267 151.094C139.267 151.043 139.14 151 138.985 151C138.83 151 138.704 150.958 138.704 150.907C138.704 150.855 138.493 150.813 138.235 150.813ZM79.6103 151.375C79.3525 151.375 79.1415 151.333 79.1415 151.282C79.1415 151.221 77.9225 151.188 75.672 151.188H72.2025V153.96C72.2025 156.238 72.2265 156.756 72.3365 156.866C72.4443 156.974 72.8652 157 74.4932 157C75.7792 157 76.5159 156.966 76.5159 156.907C76.5159 156.848 77.0473 156.813 77.9225 156.813C78.7976 156.813 79.329 156.777 79.329 156.719C79.329 156.668 79.4978 156.625 79.7041 156.625C79.9104 156.625 80.0792 156.583 80.0792 156.532C80.0792 156.48 80.1965 156.438 80.3398 156.438C80.4928 156.438 80.6561 156.36 80.7356 156.25C80.8099 156.147 80.9267 156.063 80.9949 156.063C81.1661 156.063 81.5795 155.635 81.5795 155.458C81.5795 155.378 81.6217 155.313 81.6733 155.313C81.7248 155.313 81.767 155.229 81.767 155.125C81.767 155.022 81.8092 154.938 81.8608 154.938C81.9176 154.938 81.9546 154.532 81.9546 153.907C81.9546 153.282 81.9176 152.875 81.8608 152.875C81.8092 152.875 81.767 152.811 81.767 152.732C81.767 152.546 80.971 151.75 80.7849 151.75C80.7062 151.75 80.6418 151.708 80.6418 151.657C80.6418 151.605 80.5152 151.563 80.3605 151.563C80.2058 151.563 80.0792 151.521 80.0792 151.469C80.0792 151.418 79.8682 151.375 79.6103 151.375ZM169.498 151.375C169.292 151.375 169.123 151.333 169.123 151.282C169.123 151.221 168.122 151.188 166.31 151.188H163.497V155.219V159.25H166.028C167.654 159.25 168.56 159.217 168.56 159.157C168.56 159.105 168.81 159.063 169.123 159.063C169.435 159.063 169.685 159.021 169.685 158.969C169.685 158.918 169.812 158.875 169.967 158.875C170.121 158.875 170.248 158.833 170.248 158.782C170.248 158.73 170.332 158.688 170.436 158.688C170.539 158.688 170.623 158.646 170.623 158.594C170.623 158.543 170.687 158.5 170.766 158.5C170.952 158.5 171.748 157.705 171.748 157.518C171.748 157.44 171.79 157.375 171.842 157.375C171.894 157.375 171.936 157.291 171.936 157.188C171.936 157.085 171.978 157 172.03 157C172.081 157 172.123 156.916 172.123 156.813C172.123 156.71 172.166 156.625 172.217 156.625C172.275 156.625 172.311 156.094 172.311 155.219C172.311 154.344 172.275 153.813 172.217 153.813C172.166 153.813 172.123 153.686 172.123 153.532C172.123 153.377 172.081 153.25 172.03 153.25C171.978 153.25 171.936 153.186 171.936 153.108C171.936 152.923 170.763 151.75 170.578 151.75C170.5 151.75 170.436 151.708 170.436 151.657C170.436 151.605 170.309 151.563 170.154 151.563C169.999 151.563 169.873 151.521 169.873 151.469C169.873 151.418 169.704 151.375 169.498 151.375ZM78.2038 162.063C77.3911 162.063 76.891 162.027 76.891 161.969C76.891 161.909 76.0471 161.875 74.5468 161.875H72.2025V165.344V168.813H75.1094C76.9848 168.813 78.0163 168.78 78.0163 168.719C78.0163 168.666 78.2976 168.625 78.6726 168.625C79.0477 168.625 79.329 168.585 79.329 168.532C79.329 168.48 79.4978 168.438 79.7041 168.438C79.9104 168.438 80.0792 168.396 80.0792 168.344C80.0792 168.293 80.1636 168.25 80.2667 168.25C80.3699 168.25 80.4543 168.208 80.4543 168.157C80.4543 168.105 80.5808 168.063 80.7356 168.063C80.8903 168.063 81.0169 168.021 81.0169 167.969C81.0169 167.918 81.0811 167.875 81.1596 167.875C81.3453 167.875 82.3297 166.891 82.3297 166.706C82.3297 166.627 82.3718 166.563 82.4234 166.563C82.475 166.563 82.5172 166.394 82.5172 166.188C82.5172 165.982 82.5594 165.813 82.611 165.813C82.6625 165.813 82.7047 165.644 82.7047 165.438C82.7047 165.232 82.6625 165.063 82.611 165.063C82.5594 165.063 82.5172 164.852 82.5172 164.594C82.5172 164.336 82.475 164.125 82.4234 164.125C82.3718 164.125 82.3297 164.041 82.3297 163.938C82.3297 163.835 82.2875 163.75 82.2359 163.75C82.1843 163.75 82.1421 163.685 82.1421 163.606C82.1421 163.428 81.7287 163 81.5576 163C81.4893 163 81.3725 162.916 81.2982 162.813C81.2238 162.71 81.088 162.625 80.9962 162.625C80.9044 162.625 80.8293 162.583 80.8293 162.532C80.8293 162.48 80.7028 162.438 80.548 162.438C80.3933 162.438 80.2667 162.396 80.2667 162.344C80.2667 162.293 80.0979 162.25 79.8916 162.25C79.6853 162.25 79.5166 162.208 79.5166 162.157C79.5166 162.099 79.0165 162.063 78.2038 162.063Z" fill="white"/>
</svg>
