<svg width="40" height="35" viewBox="0 0 40 35" fill="none" xmlns="http://www.w3.org/2000/svg">
<path fill-rule="evenodd" clip-rule="evenodd" d="M28.9089 15.5906L22.1897 27.3497L21.0762 25.4004L27.7954 13.6413L28.9089 15.5906ZM23.3017 29.2961L30.0223 17.537L31.1344 19.4836L24.4152 31.2427L23.3017 29.2961ZM32.2466 21.4315L25.5274 33.1906L26.562 34.9998H26.7184L33.3587 23.3781L32.2466 21.4315ZM28.9427 34.9998L34.4722 25.3246L35.5844 27.2726L31.1684 34.9998H28.9427ZM33.393 35H35.6187L37.809 31.1659L36.6968 29.2193L33.393 35ZM37.8442 34.9999L38.9223 33.1138L40.0005 34.9999H37.8442Z" fill="white"/>
<path fill-rule="evenodd" clip-rule="evenodd" d="M22.1086 34.9999L11.0549 15.6551L12.1684 13.7058L24.3356 34.9999H22.1086ZM17.6587 34.9999L8.82942 19.5482L9.94158 17.6017L19.8844 34.9999H17.6587ZM6.60523 23.4426L13.2089 34.9998H15.4346L7.7174 21.4947L6.60523 23.4426ZM8.75837 34.9997L4.37905 27.337L5.49122 25.3891L10.9827 34.9997H8.75837ZM2.15352 31.2305L4.30851 35H6.53284L3.26705 29.2839L2.15352 31.2305ZM1.04146 33.177L2.08293 34.9999H0L1.04146 33.177Z" fill="white"/>
<path fill-rule="evenodd" clip-rule="evenodd" d="M20.0001 0L21.1123 1.9452C20.7424 1.92322 20.3726 1.91635 20.0001 1.91635C19.6276 1.91635 19.2577 1.92597 18.8879 1.9452L20.0001 0ZM22.2858 4.00708L23.5285 6.18169C21.2009 5.6963 18.7997 5.6963 16.4721 6.18169L17.7148 4.00708C19.233 3.82392 20.7675 3.82392 22.2858 4.00708ZM26.5126 11.4021L24.8919 8.5612C21.7152 7.48845 18.2794 7.48845 15.1027 8.5612L13.4834 11.4021C15.4776 10.2877 17.7191 9.70308 19.998 9.70308C22.2768 9.70308 24.5184 10.2877 26.5126 11.4021ZM25.8012 13.2358L24.8386 14.92C23.3603 14.0489 21.6786 13.5928 19.9674 13.5985C18.2562 13.6043 16.5775 14.0719 15.1051 14.9529L14.1425 13.2674C15.9075 12.215 17.9183 11.6574 19.9676 11.6518C22.0169 11.6463 24.0307 12.193 25.8012 13.2358ZM19.9997 17.4932C21.0236 17.492 22.0291 17.7676 22.912 18.2914L23.876 16.6058C22.6906 15.9057 21.3411 15.5395 19.9681 15.5453C18.595 15.5511 17.2486 15.9287 16.0691 16.6388L17.0317 18.323C17.928 17.7789 18.9541 17.492 19.9997 17.4932ZM19.9042 21.3909C19.8702 21.3933 19.8357 21.3958 19.8025 21.3958C19.502 21.4276 19.2131 21.5307 18.9595 21.6967L17.9942 20.0097C18.5886 19.6426 19.2706 19.4456 19.9673 19.4398C20.6639 19.434 21.349 19.6196 21.9493 19.9768L20.9854 21.6637C20.9103 21.6163 20.8317 21.5749 20.7502 21.5401C20.5128 21.4382 20.2575 21.3859 19.9997 21.3862C19.9696 21.3862 19.9372 21.3885 19.9042 21.3909Z" fill="white"/>
</svg>
